<svg width="360" height="114" viewBox="0 0 360 114" fill="none" xmlns="http://www.w3.org/2000/svg">
<g filter="url(#filter0_d)">
<rect x="20" y="15" width="320" height="74" rx="20" fill="#F8FBFC"/>
<rect x="20.5" y="15.5" width="319" height="73" rx="19.5" stroke="#18499E"/>
</g>
<path d="M65.5393 50.64C65.5393 49.5307 65.7299 48.43 66.1113 47.338C66.5099 46.246 67.0819 45.258 67.8273 44.374C68.5726 43.4727 69.4913 42.762 70.5833 42.242C71.6753 41.7047 72.9146 41.436 74.3013 41.436C75.9306 41.436 77.3346 41.8173 78.5133 42.58C79.6919 43.3253 80.5586 44.2873 81.1133 45.466L79.6833 46.35C79.2846 45.5353 78.7819 44.894 78.1753 44.426C77.5686 43.9407 76.9186 43.594 76.2253 43.386C75.5493 43.178 74.8733 43.074 74.1973 43.074C73.0879 43.074 72.1086 43.2993 71.2593 43.75C70.4099 44.1833 69.6906 44.7727 69.1013 45.518C68.5293 46.2633 68.0959 47.0867 67.8013 47.988C67.5066 48.8893 67.3593 49.808 67.3593 50.744C67.3593 51.7667 67.5326 52.746 67.8793 53.682C68.2259 54.6007 68.7113 55.424 69.3353 56.152C69.9593 56.88 70.6873 57.4607 71.5193 57.894C72.3686 58.31 73.2873 58.518 74.2753 58.518C74.9686 58.518 75.6793 58.3967 76.4073 58.154C77.1353 57.9113 77.8113 57.5387 78.4353 57.036C79.0593 56.5333 79.5706 55.8833 79.9693 55.086L81.4773 55.866C81.0786 56.7847 80.4806 57.5647 79.6833 58.206C78.9033 58.8473 78.0193 59.3327 77.0313 59.662C76.0606 59.9913 75.1073 60.156 74.1713 60.156C72.9059 60.156 71.7446 59.8873 70.6873 59.35C69.6299 58.7953 68.7113 58.0673 67.9313 57.166C67.1686 56.2473 66.5793 55.2247 66.1633 54.098C65.7473 52.954 65.5393 51.8013 65.5393 50.64ZM95.6095 60H93.8415V52.434C93.8415 49.366 92.8015 47.832 90.7215 47.832C90.0455 47.832 89.3868 48.0053 88.7455 48.352C88.1042 48.6813 87.5322 49.1407 87.0295 49.73C86.5442 50.302 86.1975 50.9607 85.9895 51.706V60H84.2215V41.02H85.9895V49.522C86.5268 48.5167 87.2722 47.7193 88.2255 47.13C89.1962 46.5233 90.2275 46.22 91.3195 46.22C92.3595 46.22 93.1915 46.4713 93.8155 46.974C94.4395 47.4593 94.8902 48.144 95.1675 49.028C95.4622 49.8947 95.6095 50.9087 95.6095 52.07V60ZM105.23 60.26C103.93 60.26 102.768 59.9393 101.746 59.298C100.723 58.6567 99.917 57.7987 99.3277 56.724C98.7384 55.6493 98.4437 54.4707 98.4437 53.188C98.4437 51.9227 98.7297 50.7613 99.3017 49.704C99.891 48.6467 100.697 47.806 101.72 47.182C102.742 46.5407 103.904 46.22 105.204 46.22C106.538 46.22 107.708 46.5407 108.714 47.182C109.719 47.8233 110.499 48.6727 111.054 49.73C111.626 50.77 111.912 51.914 111.912 53.162C111.912 53.4393 111.903 53.6733 111.886 53.864H100.29C100.376 54.8347 100.654 55.7013 101.122 56.464C101.59 57.2093 102.188 57.8073 102.916 58.258C103.644 58.6913 104.441 58.908 105.308 58.908C106.192 58.908 107.024 58.6827 107.804 58.232C108.584 57.7813 109.138 57.192 109.468 56.464L111.002 56.88C110.724 57.5387 110.291 58.128 109.702 58.648C109.13 59.1507 108.462 59.5493 107.7 59.844C106.937 60.1213 106.114 60.26 105.23 60.26ZM100.238 52.59H110.248C110.178 51.6193 109.91 50.7613 109.442 50.016C108.974 49.2533 108.376 48.664 107.648 48.248C106.92 47.8147 106.114 47.598 105.23 47.598C104.346 47.598 103.54 47.8147 102.812 48.248C102.084 48.664 101.486 49.2533 101.018 50.016C100.567 50.7613 100.307 51.6193 100.238 52.59ZM120.515 60.26C119.198 60.26 118.028 59.9393 117.005 59.298C115.983 58.6393 115.177 57.7813 114.587 56.724C113.998 55.6493 113.703 54.4707 113.703 53.188C113.703 51.9053 113.989 50.744 114.561 49.704C115.133 48.6467 115.931 47.806 116.953 47.182C117.976 46.5407 119.155 46.22 120.489 46.22C121.755 46.22 122.864 46.5147 123.817 47.104C124.788 47.676 125.516 48.456 126.001 49.444L124.285 49.99C123.904 49.2967 123.367 48.7593 122.673 48.378C121.997 47.9793 121.243 47.78 120.411 47.78C119.493 47.78 118.661 48.014 117.915 48.482C117.187 48.95 116.598 49.6 116.147 50.432C115.714 51.2467 115.497 52.1653 115.497 53.188C115.497 54.2107 115.723 55.138 116.173 55.97C116.624 56.802 117.222 57.4693 117.967 57.972C118.713 58.4573 119.536 58.7 120.437 58.7C121.027 58.7 121.599 58.596 122.153 58.388C122.708 58.18 123.185 57.9027 123.583 57.556C123.982 57.192 124.251 56.802 124.389 56.386L126.131 56.906C125.889 57.5473 125.49 58.128 124.935 58.648C124.381 59.1507 123.722 59.5493 122.959 59.844C122.197 60.1213 121.382 60.26 120.515 60.26ZM138.581 60L133.563 53.058L130.677 55.762V60H128.909V41.02H130.677V53.864L138.347 46.48H140.297L134.759 52.018L140.505 60H138.581ZM155.095 60.26C153.795 60.26 152.634 59.9393 151.611 59.298C150.606 58.6567 149.817 57.8073 149.245 56.75C148.673 55.6753 148.387 54.514 148.387 53.266C148.387 52.0007 148.673 50.8393 149.245 49.782C149.834 48.7073 150.632 47.8493 151.637 47.208C152.66 46.5493 153.812 46.22 155.095 46.22C156.395 46.22 157.548 46.5493 158.553 47.208C159.576 47.8493 160.373 48.7073 160.945 49.782C161.534 50.8393 161.829 52.0007 161.829 53.266C161.829 54.514 161.543 55.6753 160.971 56.75C160.399 57.8073 159.602 58.6567 158.579 59.298C157.574 59.9393 156.412 60.26 155.095 60.26ZM150.181 53.292C150.181 54.2973 150.398 55.216 150.831 56.048C151.282 56.8627 151.88 57.5127 152.625 57.998C153.37 58.466 154.194 58.7 155.095 58.7C155.996 58.7 156.82 58.4573 157.565 57.972C158.31 57.4867 158.908 56.828 159.359 55.996C159.81 55.164 160.035 54.2453 160.035 53.24C160.035 52.2347 159.81 51.316 159.359 50.484C158.908 49.652 158.31 48.9933 157.565 48.508C156.82 48.0227 155.996 47.78 155.095 47.78C154.211 47.78 153.396 48.0313 152.651 48.534C151.906 49.0193 151.308 49.678 150.857 50.51C150.406 51.342 150.181 52.2693 150.181 53.292ZM164.656 54.41V46.454H166.424V54.098C166.424 57.166 167.473 58.7 169.57 58.7C170.61 58.7 171.581 58.362 172.482 57.686C173.401 57.01 174.059 56.1087 174.458 54.982V46.454H176.226V57.868C176.226 58.336 176.434 58.5787 176.85 58.596V60C176.642 60.0347 176.477 60.052 176.356 60.052C176.252 60.052 176.139 60.052 176.018 60.052C175.654 60.0173 175.342 59.8787 175.082 59.636C174.839 59.3933 174.718 59.0987 174.718 58.752L174.666 56.932C174.077 57.9893 173.271 58.8127 172.248 59.402C171.243 59.974 170.151 60.26 168.972 60.26C166.095 60.26 164.656 58.31 164.656 54.41ZM186.723 59.35C186.515 59.4367 186.134 59.5927 185.579 59.818C185.025 60.0433 184.383 60.156 183.655 60.156C182.893 60.156 182.225 59.9393 181.653 59.506C181.081 59.0727 180.795 58.4227 180.795 57.556V47.858H178.923V46.454H180.795V41.878H182.563V46.454H185.683V47.858H182.563V57.062C182.598 57.5647 182.771 57.9373 183.083 58.18C183.413 58.4053 183.785 58.518 184.201 58.518C184.687 58.518 185.12 58.44 185.501 58.284C185.9 58.1107 186.151 57.9893 186.255 57.92L186.723 59.35ZM215.709 60H213.941V52.434C213.941 50.874 213.69 49.7213 213.187 48.976C212.685 48.2133 211.939 47.832 210.951 47.832C209.911 47.832 208.993 48.196 208.195 48.924C207.398 49.652 206.835 50.588 206.505 51.732V60H204.737V52.434C204.737 50.8393 204.486 49.678 203.983 48.95C203.498 48.2047 202.761 47.832 201.773 47.832C200.751 47.832 199.832 48.1873 199.017 48.898C198.22 49.6087 197.657 50.5447 197.327 51.706V60H195.559V46.454H197.171V49.522C197.726 48.482 198.454 47.676 199.355 47.104C200.257 46.5147 201.253 46.22 202.345 46.22C203.472 46.22 204.382 46.5493 205.075 47.208C205.769 47.8493 206.193 48.6813 206.349 49.704C207.597 47.3813 209.339 46.22 211.575 46.22C213.101 46.22 214.167 46.7573 214.773 47.832C215.397 48.8893 215.709 50.302 215.709 52.07V60ZM219.953 64.16C220.195 64.1773 220.429 64.186 220.655 64.186C220.88 64.2033 221.045 64.1947 221.149 64.16C221.357 64.1427 221.547 64.0213 221.721 63.796C221.911 63.588 222.137 63.1893 222.397 62.6C222.674 62.028 223.047 61.1613 223.515 60L217.613 46.454H219.485L224.451 58.18L229.027 46.454H230.795L223.775 63.926C223.584 64.4287 223.263 64.862 222.813 65.226C222.362 65.59 221.764 65.7807 221.019 65.798C220.863 65.8153 220.698 65.8153 220.525 65.798C220.351 65.798 220.161 65.7807 219.953 65.746V64.16ZM255.5 46.454H257.242L251.418 60H249.884L247.05 53.266L244.242 60H242.708L236.884 46.454H238.6L243.54 58.18L246.036 52.07L243.748 46.48H245.334L247.05 50.874L248.792 46.48H250.352L248.09 52.07L250.586 58.18L255.5 46.454ZM264.91 60.26C263.61 60.26 262.448 59.9393 261.426 59.298C260.42 58.6567 259.632 57.8073 259.06 56.75C258.488 55.6753 258.202 54.514 258.202 53.266C258.202 52.0007 258.488 50.8393 259.06 49.782C259.649 48.7073 260.446 47.8493 261.452 47.208C262.474 46.5493 263.627 46.22 264.91 46.22C266.21 46.22 267.362 46.5493 268.368 47.208C269.39 47.8493 270.188 48.7073 270.76 49.782C271.349 50.8393 271.644 52.0007 271.644 53.266C271.644 54.514 271.358 55.6753 270.786 56.75C270.214 57.8073 269.416 58.6567 268.394 59.298C267.388 59.9393 266.227 60.26 264.91 60.26ZM259.996 53.292C259.996 54.2973 260.212 55.216 260.646 56.048C261.096 56.8627 261.694 57.5127 262.44 57.998C263.185 58.466 264.008 58.7 264.91 58.7C265.811 58.7 266.634 58.4573 267.38 57.972C268.125 57.4867 268.723 56.828 269.174 55.996C269.624 55.164 269.85 54.2453 269.85 53.24C269.85 52.2347 269.624 51.316 269.174 50.484C268.723 49.652 268.125 48.9933 267.38 48.508C266.634 48.0227 265.811 47.78 264.91 47.78C264.026 47.78 263.211 48.0313 262.466 48.534C261.72 49.0193 261.122 49.678 260.672 50.51C260.221 51.342 259.996 52.2693 259.996 53.292ZM281.36 48.014C280.182 48.0487 279.142 48.378 278.24 49.002C277.356 49.626 276.732 50.484 276.368 51.576V60H274.6V46.454H276.264V49.704C276.732 48.7507 277.348 47.9793 278.11 47.39C278.89 46.8007 279.714 46.4713 280.58 46.402C280.754 46.3847 280.901 46.376 281.022 46.376C281.144 46.376 281.256 46.3847 281.36 46.402V48.014ZM293.388 60L288.37 53.058L285.484 55.762V60H283.716V41.02H285.484V53.864L293.154 46.48H295.104L289.566 52.018L295.312 60H293.388Z" fill="#18499E"/>
<defs>
<filter id="filter0_d" x="0" y="0" width="360" height="114" filterUnits="userSpaceOnUse" color-interpolation-filters="sRGB">
<feFlood flood-opacity="0" result="BackgroundImageFix"/>
<feColorMatrix in="SourceAlpha" type="matrix" values="0 0 0 0 0 0 0 0 0 0 0 0 0 0 0 0 0 0 127 0"/>
<feOffset dy="5"/>
<feGaussianBlur stdDeviation="10"/>
<feColorMatrix type="matrix" values="0 0 0 0 0.768627 0 0 0 0 0.768627 0 0 0 0 0.768627 0 0 0 1 0"/>
<feBlend mode="normal" in2="BackgroundImageFix" result="effect1_dropShadow"/>
<feBlend mode="normal" in="SourceGraphic" in2="effect1_dropShadow" result="shape"/>
</filter>
</defs>
</svg>
