<svg width="380" height="114" viewBox="0 0 380 114" fill="none" xmlns="http://www.w3.org/2000/svg">
<g filter="url(#filter0_d)">
<rect x="20" y="15" width="340" height="74" rx="20" fill="#18499E"/>
</g>
<path d="M46.314 61V42.54H52.58C54.5387 42.54 56.168 42.956 57.468 43.788C58.7853 44.6027 59.7733 45.712 60.432 47.116C61.0907 48.5027 61.42 50.0453 61.42 51.744C61.42 53.616 61.056 55.2453 60.328 56.632C59.6 58.0187 58.5773 59.0933 57.26 59.856C55.9427 60.6187 54.3827 61 52.58 61H46.314ZM59.6 51.744C59.6 50.2707 59.3227 48.962 58.768 47.818C58.2307 46.674 57.4333 45.7813 56.376 45.14C55.336 44.4813 54.0707 44.152 52.58 44.152H48.134V59.388H52.58C54.1053 59.388 55.388 59.05 56.428 58.374C57.468 57.698 58.2567 56.788 58.794 55.644C59.3313 54.5 59.6 53.2 59.6 51.744ZM70.3079 61.26C69.0079 61.26 67.8466 60.9393 66.8239 60.298C65.8186 59.6567 65.0299 58.8073 64.4579 57.75C63.8859 56.6753 63.5999 55.514 63.5999 54.266C63.5999 53.0007 63.8859 51.8393 64.4579 50.782C65.0473 49.7073 65.8446 48.8493 66.8499 48.208C67.8726 47.5493 69.0253 47.22 70.3079 47.22C71.6079 47.22 72.7606 47.5493 73.7659 48.208C74.7886 48.8493 75.5859 49.7073 76.1579 50.782C76.7473 51.8393 77.0419 53.0007 77.0419 54.266C77.0419 55.514 76.7559 56.6753 76.1839 57.75C75.6119 58.8073 74.8146 59.6567 73.7919 60.298C72.7866 60.9393 71.6253 61.26 70.3079 61.26ZM65.3939 54.292C65.3939 55.2973 65.6106 56.216 66.0439 57.048C66.4946 57.8627 67.0926 58.5127 67.8379 58.998C68.5833 59.466 69.4066 59.7 70.3079 59.7C71.2093 59.7 72.0326 59.4573 72.7779 58.972C73.5233 58.4867 74.1213 57.828 74.5719 56.996C75.0226 56.164 75.2479 55.2453 75.2479 54.24C75.2479 53.2347 75.0226 52.316 74.5719 51.484C74.1213 50.652 73.5233 49.9933 72.7779 49.508C72.0326 49.0227 71.2093 48.78 70.3079 48.78C69.4239 48.78 68.6093 49.0313 67.8639 49.534C67.1186 50.0193 66.5206 50.678 66.0699 51.51C65.6193 52.342 65.3939 53.2693 65.3939 54.292ZM96.5978 47.454H98.3398L92.5158 61H90.9818L88.1478 54.266L85.3398 61H83.8058L77.9818 47.454H79.6978L84.6378 59.18L87.1338 53.07L84.8458 47.48H86.4318L88.1478 51.874L89.8898 47.48H91.4498L89.1878 53.07L91.6838 59.18L96.5978 47.454ZM112.08 61H110.312V53.434C110.312 51.8393 110.07 50.678 109.584 49.95C109.116 49.2047 108.388 48.832 107.4 48.832C106.707 48.832 106.022 49.0053 105.346 49.352C104.67 49.6813 104.072 50.1407 103.552 50.73C103.05 51.302 102.686 51.9607 102.46 52.706V61H100.692V47.454H102.304V50.522C102.842 49.534 103.63 48.7367 104.67 48.13C105.71 47.5233 106.837 47.22 108.05 47.22C109.056 47.22 109.853 47.4627 110.442 47.948C111.032 48.416 111.448 49.092 111.69 49.976C111.95 50.8427 112.08 51.874 112.08 53.07V61ZM115.928 42.02H117.696V57.932C117.696 58.608 117.809 59.05 118.034 59.258C118.277 59.466 118.58 59.57 118.944 59.57C119.256 59.57 119.568 59.5353 119.88 59.466C120.21 59.3967 120.478 59.3273 120.686 59.258L120.998 60.688C120.669 60.8267 120.262 60.9393 119.776 61.026C119.308 61.1127 118.901 61.156 118.554 61.156C117.757 61.156 117.116 60.922 116.63 60.454C116.162 59.986 115.928 59.3447 115.928 58.53V42.02ZM128.706 61.26C127.406 61.26 126.245 60.9393 125.222 60.298C124.217 59.6567 123.428 58.8073 122.856 57.75C122.284 56.6753 121.998 55.514 121.998 54.266C121.998 53.0007 122.284 51.8393 122.856 50.782C123.446 49.7073 124.243 48.8493 125.248 48.208C126.271 47.5493 127.424 47.22 128.706 47.22C130.006 47.22 131.159 47.5493 132.164 48.208C133.187 48.8493 133.984 49.7073 134.556 50.782C135.146 51.8393 135.44 53.0007 135.44 54.266C135.44 55.514 135.154 56.6753 134.582 57.75C134.01 58.8073 133.213 59.6567 132.19 60.298C131.185 60.9393 130.024 61.26 128.706 61.26ZM123.792 54.292C123.792 55.2973 124.009 56.216 124.442 57.048C124.893 57.8627 125.491 58.5127 126.236 58.998C126.982 59.466 127.805 59.7 128.706 59.7C129.608 59.7 130.431 59.4573 131.176 58.972C131.922 58.4867 132.52 57.828 132.97 56.996C133.421 56.164 133.646 55.2453 133.646 54.24C133.646 53.2347 133.421 52.316 132.97 51.484C132.52 50.652 131.922 49.9933 131.176 49.508C130.431 49.0227 129.608 48.78 128.706 48.78C127.822 48.78 127.008 49.0313 126.262 49.534C125.517 50.0193 124.919 50.678 124.468 51.51C124.018 52.342 123.792 53.2693 123.792 54.292ZM137.305 57.1C137.305 56.268 137.548 55.5487 138.033 54.942C138.519 54.318 139.186 53.8327 140.035 53.486C140.902 53.1393 141.899 52.966 143.025 52.966C143.684 52.966 144.369 53.0267 145.079 53.148C145.79 53.252 146.423 53.3993 146.977 53.59V52.446C146.977 51.302 146.639 50.392 145.963 49.716C145.287 49.04 144.351 48.702 143.155 48.702C142.445 48.702 141.734 48.8407 141.023 49.118C140.313 49.378 139.576 49.768 138.813 50.288L138.137 49.04C139.021 48.4333 139.888 47.9827 140.737 47.688C141.587 47.376 142.453 47.22 143.337 47.22C145.001 47.22 146.319 47.6967 147.289 48.65C148.26 49.6033 148.745 50.9207 148.745 52.602V58.868C148.745 59.336 148.962 59.5787 149.395 59.596V61C149.014 61.052 148.745 61.0693 148.589 61.052C148.156 61.0347 147.827 60.896 147.601 60.636C147.376 60.376 147.255 60.0987 147.237 59.804L147.211 58.816C146.605 59.596 145.816 60.2027 144.845 60.636C143.875 61.052 142.887 61.26 141.881 61.26C140.997 61.26 140.209 61.078 139.515 60.714C138.822 60.3327 138.276 59.83 137.877 59.206C137.496 58.5647 137.305 57.8627 137.305 57.1ZM146.379 58.14C146.778 57.672 146.977 57.2387 146.977 56.84V54.864C145.781 54.396 144.533 54.162 143.233 54.162C141.968 54.162 140.945 54.4133 140.165 54.916C139.385 55.4187 138.995 56.1033 138.995 56.97C138.995 57.7153 139.281 58.3913 139.853 58.998C140.443 59.6047 141.257 59.908 142.297 59.908C143.147 59.908 143.935 59.7433 144.663 59.414C145.409 59.0847 145.981 58.66 146.379 58.14ZM151.655 54.266C151.655 52.9833 151.915 51.8133 152.435 50.756C152.973 49.6813 153.709 48.8233 154.645 48.182C155.581 47.5407 156.647 47.22 157.843 47.22C158.97 47.22 159.975 47.5233 160.859 48.13C161.761 48.7193 162.463 49.4387 162.965 50.288V42.02H164.733V58.868C164.733 59.336 164.941 59.5787 165.357 59.596V61C165.011 61.052 164.742 61.0693 164.551 61.052C164.17 61.0347 163.841 60.896 163.563 60.636C163.303 60.3587 163.173 60.0467 163.173 59.7V58.374C162.636 59.258 161.908 59.96 160.989 60.48C160.071 61 159.117 61.26 158.129 61.26C157.193 61.26 156.327 61.0693 155.529 60.688C154.732 60.3067 154.039 59.7867 153.449 59.128C152.877 58.4693 152.435 57.724 152.123 56.892C151.811 56.0427 151.655 55.1673 151.655 54.266ZM162.965 56.346V52.16C162.74 51.536 162.376 50.9727 161.873 50.47C161.371 49.95 160.799 49.5427 160.157 49.248C159.533 48.936 158.909 48.78 158.285 48.78C157.315 48.78 156.465 49.0487 155.737 49.586C155.027 50.106 154.472 50.7907 154.073 51.64C153.675 52.472 153.475 53.3473 153.475 54.266C153.475 55.2367 153.692 56.138 154.125 56.97C154.576 57.802 155.183 58.4693 155.945 58.972C156.708 59.4573 157.566 59.7 158.519 59.7C159.109 59.7 159.724 59.5527 160.365 59.258C161.024 58.946 161.596 58.5387 162.081 58.036C162.584 57.5333 162.879 56.97 162.965 56.346ZM195.516 61H193.748V53.434C193.748 51.874 193.497 50.7213 192.994 49.976C192.491 49.2133 191.746 48.832 190.758 48.832C189.718 48.832 188.799 49.196 188.002 49.924C187.205 50.652 186.641 51.588 186.312 52.732V61H184.544V53.434C184.544 51.8393 184.293 50.678 183.79 49.95C183.305 49.2047 182.568 48.832 181.58 48.832C180.557 48.832 179.639 49.1873 178.824 49.898C178.027 50.6087 177.463 51.5447 177.134 52.706V61H175.366V47.454H176.978V50.522C177.533 49.482 178.261 48.676 179.162 48.104C180.063 47.5147 181.06 47.22 182.152 47.22C183.279 47.22 184.189 47.5493 184.882 48.208C185.575 48.8493 186 49.6813 186.156 50.704C187.404 48.3813 189.146 47.22 191.382 47.22C192.907 47.22 193.973 47.7573 194.58 48.832C195.204 49.8893 195.516 51.302 195.516 53.07V61ZM199.759 65.16C200.002 65.1773 200.236 65.186 200.461 65.186C200.687 65.2033 200.851 65.1947 200.955 65.16C201.163 65.1427 201.354 65.0213 201.527 64.796C201.718 64.588 201.943 64.1893 202.203 63.6C202.481 63.028 202.853 62.1613 203.321 61L197.419 47.454H199.291L204.257 59.18L208.833 47.454H210.601L203.581 64.926C203.391 65.4287 203.07 65.862 202.619 66.226C202.169 66.59 201.571 66.7807 200.825 66.798C200.669 66.8153 200.505 66.8153 200.331 66.798C200.158 66.798 199.967 66.7807 199.759 66.746V65.16ZM218.129 51.64C218.129 50.5307 218.32 49.43 218.701 48.338C219.1 47.246 219.672 46.258 220.417 45.374C221.162 44.4727 222.081 43.762 223.173 43.242C224.265 42.7047 225.504 42.436 226.891 42.436C228.52 42.436 229.924 42.8173 231.103 43.58C232.282 44.3253 233.148 45.2873 233.703 46.466L232.273 47.35C231.874 46.5353 231.372 45.894 230.765 45.426C230.158 44.9407 229.508 44.594 228.815 44.386C228.139 44.178 227.463 44.074 226.787 44.074C225.678 44.074 224.698 44.2993 223.849 44.75C223 45.1833 222.28 45.7727 221.691 46.518C221.119 47.2633 220.686 48.0867 220.391 48.988C220.096 49.8893 219.949 50.808 219.949 51.744C219.949 52.7667 220.122 53.746 220.469 54.682C220.816 55.6007 221.301 56.424 221.925 57.152C222.549 57.88 223.277 58.4607 224.109 58.894C224.958 59.31 225.877 59.518 226.865 59.518C227.558 59.518 228.269 59.3967 228.997 59.154C229.725 58.9113 230.401 58.5387 231.025 58.036C231.649 57.5333 232.16 56.8833 232.559 56.086L234.067 56.866C233.668 57.7847 233.07 58.5647 232.273 59.206C231.493 59.8473 230.609 60.3327 229.621 60.662C228.65 60.9913 227.697 61.156 226.761 61.156C225.496 61.156 224.334 60.8873 223.277 60.35C222.22 59.7953 221.301 59.0673 220.521 58.166C219.758 57.2473 219.169 56.2247 218.753 55.098C218.337 53.954 218.129 52.8013 218.129 51.64ZM236.793 42.54L243.397 58.738L249.975 42.54H251.873L244.229 61H242.565L234.895 42.54H236.793Z" fill="#F8FBFC"/>
<path fill-rule="evenodd" clip-rule="evenodd" d="M324 38C320.287 38 316.726 39.475 314.101 42.1005C311.475 44.726 310 48.287 310 52C310 55.713 311.475 59.274 314.101 61.8995C316.726 64.525 320.287 66 324 66C327.713 66 331.274 64.525 333.899 61.8995C336.525 59.274 338 55.713 338 52C338 48.287 336.525 44.726 333.899 42.1005C331.274 39.475 327.713 38 324 38ZM324 68C319.757 68 315.687 66.3143 312.686 63.3137C309.686 60.3131 308 56.2435 308 52C308 47.7565 309.686 43.6869 312.686 40.6863C315.687 37.6857 319.757 36 324 36C328.243 36 332.313 37.6857 335.314 40.6863C338.314 43.6869 340 47.7565 340 52C340 56.2435 338.314 60.3131 335.314 63.3137C332.313 66.3143 328.243 68 324 68ZM325 45C325 44.7348 324.895 44.4804 324.707 44.2929C324.52 44.1054 324.265 44 324 44C323.735 44 323.48 44.1054 323.293 44.2929C323.105 44.4804 323 44.7348 323 45V56.586L318.708 52.292C318.615 52.199 318.505 52.1253 318.383 52.075C318.262 52.0246 318.131 51.9987 318 51.9987C317.869 51.9987 317.738 52.0246 317.617 52.075C317.495 52.1253 317.385 52.199 317.292 52.292C317.199 52.385 317.125 52.4954 317.075 52.6168C317.025 52.7383 316.999 52.8685 316.999 53C316.999 53.1315 317.025 53.2617 317.075 53.3832C317.125 53.5046 317.199 53.615 317.292 53.708L323.292 59.708C323.385 59.8011 323.495 59.875 323.617 59.9254C323.738 59.9758 323.868 60.0018 324 60.0018C324.132 60.0018 324.262 59.9758 324.383 59.9254C324.505 59.875 324.615 59.8011 324.708 59.708L330.708 53.708C330.801 53.615 330.875 53.5046 330.925 53.3832C330.975 53.2617 331.001 53.1315 331.001 53C331.001 52.8685 330.975 52.7383 330.925 52.6168C330.875 52.4954 330.801 52.385 330.708 52.292C330.615 52.199 330.505 52.1253 330.383 52.075C330.262 52.0246 330.131 51.9987 330 51.9987C329.869 51.9987 329.738 52.0246 329.617 52.075C329.495 52.1253 329.385 52.199 329.292 52.292L325 56.586V45Z" fill="#F8FBFC"/>
<defs>
<filter id="filter0_d" x="0" y="0" width="380" height="114" filterUnits="userSpaceOnUse" color-interpolation-filters="sRGB">
<feFlood flood-opacity="0" result="BackgroundImageFix"/>
<feColorMatrix in="SourceAlpha" type="matrix" values="0 0 0 0 0 0 0 0 0 0 0 0 0 0 0 0 0 0 127 0"/>
<feOffset dy="5"/>
<feGaussianBlur stdDeviation="10"/>
<feColorMatrix type="matrix" values="0 0 0 0 0.768627 0 0 0 0 0.768627 0 0 0 0 0.768627 0 0 0 1 0"/>
<feBlend mode="normal" in2="BackgroundImageFix" result="effect1_dropShadow"/>
<feBlend mode="normal" in="SourceGraphic" in2="effect1_dropShadow" result="shape"/>
</filter>
</defs>
</svg>
