<svg width="380" height="114" viewBox="0 0 380 114" fill="none" xmlns="http://www.w3.org/2000/svg">
<g filter="url(#filter0_d)">
<rect x="20" y="15" width="340" height="74" rx="20" fill="#18499E"/>
</g>
<path d="M53.724 61.13C52.476 61.13 51.3233 60.87 50.266 60.35C49.226 59.8127 48.316 59.0933 47.536 58.192C46.756 57.2907 46.1493 56.2853 45.716 55.176C45.3 54.0493 45.092 52.9053 45.092 51.744C45.092 50.5133 45.3 49.3433 45.716 48.234C46.1493 47.1073 46.7473 46.1107 47.51 45.244C48.2727 44.36 49.174 43.6667 50.214 43.164C51.254 42.6613 52.3893 42.41 53.62 42.41C55.44 42.41 56.922 42.7827 58.066 43.528C59.21 44.2733 60.0767 45.244 60.666 46.44L59.262 47.376C58.6727 46.232 57.884 45.3913 56.896 44.854C55.908 44.3167 54.8073 44.048 53.594 44.048C52.5713 44.048 51.644 44.2647 50.812 44.698C49.9973 45.1313 49.2953 45.712 48.706 46.44C48.134 47.168 47.692 47.9913 47.38 48.91C47.068 49.8287 46.912 50.782 46.912 51.77C46.912 52.81 47.0853 53.798 47.432 54.734C47.7787 55.6527 48.264 56.476 48.888 57.204C49.5293 57.9147 50.266 58.478 51.098 58.894C51.9473 59.2927 52.866 59.492 53.854 59.492C54.9113 59.492 55.9167 59.2407 56.87 58.738C57.8407 58.2353 58.768 57.4553 59.652 56.398V53.33H55.544V51.926H61.186V61H59.652V58.296C57.9533 60.1853 55.9773 61.13 53.724 61.13ZM70.3333 61.26C69.0333 61.26 67.872 60.9393 66.8493 60.298C65.844 59.6567 65.0553 58.8073 64.4833 57.75C63.9113 56.6753 63.6253 55.514 63.6253 54.266C63.6253 53.0007 63.9113 51.8393 64.4833 50.782C65.0727 49.7073 65.87 48.8493 66.8753 48.208C67.898 47.5493 69.0507 47.22 70.3333 47.22C71.6333 47.22 72.786 47.5493 73.7913 48.208C74.814 48.8493 75.6113 49.7073 76.1833 50.782C76.7727 51.8393 77.0673 53.0007 77.0673 54.266C77.0673 55.514 76.7813 56.6753 76.2093 57.75C75.6373 58.8073 74.84 59.6567 73.8173 60.298C72.812 60.9393 71.6507 61.26 70.3333 61.26ZM65.4193 54.292C65.4193 55.2973 65.636 56.216 66.0693 57.048C66.52 57.8627 67.118 58.5127 67.8633 58.998C68.6087 59.466 69.432 59.7 70.3333 59.7C71.2347 59.7 72.058 59.4573 72.8033 58.972C73.5487 58.4867 74.1467 57.828 74.5973 56.996C75.048 56.164 75.2733 55.2453 75.2733 54.24C75.2733 53.2347 75.048 52.316 74.5973 51.484C74.1467 50.652 73.5487 49.9933 72.8033 49.508C72.058 49.0227 71.2347 48.78 70.3333 48.78C69.4493 48.78 68.6347 49.0313 67.8893 49.534C67.144 50.0193 66.546 50.678 66.0953 51.51C65.6447 52.342 65.4193 53.2693 65.4193 54.292ZM93.1512 60.35C92.9432 60.4367 92.5618 60.5927 92.0072 60.818C91.4525 61.0433 90.8112 61.156 90.0832 61.156C89.3205 61.156 88.6532 60.9393 88.0812 60.506C87.5092 60.0727 87.2232 59.4227 87.2232 58.556V48.858H85.3512V47.454H87.2232V42.878H88.9912V47.454H92.1112V48.858H88.9912V58.062C89.0258 58.5647 89.1992 58.9373 89.5112 59.18C89.8405 59.4053 90.2132 59.518 90.6292 59.518C91.1145 59.518 91.5478 59.44 91.9292 59.284C92.3278 59.1107 92.5792 58.9893 92.6832 58.92L93.1512 60.35ZM100.904 61.26C99.6036 61.26 98.4423 60.9393 97.4196 60.298C96.4143 59.6567 95.6256 58.8073 95.0536 57.75C94.4816 56.6753 94.1956 55.514 94.1956 54.266C94.1956 53.0007 94.4816 51.8393 95.0536 50.782C95.643 49.7073 96.4403 48.8493 97.4456 48.208C98.4683 47.5493 99.621 47.22 100.904 47.22C102.204 47.22 103.356 47.5493 104.362 48.208C105.384 48.8493 106.182 49.7073 106.754 50.782C107.343 51.8393 107.638 53.0007 107.638 54.266C107.638 55.514 107.352 56.6753 106.78 57.75C106.208 58.8073 105.41 59.6567 104.388 60.298C103.382 60.9393 102.221 61.26 100.904 61.26ZM95.9896 54.292C95.9896 55.2973 96.2063 56.216 96.6396 57.048C97.0903 57.8627 97.6883 58.5127 98.4336 58.998C99.179 59.466 100.002 59.7 100.904 59.7C101.805 59.7 102.628 59.4573 103.374 58.972C104.119 58.4867 104.717 57.828 105.168 56.996C105.618 56.164 105.844 55.2453 105.844 54.24C105.844 53.2347 105.618 52.316 105.168 51.484C104.717 50.652 104.119 49.9933 103.374 49.508C102.628 49.0227 101.805 48.78 100.904 48.78C100.02 48.78 99.205 49.0313 98.4596 49.534C97.7143 50.0193 97.1163 50.678 96.6656 51.51C96.215 52.342 95.9896 53.2693 95.9896 54.292ZM116.363 51.64C116.363 50.5307 116.554 49.43 116.935 48.338C117.334 47.246 117.906 46.258 118.651 45.374C119.397 44.4727 120.315 43.762 121.407 43.242C122.499 42.7047 123.739 42.436 125.125 42.436C126.755 42.436 128.159 42.8173 129.337 43.58C130.516 44.3253 131.383 45.2873 131.937 46.466L130.507 47.35C130.109 46.5353 129.606 45.894 128.999 45.426C128.393 44.9407 127.743 44.594 127.049 44.386C126.373 44.178 125.697 44.074 125.021 44.074C123.912 44.074 122.933 44.2993 122.083 44.75C121.234 45.1833 120.515 45.7727 119.925 46.518C119.353 47.2633 118.92 48.0867 118.625 48.988C118.331 49.8893 118.183 50.808 118.183 51.744C118.183 52.7667 118.357 53.746 118.703 54.682C119.05 55.6007 119.535 56.424 120.159 57.152C120.783 57.88 121.511 58.4607 122.343 58.894C123.193 59.31 124.111 59.518 125.099 59.518C125.793 59.518 126.503 59.3967 127.231 59.154C127.959 58.9113 128.635 58.5387 129.259 58.036C129.883 57.5333 130.395 56.8833 130.793 56.086L132.301 56.866C131.903 57.7847 131.305 58.5647 130.507 59.206C129.727 59.8473 128.843 60.3327 127.855 60.662C126.885 60.9913 125.931 61.156 124.995 61.156C123.73 61.156 122.569 60.8873 121.511 60.35C120.454 59.7953 119.535 59.0673 118.755 58.166C117.993 57.2473 117.403 56.2247 116.987 55.098C116.571 53.954 116.363 52.8013 116.363 51.64ZM133.954 57.1C133.954 56.268 134.196 55.5487 134.682 54.942C135.167 54.318 135.834 53.8327 136.684 53.486C137.55 53.1393 138.547 52.966 139.674 52.966C140.332 52.966 141.017 53.0267 141.728 53.148C142.438 53.252 143.071 53.3993 143.626 53.59V52.446C143.626 51.302 143.288 50.392 142.612 49.716C141.936 49.04 141 48.702 139.804 48.702C139.093 48.702 138.382 48.8407 137.672 49.118C136.961 49.378 136.224 49.768 135.462 50.288L134.786 49.04C135.67 48.4333 136.536 47.9827 137.386 47.688C138.235 47.376 139.102 47.22 139.986 47.22C141.65 47.22 142.967 47.6967 143.938 48.65C144.908 49.6033 145.394 50.9207 145.394 52.602V58.868C145.394 59.336 145.61 59.5787 146.044 59.596V61C145.662 61.052 145.394 61.0693 145.238 61.052C144.804 61.0347 144.475 60.896 144.25 60.636C144.024 60.376 143.903 60.0987 143.886 59.804L143.86 58.816C143.253 59.596 142.464 60.2027 141.494 60.636C140.523 61.052 139.535 61.26 138.53 61.26C137.646 61.26 136.857 61.078 136.164 60.714C135.47 60.3327 134.924 59.83 134.526 59.206C134.144 58.5647 133.954 57.8627 133.954 57.1ZM143.028 58.14C143.426 57.672 143.626 57.2387 143.626 56.84V54.864C142.43 54.396 141.182 54.162 139.882 54.162C138.616 54.162 137.594 54.4133 136.814 54.916C136.034 55.4187 135.644 56.1033 135.644 56.97C135.644 57.7153 135.93 58.3913 136.502 58.998C137.091 59.6047 137.906 59.908 138.946 59.908C139.795 59.908 140.584 59.7433 141.312 59.414C142.057 59.0847 142.629 58.66 143.028 58.14ZM153.66 61.26C152.55 61.26 151.519 61.078 150.566 60.714C149.63 60.3327 148.806 59.778 148.096 59.05L148.824 57.802C149.586 58.5127 150.349 59.0327 151.112 59.362C151.892 59.674 152.715 59.83 153.582 59.83C154.622 59.83 155.471 59.622 156.13 59.206C156.806 58.7727 157.144 58.1573 157.144 57.36C157.144 56.8227 156.979 56.4153 156.65 56.138C156.338 55.8433 155.878 55.6093 155.272 55.436C154.682 55.2627 153.972 55.0633 153.14 54.838C152.204 54.578 151.415 54.3093 150.774 54.032C150.15 53.7373 149.673 53.3733 149.344 52.94C149.032 52.4893 148.876 51.9087 148.876 51.198C148.876 50.3313 149.092 49.6033 149.526 49.014C149.976 48.4247 150.583 47.9827 151.346 47.688C152.126 47.376 152.992 47.22 153.946 47.22C154.986 47.22 155.904 47.3847 156.702 47.714C157.499 48.0433 158.149 48.5027 158.652 49.092L157.794 50.288C157.326 49.7333 156.745 49.326 156.052 49.066C155.376 48.7887 154.639 48.65 153.842 48.65C153.287 48.65 152.758 48.728 152.256 48.884C151.753 49.0227 151.337 49.2653 151.008 49.612C150.696 49.9413 150.54 50.4007 150.54 50.99C150.54 51.718 150.808 52.2207 151.346 52.498C151.883 52.7753 152.698 53.07 153.79 53.382C154.812 53.6593 155.705 53.9367 156.468 54.214C157.23 54.4913 157.82 54.864 158.236 55.332C158.652 55.7827 158.86 56.4153 158.86 57.23C158.86 58.4953 158.383 59.4833 157.43 60.194C156.476 60.9047 155.22 61.26 153.66 61.26ZM167.632 61.26C166.332 61.26 165.171 60.9393 164.148 60.298C163.125 59.6567 162.319 58.7987 161.73 57.724C161.141 56.6493 160.846 55.4707 160.846 54.188C160.846 52.9227 161.132 51.7613 161.704 50.704C162.293 49.6467 163.099 48.806 164.122 48.182C165.145 47.5407 166.306 47.22 167.606 47.22C168.941 47.22 170.111 47.5407 171.116 48.182C172.121 48.8233 172.901 49.6727 173.456 50.73C174.028 51.77 174.314 52.914 174.314 54.162C174.314 54.4393 174.305 54.6733 174.288 54.864H162.692C162.779 55.8347 163.056 56.7013 163.524 57.464C163.992 58.2093 164.59 58.8073 165.318 59.258C166.046 59.6913 166.843 59.908 167.71 59.908C168.594 59.908 169.426 59.6827 170.206 59.232C170.986 58.7813 171.541 58.192 171.87 57.464L173.404 57.88C173.127 58.5387 172.693 59.128 172.104 59.648C171.532 60.1507 170.865 60.5493 170.102 60.844C169.339 61.1213 168.516 61.26 167.632 61.26ZM162.64 53.59H172.65C172.581 52.6193 172.312 51.7613 171.844 51.016C171.376 50.2533 170.778 49.664 170.05 49.248C169.322 48.8147 168.516 48.598 167.632 48.598C166.748 48.598 165.942 48.8147 165.214 49.248C164.486 49.664 163.888 50.2533 163.42 51.016C162.969 51.7613 162.709 52.6193 162.64 53.59ZM194.823 45.998C194.303 45.426 193.609 44.958 192.743 44.594C191.876 44.2127 190.888 44.022 189.779 44.022C188.149 44.022 186.962 44.334 186.217 44.958C185.471 45.5647 185.099 46.3967 185.099 47.454C185.099 48.182 185.281 48.754 185.645 49.17C186.009 49.586 186.563 49.9327 187.309 50.21C188.071 50.47 189.042 50.73 190.221 50.99C191.538 51.2673 192.673 51.5967 193.627 51.978C194.58 52.3593 195.317 52.8793 195.837 53.538C196.357 54.1793 196.617 55.0547 196.617 56.164C196.617 57.2907 196.331 58.2267 195.759 58.972C195.187 59.7173 194.398 60.272 193.393 60.636C192.387 60.9827 191.243 61.156 189.961 61.156C187.083 61.156 184.613 60.2633 182.551 58.478L183.461 56.996C184.119 57.6893 185.021 58.2873 186.165 58.79C187.326 59.2927 188.609 59.544 190.013 59.544C191.469 59.544 192.613 59.2753 193.445 58.738C194.277 58.2007 194.693 57.4033 194.693 56.346C194.693 55.5833 194.485 54.9767 194.069 54.526C193.653 54.058 193.029 53.6767 192.197 53.382C191.365 53.0873 190.342 52.8013 189.129 52.524C187.846 52.2293 186.763 51.9 185.879 51.536C185.012 51.172 184.353 50.6953 183.903 50.106C183.452 49.5167 183.227 48.7193 183.227 47.714C183.227 46.57 183.504 45.608 184.059 44.828C184.631 44.0307 185.411 43.4327 186.399 43.034C187.387 42.618 188.522 42.41 189.805 42.41C191.018 42.41 192.11 42.6007 193.081 42.982C194.051 43.346 194.927 43.866 195.707 44.542L194.823 45.998ZM205.733 60.35C205.525 60.4367 205.144 60.5927 204.589 60.818C204.035 61.0433 203.393 61.156 202.665 61.156C201.903 61.156 201.235 60.9393 200.663 60.506C200.091 60.0727 199.805 59.4227 199.805 58.556V48.858H197.933V47.454H199.805V42.878H201.573V47.454H204.693V48.858H201.573V58.062C201.608 58.5647 201.781 58.9373 202.093 59.18C202.423 59.4053 202.795 59.518 203.211 59.518C203.697 59.518 204.13 59.44 204.511 59.284C204.91 59.1107 205.161 58.9893 205.265 58.92L205.733 60.35ZM207.812 55.41V47.454H209.58V55.098C209.58 58.166 210.629 59.7 212.726 59.7C213.766 59.7 214.737 59.362 215.638 58.686C216.557 58.01 217.216 57.1087 217.614 55.982V47.454H219.382V58.868C219.382 59.336 219.59 59.5787 220.006 59.596V61C219.798 61.0347 219.634 61.052 219.512 61.052C219.408 61.052 219.296 61.052 219.174 61.052C218.81 61.0173 218.498 60.8787 218.238 60.636C217.996 60.3933 217.874 60.0987 217.874 59.752L217.822 57.932C217.233 58.9893 216.427 59.8127 215.404 60.402C214.399 60.974 213.307 61.26 212.128 61.26C209.251 61.26 207.812 59.31 207.812 55.41ZM222.47 54.266C222.47 52.9833 222.73 51.8133 223.25 50.756C223.787 49.6813 224.524 48.8233 225.46 48.182C226.396 47.5407 227.462 47.22 228.658 47.22C229.784 47.22 230.79 47.5233 231.674 48.13C232.575 48.7193 233.277 49.4387 233.78 50.288V42.02H235.548V58.868C235.548 59.336 235.756 59.5787 236.172 59.596V61C235.825 61.052 235.556 61.0693 235.366 61.052C234.984 61.0347 234.655 60.896 234.378 60.636C234.118 60.3587 233.988 60.0467 233.988 59.7V58.374C233.45 59.258 232.722 59.96 231.804 60.48C230.885 61 229.932 61.26 228.944 61.26C228.008 61.26 227.141 61.0693 226.344 60.688C225.546 60.3067 224.853 59.7867 224.264 59.128C223.692 58.4693 223.25 57.724 222.938 56.892C222.626 56.0427 222.47 55.1673 222.47 54.266ZM233.78 56.346V52.16C233.554 51.536 233.19 50.9727 232.688 50.47C232.185 49.95 231.613 49.5427 230.972 49.248C230.348 48.936 229.724 48.78 229.1 48.78C228.129 48.78 227.28 49.0487 226.552 49.586C225.841 50.106 225.286 50.7907 224.888 51.64C224.489 52.472 224.29 53.3473 224.29 54.266C224.29 55.2367 224.506 56.138 224.94 56.97C225.39 57.802 225.997 58.4693 226.76 58.972C227.522 59.4573 228.38 59.7 229.334 59.7C229.923 59.7 230.538 59.5527 231.18 59.258C231.838 58.946 232.41 58.5387 232.896 58.036C233.398 57.5333 233.693 56.97 233.78 56.346ZM240.334 65.16C240.576 65.1773 240.81 65.186 241.036 65.186C241.261 65.2033 241.426 65.1947 241.53 65.16C241.738 65.1427 241.928 65.0213 242.102 64.796C242.292 64.588 242.518 64.1893 242.778 63.6C243.055 63.028 243.428 62.1613 243.896 61L237.994 47.454H239.866L244.832 59.18L249.408 47.454H251.176L244.156 64.926C243.965 65.4287 243.644 65.862 243.194 66.226C242.743 66.59 242.145 66.7807 241.4 66.798C241.244 66.8153 241.079 66.8153 240.906 66.798C240.732 66.798 240.542 66.7807 240.334 66.746V65.16Z" fill="#F8FBFC"/>
<path fill-rule="evenodd" clip-rule="evenodd" d="M310 52C310 55.713 311.475 59.274 314.101 61.8995C316.726 64.525 320.287 66 324 66C327.713 66 331.274 64.525 333.899 61.8995C336.525 59.274 338 55.713 338 52C338 48.287 336.525 44.726 333.899 42.1005C331.274 39.475 327.713 38 324 38C320.287 38 316.726 39.475 314.101 42.1005C311.475 44.726 310 48.287 310 52ZM340 52C340 56.2435 338.314 60.3131 335.314 63.3137C332.313 66.3143 328.243 68 324 68C319.757 68 315.687 66.3143 312.686 63.3137C309.686 60.3131 308 56.2435 308 52C308 47.7565 309.686 43.6869 312.686 40.6863C315.687 37.6857 319.757 36 324 36C328.243 36 332.313 37.6857 335.314 40.6863C338.314 43.6869 340 47.7565 340 52ZM317 51C316.735 51 316.48 51.1054 316.293 51.2929C316.105 51.4804 316 51.7348 316 52C316 52.2652 316.105 52.5196 316.293 52.7071C316.48 52.8946 316.735 53 317 53H328.586L324.292 57.292C324.199 57.385 324.125 57.4954 324.075 57.6168C324.025 57.7383 323.999 57.8685 323.999 58C323.999 58.1315 324.025 58.2617 324.075 58.3832C324.125 58.5046 324.199 58.615 324.292 58.708C324.385 58.801 324.495 58.8747 324.617 58.925C324.738 58.9754 324.869 59.0013 325 59.0013C325.131 59.0013 325.262 58.9754 325.383 58.925C325.505 58.8747 325.615 58.801 325.708 58.708L331.708 52.708C331.801 52.6151 331.875 52.5048 331.925 52.3833C331.976 52.2618 332.002 52.1315 332.002 52C332.002 51.8685 331.976 51.7382 331.925 51.6167C331.875 51.4952 331.801 51.3849 331.708 51.292L325.708 45.292C325.615 45.199 325.505 45.1253 325.383 45.075C325.262 45.0246 325.131 44.9987 325 44.9987C324.869 44.9987 324.738 45.0246 324.617 45.075C324.495 45.1253 324.385 45.199 324.292 45.292C324.199 45.385 324.125 45.4954 324.075 45.6168C324.025 45.7383 323.999 45.8685 323.999 46C323.999 46.1315 324.025 46.2617 324.075 46.3832C324.125 46.5046 324.199 46.615 324.292 46.708L328.586 51H317Z" fill="#F8FBFC"/>
<defs>
<filter id="filter0_d" x="0" y="0" width="380" height="114" filterUnits="userSpaceOnUse" color-interpolation-filters="sRGB">
<feFlood flood-opacity="0" result="BackgroundImageFix"/>
<feColorMatrix in="SourceAlpha" type="matrix" values="0 0 0 0 0 0 0 0 0 0 0 0 0 0 0 0 0 0 127 0"/>
<feOffset dy="5"/>
<feGaussianBlur stdDeviation="10"/>
<feColorMatrix type="matrix" values="0 0 0 0 0.768627 0 0 0 0 0.768627 0 0 0 0 0.768627 0 0 0 1 0"/>
<feBlend mode="normal" in2="BackgroundImageFix" result="effect1_dropShadow"/>
<feBlend mode="normal" in="SourceGraphic" in2="effect1_dropShadow" result="shape"/>
</filter>
</defs>
</svg>
