<svg width="360" height="114" viewBox="0 0 360 114" fill="none" xmlns="http://www.w3.org/2000/svg">
<g filter="url(#filter0_d)">
<rect x="20" y="15" width="320" height="74" rx="20" fill="#18499E"/>
</g>
<path d="M150.219 44.54V63H148.425V54.368H137.479V63H135.659V44.54H137.479V52.756H148.425V44.54H150.219ZM154.49 46.62V44.02H156.258V46.62H154.49ZM154.49 63V49.454H156.258V63H154.49ZM166.912 51.014C165.733 51.0487 164.693 51.378 163.792 52.002C162.908 52.626 162.284 53.484 161.92 54.576V63H160.152V49.454H161.816V52.704C162.284 51.7507 162.899 50.9793 163.662 50.39C164.442 49.8007 165.265 49.4713 166.132 49.402C166.305 49.3847 166.453 49.376 166.574 49.376C166.695 49.376 166.808 49.3847 166.912 49.402V51.014ZM174.711 63.26C173.411 63.26 172.25 62.9393 171.227 62.298C170.204 61.6567 169.398 60.7987 168.809 59.724C168.22 58.6493 167.925 57.4707 167.925 56.188C167.925 54.9227 168.211 53.7613 168.783 52.704C169.372 51.6467 170.178 50.806 171.201 50.182C172.224 49.5407 173.385 49.22 174.685 49.22C176.02 49.22 177.19 49.5407 178.195 50.182C179.2 50.8233 179.98 51.6727 180.535 52.73C181.107 53.77 181.393 54.914 181.393 56.162C181.393 56.4393 181.384 56.6733 181.367 56.864H169.771C169.858 57.8347 170.135 58.7013 170.603 59.464C171.071 60.2093 171.669 60.8073 172.397 61.258C173.125 61.6913 173.922 61.908 174.789 61.908C175.673 61.908 176.505 61.6827 177.285 61.232C178.065 60.7813 178.62 60.192 178.949 59.464L180.483 59.88C180.206 60.5387 179.772 61.128 179.183 61.648C178.611 62.1507 177.944 62.5493 177.181 62.844C176.418 63.1213 175.595 63.26 174.711 63.26ZM169.719 55.59H179.729C179.66 54.6193 179.391 53.7613 178.923 53.016C178.455 52.2533 177.857 51.664 177.129 51.248C176.401 50.8147 175.595 50.598 174.711 50.598C173.827 50.598 173.021 50.8147 172.293 51.248C171.565 51.664 170.967 52.2533 170.499 53.016C170.048 53.7613 169.788 54.6193 169.719 55.59ZM207.466 63V47.972L200.784 59.646H199.64L192.932 47.972V63H191.112V44.54H192.984L200.186 57.176L207.44 44.54H209.286V63H207.466ZM219.196 63.26C217.896 63.26 216.734 62.9393 215.712 62.298C214.689 61.6567 213.883 60.7987 213.294 59.724C212.704 58.6493 212.41 57.4707 212.41 56.188C212.41 54.9227 212.696 53.7613 213.268 52.704C213.857 51.6467 214.663 50.806 215.686 50.182C216.708 49.5407 217.87 49.22 219.17 49.22C220.504 49.22 221.674 49.5407 222.68 50.182C223.685 50.8233 224.465 51.6727 225.02 52.73C225.592 53.77 225.878 54.914 225.878 56.162C225.878 56.4393 225.869 56.6733 225.852 56.864H214.256C214.342 57.8347 214.62 58.7013 215.088 59.464C215.556 60.2093 216.154 60.8073 216.882 61.258C217.61 61.6913 218.407 61.908 219.274 61.908C220.158 61.908 220.99 61.6827 221.77 61.232C222.55 60.7813 223.104 60.192 223.434 59.464L224.968 59.88C224.69 60.5387 224.257 61.128 223.668 61.648C223.096 62.1507 222.428 62.5493 221.666 62.844C220.903 63.1213 220.08 63.26 219.196 63.26ZM214.204 55.59H224.214C224.144 54.6193 223.876 53.7613 223.408 53.016C222.94 52.2533 222.342 51.664 221.614 51.248C220.886 50.8147 220.08 50.598 219.196 50.598C218.312 50.598 217.506 50.8147 216.778 51.248C216.05 51.664 215.452 52.2533 214.984 53.016C214.533 53.7613 214.273 54.6193 214.204 55.59Z" fill="#F8FBFC"/>
<defs>
<filter id="filter0_d" x="0" y="0" width="360" height="114" filterUnits="userSpaceOnUse" color-interpolation-filters="sRGB">
<feFlood flood-opacity="0" result="BackgroundImageFix"/>
<feColorMatrix in="SourceAlpha" type="matrix" values="0 0 0 0 0 0 0 0 0 0 0 0 0 0 0 0 0 0 127 0"/>
<feOffset dy="5"/>
<feGaussianBlur stdDeviation="10"/>
<feColorMatrix type="matrix" values="0 0 0 0 0.768627 0 0 0 0 0.768627 0 0 0 0 0.768627 0 0 0 1 0"/>
<feBlend mode="normal" in2="BackgroundImageFix" result="effect1_dropShadow"/>
<feBlend mode="normal" in="SourceGraphic" in2="effect1_dropShadow" result="shape"/>
</filter>
</defs>
</svg>
