<svg width="220" height="34" viewBox="0 0 220 34" fill="none" xmlns="http://www.w3.org/2000/svg">
<rect width="220" height="34" rx="15" fill="#F2F2F2"/>
<path d="M23.6208 22.4V11.04H24.4368V22.4H23.6208ZM33.9777 22.4H33.1777V17.76C33.1777 16.6933 33.023 15.9147 32.7137 15.424C32.4044 14.9227 31.9244 14.672 31.2737 14.672C30.8044 14.672 30.3457 14.784 29.8977 15.008C29.4497 15.232 29.055 15.5413 28.7137 15.936C28.3724 16.32 28.127 16.7573 27.9777 17.248V22.4H27.1777V14.08H27.9297V16.064C28.2604 15.4347 28.751 14.9227 29.4017 14.528C30.063 14.1333 30.7617 13.936 31.4977 13.936C32.4044 13.936 33.0444 14.256 33.4177 14.896C33.791 15.536 33.9777 16.4427 33.9777 17.616V22.4ZM36.6863 22.4V14.736H35.5183V14.08H36.6863V13.808C36.6863 12.7947 36.8943 12 37.3103 11.424C37.737 10.848 38.313 10.56 39.0383 10.56C39.3583 10.56 39.6676 10.608 39.9663 10.704C40.265 10.8 40.5103 10.928 40.7023 11.088L40.4143 11.664C40.0943 11.3973 39.6836 11.264 39.1823 11.264C38.6383 11.264 38.217 11.4827 37.9183 11.92C37.6303 12.3467 37.4863 12.9707 37.4863 13.792V14.08H39.8543V14.736H37.4863V22.4H36.6863ZM44.5876 22.56C43.8089 22.56 43.1102 22.3627 42.4916 21.968C41.8836 21.5733 41.4036 21.0507 41.0516 20.4C40.6996 19.7493 40.5236 19.0347 40.5236 18.256C40.5236 17.6693 40.6249 17.12 40.8276 16.608C41.0302 16.0853 41.3182 15.6267 41.6916 15.232C42.0649 14.8267 42.4969 14.512 42.9876 14.288C43.4782 14.0533 44.0116 13.936 44.5876 13.936C45.1636 13.936 45.6969 14.0533 46.1876 14.288C46.6782 14.512 47.1049 14.8267 47.4676 15.232C47.8409 15.6267 48.1289 16.0853 48.3316 16.608C48.5449 17.12 48.6516 17.6693 48.6516 18.256C48.6516 19.0347 48.4702 19.7493 48.1076 20.4C47.7556 21.0507 47.2702 21.5733 46.6516 21.968C46.0436 22.3627 45.3556 22.56 44.5876 22.56ZM41.3236 18.288C41.3236 18.9387 41.4676 19.536 41.7556 20.08C42.0542 20.6133 42.4489 21.04 42.9396 21.36C43.4302 21.68 43.9742 21.84 44.5716 21.84C45.1689 21.84 45.7129 21.68 46.2036 21.36C46.7049 21.0293 47.0996 20.592 47.3876 20.048C47.6862 19.504 47.8356 18.9013 47.8356 18.24C47.8356 17.5893 47.6862 16.992 47.3876 16.448C47.0996 15.904 46.7049 15.472 46.2036 15.152C45.7129 14.8213 45.1742 14.656 44.5876 14.656C43.9902 14.656 43.4462 14.8213 42.9556 15.152C42.4649 15.4827 42.0702 15.9253 41.7716 16.48C41.4729 17.024 41.3236 17.6267 41.3236 18.288ZM54.5043 14.8C53.7576 14.8213 53.1016 15.0453 52.5363 15.472C51.9816 15.888 51.5923 16.464 51.3683 17.2V22.4H50.5683V14.08H51.3363V16.128C51.6243 15.552 52.0083 15.0773 52.4883 14.704C52.9683 14.3307 53.475 14.1173 54.0083 14.064C54.115 14.064 54.2056 14.064 54.2803 14.064C54.3656 14.0533 54.4403 14.048 54.5043 14.048V14.8ZM68.2454 22.4H67.4454V17.76C67.4454 16.7147 67.2801 15.9413 66.9494 15.44C66.6294 14.928 66.1334 14.672 65.4614 14.672C64.7681 14.672 64.1601 14.9173 63.6374 15.408C63.1148 15.888 62.7468 16.5067 62.5334 17.264V22.4H61.7334V17.76C61.7334 16.6933 61.5734 15.9147 61.2534 15.424C60.9334 14.9227 60.4374 14.672 59.7654 14.672C59.0828 14.672 58.4748 14.912 57.9414 15.392C57.4188 15.8613 57.0454 16.48 56.8214 17.248V22.4H56.0214V14.08H56.7734V16.064C57.1148 15.392 57.5628 14.8693 58.1174 14.496C58.6828 14.1227 59.2961 13.936 59.9574 13.936C60.6614 13.936 61.2321 14.144 61.6694 14.56C62.1068 14.976 62.3681 15.52 62.4534 16.192C63.2428 14.688 64.3308 13.936 65.7174 13.936C66.6241 13.936 67.2694 14.2613 67.6534 14.912C68.0481 15.552 68.2454 16.4533 68.2454 17.616V22.4ZM69.9741 20C69.9741 19.5093 70.1181 19.0773 70.4061 18.704C70.7047 18.3307 71.1154 18.0427 71.6381 17.84C72.1714 17.6267 72.7794 17.52 73.4621 17.52C73.8887 17.52 74.3314 17.5573 74.7901 17.632C75.2594 17.7067 75.6701 17.808 76.0221 17.936V17.152C76.0221 16.384 75.7981 15.7707 75.3501 15.312C74.9021 14.8533 74.2941 14.624 73.5261 14.624C73.1101 14.624 72.6781 14.7093 72.2301 14.88C71.7821 15.0507 71.3234 15.296 70.8541 15.616L70.5181 15.04C71.6061 14.304 72.6354 13.936 73.6061 13.936C74.5874 13.936 75.3661 14.2293 75.9421 14.816C76.5287 15.4027 76.8221 16.2027 76.8221 17.216V21.344C76.8221 21.6 76.9394 21.7333 77.1741 21.744V22.4C76.9714 22.4213 76.8381 22.4267 76.7741 22.416C76.5714 22.3947 76.4114 22.3093 76.2941 22.16C76.1874 22.0107 76.1287 21.856 76.1181 21.696V21.04C75.7341 21.52 75.2381 21.8933 74.6301 22.16C74.0327 22.4267 73.4034 22.56 72.7421 22.56C72.2194 22.56 71.7447 22.448 71.3181 22.224C70.9021 21.9893 70.5714 21.68 70.3261 21.296C70.0914 20.912 69.9741 20.48 69.9741 20ZM75.7021 20.688C75.9154 20.4213 76.0221 20.1707 76.0221 19.936V18.56C75.2541 18.2613 74.4274 18.112 73.5421 18.112C72.6994 18.112 72.0221 18.2827 71.5101 18.624C70.9981 18.9547 70.7421 19.3973 70.7421 19.952C70.7421 20.304 70.8327 20.6293 71.0141 20.928C71.1954 21.2267 71.4461 21.4667 71.7661 21.648C72.0967 21.8293 72.4754 21.92 72.9021 21.92C73.4994 21.92 74.0487 21.808 74.5501 21.584C75.0514 21.3493 75.4354 21.0507 75.7021 20.688ZM82.9053 22C82.8306 22.0427 82.6333 22.1387 82.3133 22.288C81.9933 22.4267 81.6093 22.496 81.1613 22.496C80.724 22.496 80.34 22.368 80.0093 22.112C79.6893 21.856 79.5293 21.488 79.5293 21.008V14.736H78.3613V14.08H79.5293V11.232H80.3293V14.08H82.2653V14.736H80.3293V20.816C80.3506 21.1253 80.4626 21.36 80.6653 21.52C80.868 21.6693 81.1026 21.744 81.3693 21.744C81.7 21.744 81.988 21.6907 82.2333 21.584C82.4786 21.4667 82.6226 21.392 82.6653 21.36L82.9053 22ZM84.3183 12.192V10.72H85.1183V12.192H84.3183ZM84.3183 22.4V14.08H85.1183V22.4H84.3183ZM91.1188 22.56C90.3401 22.56 89.6415 22.3627 89.0228 21.968C88.4148 21.5733 87.9348 21.0507 87.5828 20.4C87.2308 19.7493 87.0548 19.0347 87.0548 18.256C87.0548 17.6693 87.1561 17.12 87.3588 16.608C87.5615 16.0853 87.8495 15.6267 88.2228 15.232C88.5961 14.8267 89.0281 14.512 89.5188 14.288C90.0095 14.0533 90.5428 13.936 91.1188 13.936C91.6948 13.936 92.2281 14.0533 92.7188 14.288C93.2095 14.512 93.6361 14.8267 93.9988 15.232C94.3721 15.6267 94.6601 16.0853 94.8628 16.608C95.0761 17.12 95.1828 17.6693 95.1828 18.256C95.1828 19.0347 95.0015 19.7493 94.6388 20.4C94.2868 21.0507 93.8015 21.5733 93.1828 21.968C92.5748 22.3627 91.8868 22.56 91.1188 22.56ZM87.8548 18.288C87.8548 18.9387 87.9988 19.536 88.2868 20.08C88.5855 20.6133 88.9801 21.04 89.4708 21.36C89.9615 21.68 90.5055 21.84 91.1028 21.84C91.7001 21.84 92.2441 21.68 92.7348 21.36C93.2361 21.0293 93.6308 20.592 93.9188 20.048C94.2175 19.504 94.3668 18.9013 94.3668 18.24C94.3668 17.5893 94.2175 16.992 93.9188 16.448C93.6308 15.904 93.2361 15.472 92.7348 15.152C92.2441 14.8213 91.7055 14.656 91.1188 14.656C90.5215 14.656 89.9775 14.8213 89.4868 15.152C88.9961 15.4827 88.6015 15.9253 88.3028 16.48C88.0041 17.024 87.8548 17.6267 87.8548 18.288ZM103.9 22.4H103.1V17.76C103.1 16.6933 102.945 15.9147 102.636 15.424C102.326 14.9227 101.846 14.672 101.196 14.672C100.726 14.672 100.268 14.784 99.8196 15.008C99.3716 15.232 98.9769 15.5413 98.6356 15.936C98.2942 16.32 98.0489 16.7573 97.8996 17.248V22.4H97.0996V14.08H97.8516V16.064C98.1822 15.4347 98.6729 14.9227 99.3236 14.528C99.9849 14.1333 100.684 13.936 101.42 13.936C102.326 13.936 102.966 14.256 103.34 14.896C103.713 15.536 103.9 16.4427 103.9 17.616V22.4ZM113.736 11.04H114.44L119.24 22.4H118.376L116.792 18.656H111.368L109.784 22.4H108.904L113.736 11.04ZM116.568 17.984L114.088 12.032L111.56 17.984H116.568ZM124.661 14.8C123.914 14.8213 123.258 15.0453 122.693 15.472C122.138 15.888 121.749 16.464 121.525 17.2V22.4H120.725V14.08H121.493V16.128C121.781 15.552 122.165 15.0773 122.645 14.704C123.125 14.3307 123.631 14.1173 124.165 14.064C124.271 14.064 124.362 14.064 124.437 14.064C124.522 14.0533 124.597 14.048 124.661 14.048V14.8ZM129.401 22.56C128.623 22.56 127.924 22.3627 127.305 21.968C126.687 21.5733 126.196 21.0453 125.833 20.384C125.471 19.7227 125.289 18.9973 125.289 18.208C125.289 17.4187 125.465 16.704 125.817 16.064C126.169 15.4133 126.655 14.896 127.273 14.512C127.892 14.128 128.596 13.936 129.385 13.936C130.143 13.936 130.809 14.112 131.385 14.464C131.961 14.8053 132.393 15.2747 132.681 15.872L131.897 16.128C131.652 15.6693 131.3 15.312 130.841 15.056C130.393 14.7893 129.897 14.656 129.353 14.656C128.745 14.656 128.196 14.816 127.705 15.136C127.215 15.4453 126.82 15.8667 126.521 16.4C126.233 16.9333 126.089 17.536 126.089 18.208C126.089 18.88 126.239 19.4933 126.537 20.048C126.836 20.592 127.231 21.0293 127.721 21.36C128.223 21.68 128.772 21.84 129.369 21.84C129.753 21.84 130.127 21.7707 130.489 21.632C130.863 21.4827 131.183 21.2907 131.449 21.056C131.727 20.8213 131.908 20.5707 131.993 20.304L132.777 20.528C132.639 20.9227 132.399 21.2747 132.057 21.584C131.727 21.8827 131.332 22.1227 130.873 22.304C130.415 22.4747 129.924 22.56 129.401 22.56ZM141.384 22.4H140.584V17.76C140.584 15.7013 139.896 14.672 138.52 14.672C138.072 14.672 137.635 14.784 137.208 15.008C136.781 15.232 136.403 15.5413 136.072 15.936C135.752 16.32 135.523 16.7573 135.384 17.248V22.4H134.584V10.72H135.384V16.064C135.725 15.4133 136.2 14.896 136.808 14.512C137.416 14.128 138.061 13.936 138.744 13.936C139.672 13.936 140.344 14.2667 140.76 14.928C141.176 15.5787 141.384 16.4747 141.384 17.616V22.4ZM143.803 12.192V10.72H144.603V12.192H143.803ZM143.803 22.4V14.08H144.603V22.4H143.803ZM150.827 22C150.753 22.0427 150.555 22.1387 150.235 22.288C149.915 22.4267 149.531 22.496 149.083 22.496C148.646 22.496 148.262 22.368 147.931 22.112C147.611 21.856 147.451 21.488 147.451 21.008V14.736H146.283V14.08H147.451V11.232H148.251V14.08H150.187V14.736H148.251V20.816C148.273 21.1253 148.385 21.36 148.587 21.52C148.79 21.6693 149.025 21.744 149.291 21.744C149.622 21.744 149.91 21.6907 150.155 21.584C150.401 21.4667 150.545 21.392 150.587 21.36L150.827 22ZM155.62 22.56C154.841 22.56 154.137 22.3627 153.508 21.968C152.889 21.5733 152.399 21.0453 152.036 20.384C151.684 19.7227 151.508 18.9973 151.508 18.208C151.508 17.4293 151.684 16.72 152.036 16.08C152.388 15.4293 152.873 14.912 153.492 14.528C154.111 14.1333 154.804 13.936 155.572 13.936C156.361 13.936 157.06 14.1333 157.668 14.528C158.287 14.912 158.772 15.4293 159.124 16.08C159.476 16.7307 159.652 17.44 159.652 18.208C159.652 18.336 159.647 18.4533 159.636 18.56H152.34C152.383 19.2 152.559 19.776 152.868 20.288C153.177 20.7893 153.572 21.1893 154.052 21.488C154.543 21.776 155.076 21.92 155.652 21.92C156.228 21.92 156.772 21.7707 157.284 21.472C157.796 21.1733 158.153 20.7893 158.356 20.32L159.06 20.512C158.9 20.9067 158.644 21.2587 158.292 21.568C157.951 21.8773 157.545 22.1227 157.076 22.304C156.617 22.4747 156.132 22.56 155.62 22.56ZM152.308 17.936H158.884C158.841 17.2853 158.665 16.7093 158.356 16.208C158.057 15.696 157.668 15.3013 157.188 15.024C156.708 14.736 156.175 14.592 155.588 14.592C155.001 14.592 154.468 14.736 153.988 15.024C153.508 15.312 153.119 15.712 152.82 16.224C152.521 16.7253 152.351 17.296 152.308 17.936ZM164.948 22.56C164.169 22.56 163.471 22.3627 162.852 21.968C162.233 21.5733 161.743 21.0453 161.38 20.384C161.017 19.7227 160.836 18.9973 160.836 18.208C160.836 17.4187 161.012 16.704 161.364 16.064C161.716 15.4133 162.201 14.896 162.82 14.512C163.439 14.128 164.143 13.936 164.932 13.936C165.689 13.936 166.356 14.112 166.932 14.464C167.508 14.8053 167.94 15.2747 168.228 15.872L167.444 16.128C167.199 15.6693 166.847 15.312 166.388 15.056C165.94 14.7893 165.444 14.656 164.9 14.656C164.292 14.656 163.743 14.816 163.252 15.136C162.761 15.4453 162.367 15.8667 162.068 16.4C161.78 16.9333 161.636 17.536 161.636 18.208C161.636 18.88 161.785 19.4933 162.084 20.048C162.383 20.592 162.777 21.0293 163.268 21.36C163.769 21.68 164.319 21.84 164.916 21.84C165.3 21.84 165.673 21.7707 166.036 21.632C166.409 21.4827 166.729 21.2907 166.996 21.056C167.273 20.8213 167.455 20.5707 167.54 20.304L168.324 20.528C168.185 20.9227 167.945 21.2747 167.604 21.584C167.273 21.8827 166.879 22.1227 166.42 22.304C165.961 22.4747 165.471 22.56 164.948 22.56ZM173.843 22C173.768 22.0427 173.571 22.1387 173.251 22.288C172.931 22.4267 172.547 22.496 172.099 22.496C171.661 22.496 171.277 22.368 170.947 22.112C170.627 21.856 170.467 21.488 170.467 21.008V14.736H169.299V14.08H170.467V11.232H171.267V14.08H173.203V14.736H171.267V20.816C171.288 21.1253 171.4 21.36 171.603 21.52C171.805 21.6693 172.04 21.744 172.307 21.744C172.637 21.744 172.925 21.6907 173.171 21.584C173.416 21.4667 173.56 21.392 173.603 21.36L173.843 22ZM175.176 18.88V14.08H175.976V18.768C175.976 20.816 176.674 21.84 178.072 21.84C178.541 21.84 178.989 21.7387 179.416 21.536C179.853 21.3227 180.232 21.0293 180.552 20.656C180.882 20.272 181.133 19.8293 181.304 19.328V14.08H182.104V21.344C182.104 21.6 182.216 21.7333 182.44 21.744V22.4C182.258 22.4213 182.125 22.4213 182.04 22.4C181.858 22.3787 181.709 22.304 181.592 22.176C181.474 22.0373 181.41 21.872 181.4 21.68L181.384 20.432C181.021 21.0933 180.52 21.616 179.88 22C179.25 22.3733 178.568 22.56 177.832 22.56C176.061 22.56 175.176 21.3333 175.176 18.88ZM188.582 14.8C187.836 14.8213 187.18 15.0453 186.614 15.472C186.06 15.888 185.67 16.464 185.446 17.2V22.4H184.646V14.08H185.414V16.128C185.702 15.552 186.086 15.0773 186.566 14.704C187.046 14.3307 187.553 14.1173 188.086 14.064C188.193 14.064 188.284 14.064 188.358 14.064C188.444 14.0533 188.518 14.048 188.582 14.048V14.8ZM193.323 22.56C192.544 22.56 191.84 22.3627 191.211 21.968C190.592 21.5733 190.102 21.0453 189.739 20.384C189.387 19.7227 189.211 18.9973 189.211 18.208C189.211 17.4293 189.387 16.72 189.739 16.08C190.091 15.4293 190.576 14.912 191.195 14.528C191.814 14.1333 192.507 13.936 193.275 13.936C194.064 13.936 194.763 14.1333 195.371 14.528C195.99 14.912 196.475 15.4293 196.827 16.08C197.179 16.7307 197.355 17.44 197.355 18.208C197.355 18.336 197.35 18.4533 197.339 18.56H190.043C190.086 19.2 190.262 19.776 190.571 20.288C190.88 20.7893 191.275 21.1893 191.755 21.488C192.246 21.776 192.779 21.92 193.355 21.92C193.931 21.92 194.475 21.7707 194.987 21.472C195.499 21.1733 195.856 20.7893 196.059 20.32L196.763 20.512C196.603 20.9067 196.347 21.2587 195.995 21.568C195.654 21.8773 195.248 22.1227 194.779 22.304C194.32 22.4747 193.835 22.56 193.323 22.56ZM190.011 17.936H196.587C196.544 17.2853 196.368 16.7093 196.059 16.208C195.76 15.696 195.371 15.3013 194.891 15.024C194.411 14.736 193.878 14.592 193.291 14.592C192.704 14.592 192.171 14.736 191.691 15.024C191.211 15.312 190.822 15.712 190.523 16.224C190.224 16.7253 190.054 17.296 190.011 17.936Z" fill="#061839"/>
</svg>
