<svg width="127" height="34" viewBox="0 0 127 34" fill="none" xmlns="http://www.w3.org/2000/svg">
<rect width="127" height="34" rx="15" fill="#F2F2F2"/>
<path d="M31.4021 22.4V11.04H36.0741C36.7141 11.04 37.2794 11.216 37.7701 11.568C38.2714 11.9093 38.6661 12.352 38.9541 12.896C39.2421 13.4293 39.3861 13.984 39.3861 14.56C39.3861 15.168 39.2474 15.744 38.9701 16.288C38.7034 16.8213 38.3301 17.2587 37.8501 17.6C37.3701 17.9413 36.8101 18.112 36.1701 18.112H32.2181V22.4H31.4021ZM32.2181 17.36H36.1381C36.6394 17.36 37.0661 17.2267 37.4181 16.96C37.7807 16.6933 38.0581 16.3467 38.2501 15.92C38.4527 15.4933 38.5541 15.04 38.5541 14.56C38.5541 14.0693 38.4367 13.6107 38.2021 13.184C37.9781 12.7573 37.6741 12.416 37.2901 12.16C36.9167 11.904 36.5007 11.776 36.0421 11.776H32.2181V17.36ZM44.4949 22.56C43.7163 22.56 43.0123 22.3627 42.3829 21.968C41.7643 21.5733 41.2736 21.0453 40.9109 20.384C40.5589 19.7227 40.3829 18.9973 40.3829 18.208C40.3829 17.4293 40.5589 16.72 40.9109 16.08C41.2629 15.4293 41.7483 14.912 42.3669 14.528C42.9856 14.1333 43.6789 13.936 44.4469 13.936C45.2363 13.936 45.9349 14.1333 46.5429 14.528C47.1616 14.912 47.6469 15.4293 47.9989 16.08C48.3509 16.7307 48.5269 17.44 48.5269 18.208C48.5269 18.336 48.5216 18.4533 48.5109 18.56H41.2149C41.2576 19.2 41.4336 19.776 41.7429 20.288C42.0523 20.7893 42.4469 21.1893 42.9269 21.488C43.4176 21.776 43.9509 21.92 44.5269 21.92C45.1029 21.92 45.6469 21.7707 46.1589 21.472C46.6709 21.1733 47.0283 20.7893 47.2309 20.32L47.9349 20.512C47.7749 20.9067 47.5189 21.2587 47.1669 21.568C46.8256 21.8773 46.4203 22.1227 45.9509 22.304C45.4923 22.4747 45.0069 22.56 44.4949 22.56ZM41.1829 17.936H47.7589C47.7163 17.2853 47.5403 16.7093 47.2309 16.208C46.9323 15.696 46.5429 15.3013 46.0629 15.024C45.5829 14.736 45.0496 14.592 44.4629 14.592C43.8763 14.592 43.3429 14.736 42.8629 15.024C42.3829 15.312 41.9936 15.712 41.6949 16.224C41.3963 16.7253 41.2256 17.296 41.1829 17.936ZM54.2231 14.8C53.4764 14.8213 52.8204 15.0453 52.2551 15.472C51.7004 15.888 51.3111 16.464 51.0871 17.2V22.4H50.2871V14.08H51.0551V16.128C51.3431 15.552 51.7271 15.0773 52.2071 14.704C52.6871 14.3307 53.1937 14.1173 53.7271 14.064C53.8337 14.064 53.9244 14.064 53.9991 14.064C54.0844 14.0533 54.1591 14.048 54.2231 14.048V14.8ZM58.3642 22.56C57.7028 22.56 57.0895 22.448 56.5242 22.224C55.9588 22 55.4628 21.6587 55.0362 21.2L55.4042 20.64C55.8522 21.0773 56.3108 21.3973 56.7802 21.6C57.2602 21.792 57.7775 21.888 58.3322 21.888C59.0362 21.888 59.6122 21.7387 60.0602 21.44C60.5082 21.1413 60.7322 20.7253 60.7322 20.192C60.7322 19.8293 60.6255 19.552 60.4122 19.36C60.2095 19.168 59.9108 19.008 59.5162 18.88C59.1322 18.752 58.6628 18.6187 58.1082 18.48C57.5428 18.3307 57.0682 18.176 56.6842 18.016C56.3002 17.856 56.0068 17.648 55.8042 17.392C55.6122 17.136 55.5162 16.7893 55.5162 16.352C55.5162 15.808 55.6495 15.36 55.9162 15.008C56.1935 14.6453 56.5615 14.3787 57.0202 14.208C57.4895 14.0267 58.0068 13.936 58.5722 13.936C59.2228 13.936 59.7882 14.0427 60.2682 14.256C60.7588 14.4693 61.1322 14.752 61.3882 15.104L60.9562 15.616C60.7002 15.2853 60.3535 15.0347 59.9162 14.864C59.4788 14.6933 59.0095 14.608 58.5082 14.608C58.1135 14.608 57.7455 14.6613 57.4042 14.768C57.0735 14.8747 56.8015 15.0507 56.5882 15.296C56.3855 15.5307 56.2842 15.8507 56.2842 16.256C56.2842 16.576 56.3588 16.8267 56.5082 17.008C56.6575 17.1893 56.8868 17.3387 57.1962 17.456C57.5055 17.5627 57.8948 17.68 58.3642 17.808C59.0148 17.968 59.5748 18.1333 60.0442 18.304C60.5135 18.4747 60.8762 18.6987 61.1322 18.976C61.3882 19.2427 61.5162 19.6213 61.5162 20.112C61.5162 20.8693 61.2282 21.4667 60.6522 21.904C60.0762 22.3413 59.3135 22.56 58.3642 22.56ZM66.8844 22.56C66.1058 22.56 65.4071 22.3627 64.7884 21.968C64.1804 21.5733 63.7004 21.0507 63.3484 20.4C62.9964 19.7493 62.8204 19.0347 62.8204 18.256C62.8204 17.6693 62.9218 17.12 63.1244 16.608C63.3271 16.0853 63.6151 15.6267 63.9884 15.232C64.3618 14.8267 64.7938 14.512 65.2844 14.288C65.7751 14.0533 66.3084 13.936 66.8844 13.936C67.4604 13.936 67.9938 14.0533 68.4844 14.288C68.9751 14.512 69.4018 14.8267 69.7644 15.232C70.1378 15.6267 70.4258 16.0853 70.6284 16.608C70.8418 17.12 70.9484 17.6693 70.9484 18.256C70.9484 19.0347 70.7671 19.7493 70.4044 20.4C70.0524 21.0507 69.5671 21.5733 68.9484 21.968C68.3404 22.3627 67.6524 22.56 66.8844 22.56ZM63.6204 18.288C63.6204 18.9387 63.7644 19.536 64.0524 20.08C64.3511 20.6133 64.7458 21.04 65.2364 21.36C65.7271 21.68 66.2711 21.84 66.8684 21.84C67.4658 21.84 68.0098 21.68 68.5004 21.36C69.0018 21.0293 69.3964 20.592 69.6844 20.048C69.9831 19.504 70.1324 18.9013 70.1324 18.24C70.1324 17.5893 69.9831 16.992 69.6844 16.448C69.3964 15.904 69.0018 15.472 68.5004 15.152C68.0098 14.8213 67.4711 14.656 66.8844 14.656C66.2871 14.656 65.7431 14.8213 65.2524 15.152C64.7618 15.4827 64.3671 15.9253 64.0684 16.48C63.7698 17.024 63.6204 17.6267 63.6204 18.288ZM79.6652 22.4H78.8652V17.76C78.8652 16.6933 78.7105 15.9147 78.4012 15.424C78.0918 14.9227 77.6118 14.672 76.9612 14.672C76.4918 14.672 76.0332 14.784 75.5852 15.008C75.1372 15.232 74.7425 15.5413 74.4012 15.936C74.0598 16.32 73.8145 16.7573 73.6652 17.248V22.4H72.8652V14.08H73.6172V16.064C73.9478 15.4347 74.4385 14.9227 75.0892 14.528C75.7505 14.1333 76.4492 13.936 77.1852 13.936C78.0918 13.936 78.7318 14.256 79.1052 14.896C79.4785 15.536 79.6652 16.4427 79.6652 17.616V22.4ZM81.3959 20C81.3959 19.5093 81.5399 19.0773 81.8279 18.704C82.1266 18.3307 82.5373 18.0427 83.0599 17.84C83.5933 17.6267 84.2013 17.52 84.8839 17.52C85.3106 17.52 85.7533 17.5573 86.2119 17.632C86.6813 17.7067 87.0919 17.808 87.4439 17.936V17.152C87.4439 16.384 87.2199 15.7707 86.7719 15.312C86.3239 14.8533 85.7159 14.624 84.9479 14.624C84.5319 14.624 84.0999 14.7093 83.6519 14.88C83.2039 15.0507 82.7453 15.296 82.2759 15.616L81.9399 15.04C83.0279 14.304 84.0573 13.936 85.0279 13.936C86.0093 13.936 86.7879 14.2293 87.3639 14.816C87.9506 15.4027 88.2439 16.2027 88.2439 17.216V21.344C88.2439 21.6 88.3613 21.7333 88.5959 21.744V22.4C88.3933 22.4213 88.2599 22.4267 88.1959 22.416C87.9933 22.3947 87.8333 22.3093 87.7159 22.16C87.6093 22.0107 87.5506 21.856 87.5399 21.696V21.04C87.1559 21.52 86.6599 21.8933 86.0519 22.16C85.4546 22.4267 84.8253 22.56 84.1639 22.56C83.6413 22.56 83.1666 22.448 82.7399 22.224C82.3239 21.9893 81.9933 21.68 81.7479 21.296C81.5133 20.912 81.3959 20.48 81.3959 20ZM87.1239 20.688C87.3373 20.4213 87.4439 20.1707 87.4439 19.936V18.56C86.6759 18.2613 85.8493 18.112 84.9639 18.112C84.1213 18.112 83.4439 18.2827 82.9319 18.624C82.4199 18.9547 82.1639 19.3973 82.1639 19.952C82.1639 20.304 82.2546 20.6293 82.4359 20.928C82.6173 21.2267 82.8679 21.4667 83.1879 21.648C83.5186 21.8293 83.8973 21.92 84.3239 21.92C84.9213 21.92 85.4706 21.808 85.9719 21.584C86.4733 21.3493 86.8573 21.0507 87.1239 20.688ZM93.3017 22.56C92.6403 22.56 92.027 22.448 91.4617 22.224C90.8963 22 90.4003 21.6587 89.9737 21.2L90.3417 20.64C90.7897 21.0773 91.2483 21.3973 91.7177 21.6C92.1977 21.792 92.715 21.888 93.2697 21.888C93.9737 21.888 94.5497 21.7387 94.9977 21.44C95.4457 21.1413 95.6697 20.7253 95.6697 20.192C95.6697 19.8293 95.563 19.552 95.3497 19.36C95.147 19.168 94.8483 19.008 94.4537 18.88C94.0697 18.752 93.6003 18.6187 93.0457 18.48C92.4803 18.3307 92.0057 18.176 91.6217 18.016C91.2377 17.856 90.9443 17.648 90.7417 17.392C90.5497 17.136 90.4537 16.7893 90.4537 16.352C90.4537 15.808 90.587 15.36 90.8537 15.008C91.131 14.6453 91.499 14.3787 91.9577 14.208C92.427 14.0267 92.9443 13.936 93.5097 13.936C94.1603 13.936 94.7257 14.0427 95.2057 14.256C95.6963 14.4693 96.0697 14.752 96.3257 15.104L95.8937 15.616C95.6377 15.2853 95.291 15.0347 94.8537 14.864C94.4163 14.6933 93.947 14.608 93.4457 14.608C93.051 14.608 92.683 14.6613 92.3417 14.768C92.011 14.8747 91.739 15.0507 91.5257 15.296C91.323 15.5307 91.2217 15.8507 91.2217 16.256C91.2217 16.576 91.2963 16.8267 91.4457 17.008C91.595 17.1893 91.8243 17.3387 92.1337 17.456C92.443 17.5627 92.8323 17.68 93.3017 17.808C93.9523 17.968 94.5123 18.1333 94.9817 18.304C95.451 18.4747 95.8137 18.6987 96.0697 18.976C96.3257 19.2427 96.4537 19.6213 96.4537 20.112C96.4537 20.8693 96.1657 21.4667 95.5897 21.904C95.0137 22.3413 94.251 22.56 93.3017 22.56Z" fill="#061839"/>
</svg>
