<svg width="127" height="34" viewBox="0 0 127 34" fill="none" xmlns="http://www.w3.org/2000/svg">
<rect width="127" height="34" rx="15" fill="#F2F2F2"/>
<path d="M22.6599 22.4V11.04H27.3319C27.9719 11.04 28.5372 11.216 29.0279 11.568C29.5292 11.9093 29.9239 12.352 30.2119 12.896C30.4999 13.4293 30.6439 13.984 30.6439 14.56C30.6439 15.168 30.5052 15.744 30.2279 16.288C29.9612 16.8213 29.5879 17.2587 29.1079 17.6C28.6279 17.9413 28.0679 18.112 27.4279 18.112H23.4759V22.4H22.6599ZM23.4759 17.36H27.3959C27.8972 17.36 28.3239 17.2267 28.6759 16.96C29.0385 16.6933 29.3159 16.3467 29.5079 15.92C29.7105 15.4933 29.8119 15.04 29.8119 14.56C29.8119 14.0693 29.6945 13.6107 29.4599 13.184C29.2359 12.7573 28.9319 12.416 28.5479 12.16C28.1745 11.904 27.7585 11.776 27.2999 11.776H23.4759V17.36ZM36.2934 14.8C35.5467 14.8213 34.8907 15.0453 34.3254 15.472C33.7707 15.888 33.3814 16.464 33.1574 17.2V22.4H32.3574V14.08H33.1254V16.128C33.4134 15.552 33.7974 15.0773 34.2774 14.704C34.7574 14.3307 35.264 14.1173 35.7974 14.064C35.904 14.064 35.9947 14.064 36.0694 14.064C36.1547 14.0533 36.2294 14.048 36.2934 14.048V14.8ZM40.986 22.56C40.2073 22.56 39.5087 22.3627 38.89 21.968C38.282 21.5733 37.802 21.0507 37.45 20.4C37.098 19.7493 36.922 19.0347 36.922 18.256C36.922 17.6693 37.0233 17.12 37.226 16.608C37.4287 16.0853 37.7167 15.6267 38.09 15.232C38.4633 14.8267 38.8953 14.512 39.386 14.288C39.8767 14.0533 40.41 13.936 40.986 13.936C41.562 13.936 42.0953 14.0533 42.586 14.288C43.0767 14.512 43.5033 14.8267 43.866 15.232C44.2393 15.6267 44.5273 16.0853 44.73 16.608C44.9433 17.12 45.05 17.6693 45.05 18.256C45.05 19.0347 44.8687 19.7493 44.506 20.4C44.154 21.0507 43.6687 21.5733 43.05 21.968C42.442 22.3627 41.754 22.56 40.986 22.56ZM37.722 18.288C37.722 18.9387 37.866 19.536 38.154 20.08C38.4527 20.6133 38.8473 21.04 39.338 21.36C39.8287 21.68 40.3727 21.84 40.97 21.84C41.5673 21.84 42.1113 21.68 42.602 21.36C43.1033 21.0293 43.498 20.592 43.786 20.048C44.0847 19.504 44.234 18.9013 44.234 18.24C44.234 17.5893 44.0847 16.992 43.786 16.448C43.498 15.904 43.1033 15.472 42.602 15.152C42.1113 14.8213 41.5727 14.656 40.986 14.656C40.3887 14.656 39.8447 14.8213 39.354 15.152C38.8633 15.4827 38.4687 15.9253 38.17 16.48C37.8713 17.024 37.722 17.6267 37.722 18.288ZM50.5694 22C50.4947 22.0427 50.2974 22.1387 49.9774 22.288C49.6574 22.4267 49.2734 22.496 48.8254 22.496C48.388 22.496 48.004 22.368 47.6734 22.112C47.3534 21.856 47.1934 21.488 47.1934 21.008V14.736H46.0254V14.08H47.1934V11.232H47.9934V14.08H49.9294V14.736H47.9934V20.816C48.0147 21.1253 48.1267 21.36 48.3294 21.52C48.532 21.6693 48.7667 21.744 49.0334 21.744C49.364 21.744 49.652 21.6907 49.8974 21.584C50.1427 21.4667 50.2867 21.392 50.3294 21.36L50.5694 22ZM55.3141 22.56C54.5355 22.56 53.8368 22.3627 53.2181 21.968C52.6101 21.5733 52.1301 21.0507 51.7781 20.4C51.4261 19.7493 51.2501 19.0347 51.2501 18.256C51.2501 17.6693 51.3515 17.12 51.5541 16.608C51.7568 16.0853 52.0448 15.6267 52.4181 15.232C52.7915 14.8267 53.2235 14.512 53.7141 14.288C54.2048 14.0533 54.7381 13.936 55.3141 13.936C55.8901 13.936 56.4235 14.0533 56.9141 14.288C57.4048 14.512 57.8315 14.8267 58.1941 15.232C58.5675 15.6267 58.8555 16.0853 59.0581 16.608C59.2715 17.12 59.3781 17.6693 59.3781 18.256C59.3781 19.0347 59.1968 19.7493 58.8341 20.4C58.4821 21.0507 57.9968 21.5733 57.3781 21.968C56.7701 22.3627 56.0821 22.56 55.3141 22.56ZM52.0501 18.288C52.0501 18.9387 52.1941 19.536 52.4821 20.08C52.7808 20.6133 53.1755 21.04 53.6661 21.36C54.1568 21.68 54.7008 21.84 55.2981 21.84C55.8955 21.84 56.4395 21.68 56.9301 21.36C57.4315 21.0293 57.8261 20.592 58.1141 20.048C58.4128 19.504 58.5621 18.9013 58.5621 18.24C58.5621 17.5893 58.4128 16.992 58.1141 16.448C57.8261 15.904 57.4315 15.472 56.9301 15.152C56.4395 14.8213 55.9008 14.656 55.3141 14.656C54.7168 14.656 54.1728 14.8213 53.6821 15.152C53.1915 15.4827 52.7968 15.9253 52.4981 16.48C52.1995 17.024 52.0501 17.6267 52.0501 18.288ZM64.8975 22C64.8228 22.0427 64.6255 22.1387 64.3055 22.288C63.9855 22.4267 63.6015 22.496 63.1535 22.496C62.7162 22.496 62.3322 22.368 62.0015 22.112C61.6815 21.856 61.5215 21.488 61.5215 21.008V14.736H60.3535V14.08H61.5215V11.232H62.3215V14.08H64.2575V14.736H62.3215V20.816C62.3428 21.1253 62.4548 21.36 62.6575 21.52C62.8602 21.6693 63.0948 21.744 63.3615 21.744C63.6922 21.744 63.9802 21.6907 64.2255 21.584C64.4708 21.4667 64.6148 21.392 64.6575 21.36L64.8975 22ZM66.8705 25.216C67.0412 25.2267 67.1905 25.2267 67.3185 25.216C67.4572 25.216 67.5585 25.1947 67.6225 25.152C67.7185 25.1307 67.8145 25.0453 67.9105 24.896C68.0065 24.7573 68.1398 24.496 68.3105 24.112C68.4918 23.728 68.7372 23.1573 69.0465 22.4L65.3345 14.08H66.1825L69.4785 21.552L72.5345 14.08H73.3505L68.7905 25.024C68.6945 25.2693 68.5452 25.4773 68.3425 25.648C68.1398 25.8187 67.8732 25.9147 67.5425 25.936C67.4465 25.9467 67.3398 25.952 67.2225 25.952C67.1158 25.9627 66.9985 25.9627 66.8705 25.952V25.216ZM79.0151 22.56C78.3005 22.56 77.6605 22.3733 77.0951 22C76.5405 21.616 76.0925 21.152 75.7511 20.608V25.808H74.9511V14.08H75.6871V15.744C76.0285 15.2107 76.4818 14.7787 77.0471 14.448C77.6125 14.1067 78.2098 13.936 78.8391 13.936C79.4151 13.936 79.9431 14.0587 80.4231 14.304C80.9138 14.5387 81.3351 14.864 81.6871 15.28C82.0498 15.6853 82.3271 16.144 82.5191 16.656C82.7218 17.168 82.8231 17.7013 82.8231 18.256C82.8231 19.024 82.6631 19.7387 82.3431 20.4C82.0231 21.0507 81.5751 21.5733 80.9991 21.968C80.4338 22.3627 79.7725 22.56 79.0151 22.56ZM78.8231 21.84C79.4631 21.84 80.0231 21.6693 80.5031 21.328C80.9831 20.976 81.3511 20.528 81.6071 19.984C81.8738 19.4293 82.0071 18.8533 82.0071 18.256C82.0071 17.616 81.8578 17.024 81.5591 16.48C81.2711 15.936 80.8711 15.4987 80.3591 15.168C79.8578 14.8267 79.2978 14.656 78.6791 14.656C78.3911 14.656 78.0818 14.72 77.7511 14.848C77.4311 14.9653 77.1218 15.1307 76.8231 15.344C76.5351 15.5467 76.2898 15.7813 76.0871 16.048C75.8951 16.3147 75.7831 16.5973 75.7511 16.896V19.632C75.9325 20.0373 76.1778 20.4107 76.4871 20.752C76.8071 21.0827 77.1645 21.3493 77.5591 21.552C77.9645 21.744 78.3858 21.84 78.8231 21.84ZM84.748 12.192V10.72H85.548V12.192H84.748ZM84.748 22.4V14.08H85.548V22.4H84.748ZM94.8605 22.4H94.0605V17.76C94.0605 16.6933 93.9058 15.9147 93.5965 15.424C93.2872 14.9227 92.8072 14.672 92.1565 14.672C91.6872 14.672 91.2285 14.784 90.7805 15.008C90.3325 15.232 89.9378 15.5413 89.5965 15.936C89.2552 16.32 89.0098 16.7573 88.8605 17.248V22.4H88.0605V14.08H88.8125V16.064C89.1432 15.4347 89.6338 14.9227 90.2845 14.528C90.9458 14.1333 91.6445 13.936 92.3805 13.936C93.2872 13.936 93.9272 14.256 94.3005 14.896C94.6738 15.536 94.8605 16.4427 94.8605 17.616V22.4ZM100.639 22.528C100.074 22.528 99.5512 22.4107 99.0712 22.176C98.5912 21.9413 98.1752 21.6213 97.8232 21.216C97.4712 20.8107 97.1939 20.352 96.9912 19.84C96.7992 19.328 96.7032 18.8 96.7032 18.256C96.7032 17.4987 96.8686 16.7947 97.1992 16.144C97.5299 15.4827 97.9832 14.9493 98.5592 14.544C99.1459 14.1387 99.8179 13.936 100.575 13.936C101.301 13.936 101.93 14.128 102.463 14.512C103.007 14.8853 103.466 15.344 103.839 15.888V14.08H104.575V22.56C104.575 23.3173 104.394 23.9467 104.031 24.448C103.669 24.9493 103.189 25.328 102.591 25.584C101.994 25.84 101.349 25.968 100.655 25.968C99.6846 25.968 98.9112 25.792 98.3352 25.44C97.7699 25.088 97.3112 24.624 96.9592 24.048L97.5032 23.68C97.8339 24.2453 98.2819 24.656 98.8472 24.912C99.4126 25.1787 100.015 25.312 100.655 25.312C101.221 25.312 101.738 25.2053 102.207 24.992C102.687 24.7893 103.066 24.4853 103.343 24.08C103.631 23.6747 103.775 23.168 103.775 22.56V20.736C103.445 21.28 102.991 21.7173 102.415 22.048C101.85 22.368 101.258 22.528 100.639 22.528ZM100.831 21.84C101.301 21.84 101.749 21.728 102.175 21.504C102.613 21.28 102.975 20.9973 103.263 20.656C103.551 20.3147 103.722 19.9627 103.775 19.6V16.864C103.615 16.4373 103.375 16.0587 103.055 15.728C102.735 15.3973 102.367 15.136 101.951 14.944C101.546 14.752 101.13 14.656 100.703 14.656C100.031 14.656 99.4552 14.8373 98.9752 15.2C98.5059 15.5627 98.1432 16.0213 97.8872 16.576C97.6419 17.1307 97.5192 17.696 97.5192 18.272C97.5192 18.9013 97.6632 19.488 97.9512 20.032C98.2499 20.576 98.6499 21.0133 99.1512 21.344C99.6632 21.6747 100.223 21.84 100.831 21.84Z" fill="#061839"/>
</svg>
