<svg width="164" height="34" viewBox="0 0 164 34" fill="none" xmlns="http://www.w3.org/2000/svg">
<rect width="164" height="34" rx="15" fill="#F2F2F2"/>
<path d="M29.0562 22.48C28.1495 22.48 27.3922 22.32 26.7842 22C26.1762 21.68 25.6909 21.248 25.3282 20.704C24.9655 20.1493 24.7042 19.5307 24.5442 18.848C24.3842 18.1653 24.3042 17.4667 24.3042 16.752V11.04H25.1202V16.752C25.1202 17.3813 25.1842 17.9947 25.3122 18.592C25.4402 19.1787 25.6482 19.712 25.9362 20.192C26.2349 20.6613 26.6349 21.0347 27.1362 21.312C27.6482 21.5893 28.2829 21.728 29.0402 21.728C29.8082 21.728 30.4429 21.5893 30.9442 21.312C31.4562 21.024 31.8562 20.64 32.1442 20.16C32.4429 19.68 32.6509 19.1467 32.7682 18.56C32.8962 17.9627 32.9602 17.36 32.9602 16.752V11.04H33.7762V16.752C33.7762 17.5093 33.6909 18.2347 33.5202 18.928C33.3602 19.6107 33.0935 20.2187 32.7202 20.752C32.3469 21.2853 31.8562 21.7067 31.2482 22.016C30.6509 22.3253 29.9202 22.48 29.0562 22.48ZM38.7704 22.56C38.1091 22.56 37.4958 22.448 36.9304 22.224C36.3651 22 35.8691 21.6587 35.4424 21.2L35.8104 20.64C36.2584 21.0773 36.7171 21.3973 37.1864 21.6C37.6664 21.792 38.1838 21.888 38.7384 21.888C39.4424 21.888 40.0184 21.7387 40.4664 21.44C40.9144 21.1413 41.1384 20.7253 41.1384 20.192C41.1384 19.8293 41.0318 19.552 40.8184 19.36C40.6158 19.168 40.3171 19.008 39.9224 18.88C39.5384 18.752 39.0691 18.6187 38.5144 18.48C37.9491 18.3307 37.4744 18.176 37.0904 18.016C36.7064 17.856 36.4131 17.648 36.2104 17.392C36.0184 17.136 35.9224 16.7893 35.9224 16.352C35.9224 15.808 36.0558 15.36 36.3224 15.008C36.5998 14.6453 36.9678 14.3787 37.4264 14.208C37.8958 14.0267 38.4131 13.936 38.9784 13.936C39.6291 13.936 40.1944 14.0427 40.6744 14.256C41.1651 14.4693 41.5384 14.752 41.7944 15.104L41.3624 15.616C41.1064 15.2853 40.7598 15.0347 40.3224 14.864C39.8851 14.6933 39.4158 14.608 38.9144 14.608C38.5198 14.608 38.1518 14.6613 37.8104 14.768C37.4798 14.8747 37.2078 15.0507 36.9944 15.296C36.7918 15.5307 36.6904 15.8507 36.6904 16.256C36.6904 16.576 36.7651 16.8267 36.9144 17.008C37.0638 17.1893 37.2931 17.3387 37.6024 17.456C37.9118 17.5627 38.3011 17.68 38.7704 17.808C39.4211 17.968 39.9811 18.1333 40.4504 18.304C40.9198 18.4747 41.2824 18.6987 41.5384 18.976C41.7944 19.2427 41.9224 19.6213 41.9224 20.112C41.9224 20.8693 41.6344 21.4667 41.0584 21.904C40.4824 22.3413 39.7198 22.56 38.7704 22.56ZM43.1147 20C43.1147 19.5093 43.2587 19.0773 43.5467 18.704C43.8454 18.3307 44.256 18.0427 44.7787 17.84C45.312 17.6267 45.92 17.52 46.6027 17.52C47.0294 17.52 47.472 17.5573 47.9307 17.632C48.4 17.7067 48.8107 17.808 49.1627 17.936V17.152C49.1627 16.384 48.9387 15.7707 48.4907 15.312C48.0427 14.8533 47.4347 14.624 46.6667 14.624C46.2507 14.624 45.8187 14.7093 45.3707 14.88C44.9227 15.0507 44.464 15.296 43.9947 15.616L43.6587 15.04C44.7467 14.304 45.776 13.936 46.7467 13.936C47.728 13.936 48.5067 14.2293 49.0827 14.816C49.6694 15.4027 49.9627 16.2027 49.9627 17.216V21.344C49.9627 21.6 50.08 21.7333 50.3147 21.744V22.4C50.112 22.4213 49.9787 22.4267 49.9147 22.416C49.712 22.3947 49.552 22.3093 49.4347 22.16C49.328 22.0107 49.2694 21.856 49.2587 21.696V21.04C48.8747 21.52 48.3787 21.8933 47.7707 22.16C47.1734 22.4267 46.544 22.56 45.8827 22.56C45.36 22.56 44.8854 22.448 44.4587 22.224C44.0427 21.9893 43.712 21.68 43.4667 21.296C43.232 20.912 43.1147 20.48 43.1147 20ZM48.8427 20.688C49.056 20.4213 49.1627 20.1707 49.1627 19.936V18.56C48.3947 18.2613 47.568 18.112 46.6827 18.112C45.84 18.112 45.1627 18.2827 44.6507 18.624C44.1387 18.9547 43.8827 19.3973 43.8827 19.952C43.8827 20.304 43.9734 20.6293 44.1547 20.928C44.336 21.2267 44.5867 21.4667 44.9067 21.648C45.2374 21.8293 45.616 21.92 46.0427 21.92C46.64 21.92 47.1894 21.808 47.6907 21.584C48.192 21.3493 48.576 21.0507 48.8427 20.688ZM56.2844 22.56C55.6338 22.56 55.0258 22.3893 54.4604 22.048C53.8951 21.696 53.4524 21.2587 53.1324 20.736V22.4H52.3964V10.72H53.1964V15.888C53.5911 15.312 54.0551 14.8427 54.5884 14.48C55.1324 14.1173 55.7564 13.936 56.4604 13.936C57.0471 13.936 57.5751 14.0587 58.0444 14.304C58.5138 14.5493 58.9138 14.88 59.2444 15.296C59.5751 15.712 59.8258 16.1813 59.9964 16.704C60.1778 17.216 60.2684 17.7387 60.2684 18.272C60.2684 18.8373 60.1671 19.3813 59.9644 19.904C59.7618 20.416 59.4791 20.8747 59.1164 21.28C58.7538 21.6747 58.3324 21.9893 57.8524 22.224C57.3724 22.448 56.8498 22.56 56.2844 22.56ZM56.1244 21.84C56.7751 21.84 57.3511 21.6693 57.8524 21.328C58.3538 20.976 58.7431 20.528 59.0204 19.984C59.3084 19.44 59.4524 18.8693 59.4524 18.272C59.4524 17.6427 59.3191 17.056 59.0524 16.512C58.7858 15.9573 58.4124 15.5093 57.9324 15.168C57.4524 14.8267 56.8978 14.656 56.2684 14.656C55.7991 14.656 55.3671 14.7627 54.9724 14.976C54.5778 15.1787 54.2311 15.4507 53.9324 15.792C53.6338 16.1227 53.3884 16.48 53.1964 16.864V19.616C53.2284 19.9253 53.3404 20.2133 53.5324 20.48C53.7351 20.7467 53.9804 20.9867 54.2684 21.2C54.5671 21.4027 54.8764 21.5627 55.1964 21.68C55.5271 21.7867 55.8364 21.84 56.1244 21.84ZM62.1933 12.192V10.72H62.9933V12.192H62.1933ZM62.1933 22.4V14.08H62.9933V22.4H62.1933ZM65.5698 10.72H66.3858V20.752C66.3858 21.136 66.4658 21.4027 66.6258 21.552C66.7858 21.6907 66.9938 21.76 67.2498 21.76C67.4205 21.76 67.5965 21.744 67.7778 21.712C67.9592 21.68 68.1192 21.6373 68.2578 21.584L68.4178 22.24C68.2365 22.304 68.0125 22.3627 67.7458 22.416C67.4792 22.4693 67.2498 22.496 67.0578 22.496C66.6098 22.496 66.2472 22.3627 65.9698 22.096C65.7032 21.8187 65.5698 21.4507 65.5698 20.992V10.72ZM69.6464 12.192V10.72H70.4464V12.192H69.6464ZM69.6464 22.4V14.08H70.4464V22.4H69.6464ZM76.6709 22C76.5963 22.0427 76.3989 22.1387 76.0789 22.288C75.7589 22.4267 75.3749 22.496 74.9269 22.496C74.4896 22.496 74.1056 22.368 73.7749 22.112C73.4549 21.856 73.2949 21.488 73.2949 21.008V14.736H72.1269V14.08H73.2949V11.232H74.0949V14.08H76.0309V14.736H74.0949V20.816C74.1163 21.1253 74.2283 21.36 74.4309 21.52C74.6336 21.6693 74.8683 21.744 75.1349 21.744C75.4656 21.744 75.7536 21.6907 75.9989 21.584C76.2443 21.4667 76.3883 21.392 76.4309 21.36L76.6709 22ZM78.6439 25.216C78.8146 25.2267 78.9639 25.2267 79.0919 25.216C79.2306 25.216 79.3319 25.1947 79.3959 25.152C79.4919 25.1307 79.5879 25.0453 79.6839 24.896C79.7799 24.7573 79.9133 24.496 80.0839 24.112C80.2653 23.728 80.5106 23.1573 80.8199 22.4L77.1079 14.08H77.9559L81.2519 21.552L84.3079 14.08H85.1239L80.5639 25.024C80.4679 25.2693 80.3186 25.4773 80.1159 25.648C79.9133 25.8187 79.6466 25.9147 79.3159 25.936C79.2199 25.9467 79.1133 25.952 78.9959 25.952C78.8893 25.9627 78.7719 25.9627 78.6439 25.952V25.216ZM98.1037 11.776H93.9437V22.4H93.1277V11.776H88.9677V11.04H98.1037V11.776ZM101.354 22.56C100.576 22.56 99.8717 22.3627 99.2423 21.968C98.6237 21.5733 98.133 21.0453 97.7703 20.384C97.4183 19.7227 97.2423 18.9973 97.2423 18.208C97.2423 17.4293 97.4183 16.72 97.7703 16.08C98.1223 15.4293 98.6077 14.912 99.2263 14.528C99.845 14.1333 100.538 13.936 101.306 13.936C102.096 13.936 102.794 14.1333 103.402 14.528C104.021 14.912 104.506 15.4293 104.858 16.08C105.21 16.7307 105.386 17.44 105.386 18.208C105.386 18.336 105.381 18.4533 105.37 18.56H98.0743C98.117 19.2 98.293 19.776 98.6023 20.288C98.9117 20.7893 99.3063 21.1893 99.7863 21.488C100.277 21.776 100.81 21.92 101.386 21.92C101.962 21.92 102.506 21.7707 103.018 21.472C103.53 21.1733 103.888 20.7893 104.09 20.32L104.794 20.512C104.634 20.9067 104.378 21.2587 104.026 21.568C103.685 21.8773 103.28 22.1227 102.81 22.304C102.352 22.4747 101.866 22.56 101.354 22.56ZM98.0423 17.936H104.618C104.576 17.2853 104.4 16.7093 104.09 16.208C103.792 15.696 103.402 15.3013 102.922 15.024C102.442 14.736 101.909 14.592 101.322 14.592C100.736 14.592 100.202 14.736 99.7223 15.024C99.2423 15.312 98.853 15.712 98.5543 16.224C98.2557 16.7253 98.085 17.296 98.0423 17.936ZM109.77 22.56C109.109 22.56 108.496 22.448 107.93 22.224C107.365 22 106.869 21.6587 106.442 21.2L106.81 20.64C107.258 21.0773 107.717 21.3973 108.186 21.6C108.666 21.792 109.184 21.888 109.738 21.888C110.442 21.888 111.018 21.7387 111.466 21.44C111.914 21.1413 112.138 20.7253 112.138 20.192C112.138 19.8293 112.032 19.552 111.818 19.36C111.616 19.168 111.317 19.008 110.922 18.88C110.538 18.752 110.069 18.6187 109.514 18.48C108.949 18.3307 108.474 18.176 108.09 18.016C107.706 17.856 107.413 17.648 107.21 17.392C107.018 17.136 106.922 16.7893 106.922 16.352C106.922 15.808 107.056 15.36 107.322 15.008C107.6 14.6453 107.968 14.3787 108.426 14.208C108.896 14.0267 109.413 13.936 109.978 13.936C110.629 13.936 111.194 14.0427 111.674 14.256C112.165 14.4693 112.538 14.752 112.794 15.104L112.362 15.616C112.106 15.2853 111.76 15.0347 111.322 14.864C110.885 14.6933 110.416 14.608 109.914 14.608C109.52 14.608 109.152 14.6613 108.81 14.768C108.48 14.8747 108.208 15.0507 107.994 15.296C107.792 15.5307 107.69 15.8507 107.69 16.256C107.69 16.576 107.765 16.8267 107.914 17.008C108.064 17.1893 108.293 17.3387 108.602 17.456C108.912 17.5627 109.301 17.68 109.77 17.808C110.421 17.968 110.981 18.1333 111.45 18.304C111.92 18.4747 112.282 18.6987 112.538 18.976C112.794 19.2427 112.922 19.6213 112.922 20.112C112.922 20.8693 112.634 21.4667 112.058 21.904C111.482 22.3413 110.72 22.56 109.77 22.56ZM118.515 22C118.44 22.0427 118.243 22.1387 117.923 22.288C117.603 22.4267 117.219 22.496 116.771 22.496C116.333 22.496 115.949 22.368 115.619 22.112C115.299 21.856 115.139 21.488 115.139 21.008V14.736H113.971V14.08H115.139V11.232H115.939V14.08H117.875V14.736H115.939V20.816C115.96 21.1253 116.072 21.36 116.275 21.52C116.477 21.6693 116.712 21.744 116.979 21.744C117.309 21.744 117.597 21.6907 117.843 21.584C118.088 21.4667 118.232 21.392 118.275 21.36L118.515 22ZM119.928 12.192V10.72H120.728V12.192H119.928ZM119.928 22.4V14.08H120.728V22.4H119.928ZM130.04 22.4H129.24V17.76C129.24 16.6933 129.086 15.9147 128.776 15.424C128.467 14.9227 127.987 14.672 127.336 14.672C126.867 14.672 126.408 14.784 125.96 15.008C125.512 15.232 125.118 15.5413 124.776 15.936C124.435 16.32 124.19 16.7573 124.04 17.248V22.4H123.24V14.08H123.992V16.064C124.323 15.4347 124.814 14.9227 125.464 14.528C126.126 14.1333 126.824 13.936 127.56 13.936C128.467 13.936 129.107 14.256 129.48 14.896C129.854 15.536 130.04 16.4427 130.04 17.616V22.4ZM135.819 22.528C135.254 22.528 134.731 22.4107 134.251 22.176C133.771 21.9413 133.355 21.6213 133.003 21.216C132.651 20.8107 132.374 20.352 132.171 19.84C131.979 19.328 131.883 18.8 131.883 18.256C131.883 17.4987 132.048 16.7947 132.379 16.144C132.71 15.4827 133.163 14.9493 133.739 14.544C134.326 14.1387 134.998 13.936 135.755 13.936C136.48 13.936 137.11 14.128 137.643 14.512C138.187 14.8853 138.646 15.344 139.019 15.888V14.08H139.755V22.56C139.755 23.3173 139.574 23.9467 139.211 24.448C138.848 24.9493 138.368 25.328 137.771 25.584C137.174 25.84 136.528 25.968 135.835 25.968C134.864 25.968 134.091 25.792 133.515 25.44C132.95 25.088 132.491 24.624 132.139 24.048L132.683 23.68C133.014 24.2453 133.462 24.656 134.027 24.912C134.592 25.1787 135.195 25.312 135.835 25.312C136.4 25.312 136.918 25.2053 137.387 24.992C137.867 24.7893 138.246 24.4853 138.523 24.08C138.811 23.6747 138.955 23.168 138.955 22.56V20.736C138.624 21.28 138.171 21.7173 137.595 22.048C137.03 22.368 136.438 22.528 135.819 22.528ZM136.011 21.84C136.48 21.84 136.928 21.728 137.355 21.504C137.792 21.28 138.155 20.9973 138.443 20.656C138.731 20.3147 138.902 19.9627 138.955 19.6V16.864C138.795 16.4373 138.555 16.0587 138.235 15.728C137.915 15.3973 137.547 15.136 137.131 14.944C136.726 14.752 136.31 14.656 135.883 14.656C135.211 14.656 134.635 14.8373 134.155 15.2C133.686 15.5627 133.323 16.0213 133.067 16.576C132.822 17.1307 132.699 17.696 132.699 18.272C132.699 18.9013 132.843 19.488 133.131 20.032C133.43 20.576 133.83 21.0133 134.331 21.344C134.843 21.6747 135.403 21.84 136.011 21.84Z" fill="#061839"/>
</svg>
