<svg width="153" height="34" viewBox="0 0 153 34" fill="none" xmlns="http://www.w3.org/2000/svg">
<rect width="153" height="34" rx="15" fill="#F2F2F2"/>
<path d="M29.4703 22.48C28.5636 22.48 27.8063 22.32 27.1983 22C26.5903 21.68 26.1049 21.248 25.7423 20.704C25.3796 20.1493 25.1183 19.5307 24.9583 18.848C24.7983 18.1653 24.7183 17.4667 24.7183 16.752V11.04H25.5343V16.752C25.5343 17.3813 25.5983 17.9947 25.7263 18.592C25.8543 19.1787 26.0623 19.712 26.3503 20.192C26.6489 20.6613 27.0489 21.0347 27.5503 21.312C28.0623 21.5893 28.6969 21.728 29.4543 21.728C30.2223 21.728 30.8569 21.5893 31.3583 21.312C31.8703 21.024 32.2703 20.64 32.5583 20.16C32.8569 19.68 33.0649 19.1467 33.1823 18.56C33.3103 17.9627 33.3743 17.36 33.3743 16.752V11.04H34.1903V16.752C34.1903 17.5093 34.1049 18.2347 33.9343 18.928C33.7743 19.6107 33.5076 20.2187 33.1343 20.752C32.7609 21.2853 32.2703 21.7067 31.6623 22.016C31.0649 22.3253 30.3343 22.48 29.4703 22.48ZM39.1845 22.56C38.5232 22.56 37.9098 22.448 37.3445 22.224C36.7792 22 36.2832 21.6587 35.8565 21.2L36.2245 20.64C36.6725 21.0773 37.1312 21.3973 37.6005 21.6C38.0805 21.792 38.5978 21.888 39.1525 21.888C39.8565 21.888 40.4325 21.7387 40.8805 21.44C41.3285 21.1413 41.5525 20.7253 41.5525 20.192C41.5525 19.8293 41.4458 19.552 41.2325 19.36C41.0298 19.168 40.7312 19.008 40.3365 18.88C39.9525 18.752 39.4832 18.6187 38.9285 18.48C38.3632 18.3307 37.8885 18.176 37.5045 18.016C37.1205 17.856 36.8272 17.648 36.6245 17.392C36.4325 17.136 36.3365 16.7893 36.3365 16.352C36.3365 15.808 36.4698 15.36 36.7365 15.008C37.0138 14.6453 37.3818 14.3787 37.8405 14.208C38.3098 14.0267 38.8272 13.936 39.3925 13.936C40.0432 13.936 40.6085 14.0427 41.0885 14.256C41.5792 14.4693 41.9525 14.752 42.2085 15.104L41.7765 15.616C41.5205 15.2853 41.1738 15.0347 40.7365 14.864C40.2992 14.6933 39.8298 14.608 39.3285 14.608C38.9338 14.608 38.5658 14.6613 38.2245 14.768C37.8938 14.8747 37.6218 15.0507 37.4085 15.296C37.2058 15.5307 37.1045 15.8507 37.1045 16.256C37.1045 16.576 37.1792 16.8267 37.3285 17.008C37.4778 17.1893 37.7072 17.3387 38.0165 17.456C38.3258 17.5627 38.7152 17.68 39.1845 17.808C39.8352 17.968 40.3952 18.1333 40.8645 18.304C41.3338 18.4747 41.6965 18.6987 41.9525 18.976C42.2085 19.2427 42.3365 19.6213 42.3365 20.112C42.3365 20.8693 42.0485 21.4667 41.4725 21.904C40.8965 22.3413 40.1338 22.56 39.1845 22.56ZM47.7528 22.56C46.9741 22.56 46.2701 22.3627 45.6408 21.968C45.0221 21.5733 44.5314 21.0453 44.1688 20.384C43.8168 19.7227 43.6408 18.9973 43.6408 18.208C43.6408 17.4293 43.8168 16.72 44.1688 16.08C44.5208 15.4293 45.0061 14.912 45.6248 14.528C46.2434 14.1333 46.9368 13.936 47.7048 13.936C48.4941 13.936 49.1928 14.1333 49.8008 14.528C50.4194 14.912 50.9048 15.4293 51.2568 16.08C51.6088 16.7307 51.7847 17.44 51.7847 18.208C51.7847 18.336 51.7794 18.4533 51.7688 18.56H44.4728C44.5154 19.2 44.6914 19.776 45.0008 20.288C45.3101 20.7893 45.7048 21.1893 46.1848 21.488C46.6754 21.776 47.2088 21.92 47.7848 21.92C48.3608 21.92 48.9048 21.7707 49.4168 21.472C49.9288 21.1733 50.2861 20.7893 50.4888 20.32L51.1927 20.512C51.0328 20.9067 50.7768 21.2587 50.4248 21.568C50.0834 21.8773 49.6781 22.1227 49.2088 22.304C48.7501 22.4747 48.2648 22.56 47.7528 22.56ZM44.4408 17.936H51.0168C50.9741 17.2853 50.7981 16.7093 50.4888 16.208C50.1901 15.696 49.8008 15.3013 49.3208 15.024C48.8408 14.736 48.3074 14.592 47.7208 14.592C47.1341 14.592 46.6008 14.736 46.1208 15.024C45.6408 15.312 45.2514 15.712 44.9528 16.224C44.6541 16.7253 44.4834 17.296 44.4408 17.936ZM57.4809 14.8C56.7342 14.8213 56.0782 15.0453 55.5129 15.472C54.9582 15.888 54.5689 16.464 54.3449 17.2V22.4H53.5449V14.08H54.3129V16.128C54.6009 15.552 54.9849 15.0773 55.4649 14.704C55.9449 14.3307 56.4515 14.1173 56.9849 14.064C57.0915 14.064 57.1822 14.064 57.2569 14.064C57.3422 14.0533 57.4169 14.048 57.4809 14.048V14.8ZM62.9568 22.4V11.04H67.6768C68.3168 11.04 68.8874 11.216 69.3888 11.568C69.8901 11.9093 70.2794 12.352 70.5568 12.896C70.8448 13.4293 70.9888 13.984 70.9888 14.56C70.9888 15.1253 70.8768 15.6533 70.6528 16.144C70.4288 16.6347 70.1141 17.0453 69.7088 17.376C69.3141 17.7067 68.8501 17.9093 68.3168 17.984L71.1488 22.4H70.2048L67.4528 18.112H63.7728V22.4H62.9568ZM63.7728 17.36H67.7568C68.2474 17.36 68.6741 17.2267 69.0368 16.96C69.3994 16.6933 69.6768 16.3467 69.8688 15.92C70.0714 15.4933 70.1728 15.04 70.1728 14.56C70.1728 14.0693 70.0554 13.616 69.8208 13.2C69.5968 12.7733 69.2928 12.432 68.9088 12.176C68.5248 11.9093 68.1034 11.776 67.6448 11.776H63.7728V17.36ZM76.3934 22.56C75.6147 22.56 74.9107 22.3627 74.2814 21.968C73.6627 21.5733 73.172 21.0453 72.8094 20.384C72.4574 19.7227 72.2814 18.9973 72.2814 18.208C72.2814 17.4293 72.4574 16.72 72.8094 16.08C73.1614 15.4293 73.6467 14.912 74.2654 14.528C74.884 14.1333 75.5774 13.936 76.3454 13.936C77.1347 13.936 77.8334 14.1333 78.4414 14.528C79.06 14.912 79.5454 15.4293 79.8974 16.08C80.2494 16.7307 80.4254 17.44 80.4254 18.208C80.4254 18.336 80.42 18.4533 80.4094 18.56H73.1134C73.156 19.2 73.332 19.776 73.6414 20.288C73.9507 20.7893 74.3454 21.1893 74.8254 21.488C75.316 21.776 75.8494 21.92 76.4254 21.92C77.0014 21.92 77.5454 21.7707 78.0574 21.472C78.5694 21.1733 78.9267 20.7893 79.1294 20.32L79.8334 20.512C79.6734 20.9067 79.4174 21.2587 79.0654 21.568C78.724 21.8773 78.3187 22.1227 77.8494 22.304C77.3907 22.4747 76.9054 22.56 76.3934 22.56ZM73.0814 17.936H79.6574C79.6147 17.2853 79.4387 16.7093 79.1294 16.208C78.8307 15.696 78.4414 15.3013 77.9614 15.024C77.4814 14.736 76.948 14.592 76.3614 14.592C75.7747 14.592 75.2414 14.736 74.7614 15.024C74.2814 15.312 73.892 15.712 73.5934 16.224C73.2947 16.7253 73.124 17.296 73.0814 17.936ZM84.8095 22.56C84.1482 22.56 83.5348 22.448 82.9695 22.224C82.4042 22 81.9082 21.6587 81.4815 21.2L81.8495 20.64C82.2975 21.0773 82.7562 21.3973 83.2255 21.6C83.7055 21.792 84.2228 21.888 84.7775 21.888C85.4815 21.888 86.0575 21.7387 86.5055 21.44C86.9535 21.1413 87.1775 20.7253 87.1775 20.192C87.1775 19.8293 87.0708 19.552 86.8575 19.36C86.6548 19.168 86.3562 19.008 85.9615 18.88C85.5775 18.752 85.1082 18.6187 84.5535 18.48C83.9882 18.3307 83.5135 18.176 83.1295 18.016C82.7455 17.856 82.4522 17.648 82.2495 17.392C82.0575 17.136 81.9615 16.7893 81.9615 16.352C81.9615 15.808 82.0948 15.36 82.3615 15.008C82.6388 14.6453 83.0068 14.3787 83.4655 14.208C83.9348 14.0267 84.4522 13.936 85.0175 13.936C85.6682 13.936 86.2335 14.0427 86.7135 14.256C87.2042 14.4693 87.5775 14.752 87.8335 15.104L87.4015 15.616C87.1455 15.2853 86.7988 15.0347 86.3615 14.864C85.9242 14.6933 85.4548 14.608 84.9535 14.608C84.5588 14.608 84.1908 14.6613 83.8495 14.768C83.5188 14.8747 83.2468 15.0507 83.0335 15.296C82.8308 15.5307 82.7295 15.8507 82.7295 16.256C82.7295 16.576 82.8042 16.8267 82.9535 17.008C83.1028 17.1893 83.3322 17.3387 83.6415 17.456C83.9508 17.5627 84.3402 17.68 84.8095 17.808C85.4602 17.968 86.0202 18.1333 86.4895 18.304C86.9588 18.4747 87.3215 18.6987 87.5775 18.976C87.8335 19.2427 87.9615 19.6213 87.9615 20.112C87.9615 20.8693 87.6735 21.4667 87.0975 21.904C86.5215 22.3413 85.7588 22.56 84.8095 22.56ZM93.3778 22.56C92.5991 22.56 91.8951 22.3627 91.2658 21.968C90.6471 21.5733 90.1564 21.0453 89.7938 20.384C89.4418 19.7227 89.2658 18.9973 89.2658 18.208C89.2658 17.4293 89.4418 16.72 89.7938 16.08C90.1458 15.4293 90.6311 14.912 91.2498 14.528C91.8684 14.1333 92.5618 13.936 93.3298 13.936C94.1191 13.936 94.8178 14.1333 95.4258 14.528C96.0444 14.912 96.5298 15.4293 96.8818 16.08C97.2338 16.7307 97.4097 17.44 97.4097 18.208C97.4097 18.336 97.4044 18.4533 97.3938 18.56H90.0978C90.1404 19.2 90.3164 19.776 90.6258 20.288C90.9351 20.7893 91.3298 21.1893 91.8098 21.488C92.3004 21.776 92.8338 21.92 93.4098 21.92C93.9858 21.92 94.5298 21.7707 95.0418 21.472C95.5538 21.1733 95.9111 20.7893 96.1138 20.32L96.8177 20.512C96.6578 20.9067 96.4018 21.2587 96.0498 21.568C95.7084 21.8773 95.3031 22.1227 94.8338 22.304C94.3751 22.4747 93.8898 22.56 93.3778 22.56ZM90.0658 17.936H96.6418C96.5991 17.2853 96.4231 16.7093 96.1138 16.208C95.8151 15.696 95.4258 15.3013 94.9458 15.024C94.4658 14.736 93.9324 14.592 93.3458 14.592C92.7591 14.592 92.2258 14.736 91.7458 15.024C91.2658 15.312 90.8764 15.712 90.5778 16.224C90.2791 16.7253 90.1084 17.296 90.0658 17.936ZM98.4819 20C98.4819 19.5093 98.6259 19.0773 98.9139 18.704C99.2125 18.3307 99.6232 18.0427 100.146 17.84C100.679 17.6267 101.287 17.52 101.97 17.52C102.397 17.52 102.839 17.5573 103.298 17.632C103.767 17.7067 104.178 17.808 104.53 17.936V17.152C104.53 16.384 104.306 15.7707 103.858 15.312C103.41 14.8533 102.802 14.624 102.034 14.624C101.618 14.624 101.186 14.7093 100.738 14.88C100.29 15.0507 99.8312 15.296 99.3619 15.616L99.0259 15.04C100.114 14.304 101.143 13.936 102.114 13.936C103.095 13.936 103.874 14.2293 104.45 14.816C105.037 15.4027 105.33 16.2027 105.33 17.216V21.344C105.33 21.6 105.447 21.7333 105.682 21.744V22.4C105.479 22.4213 105.346 22.4267 105.282 22.416C105.079 22.3947 104.919 22.3093 104.802 22.16C104.695 22.0107 104.637 21.856 104.626 21.696V21.04C104.242 21.52 103.746 21.8933 103.138 22.16C102.541 22.4267 101.911 22.56 101.25 22.56C100.727 22.56 100.253 22.448 99.8259 22.224C99.4099 21.9893 99.0792 21.68 98.8339 21.296C98.5992 20.912 98.4819 20.48 98.4819 20ZM104.21 20.688C104.423 20.4213 104.53 20.1707 104.53 19.936V18.56C103.762 18.2613 102.935 18.112 102.05 18.112C101.207 18.112 100.53 18.2827 100.018 18.624C99.5059 18.9547 99.2499 19.3973 99.2499 19.952C99.2499 20.304 99.3405 20.6293 99.5219 20.928C99.7032 21.2267 99.9539 21.4667 100.274 21.648C100.605 21.8293 100.983 21.92 101.41 21.92C102.007 21.92 102.557 21.808 103.058 21.584C103.559 21.3493 103.943 21.0507 104.21 20.688ZM111.7 14.8C110.953 14.8213 110.297 15.0453 109.732 15.472C109.177 15.888 108.788 16.464 108.564 17.2V22.4H107.764V14.08H108.532V16.128C108.82 15.552 109.204 15.0773 109.684 14.704C110.164 14.3307 110.67 14.1173 111.204 14.064C111.31 14.064 111.401 14.064 111.476 14.064C111.561 14.0533 111.636 14.048 111.7 14.048V14.8ZM116.44 22.56C115.662 22.56 114.963 22.3627 114.344 21.968C113.726 21.5733 113.235 21.0453 112.872 20.384C112.51 19.7227 112.328 18.9973 112.328 18.208C112.328 17.4187 112.504 16.704 112.856 16.064C113.208 15.4133 113.694 14.896 114.312 14.512C114.931 14.128 115.635 13.936 116.424 13.936C117.182 13.936 117.848 14.112 118.424 14.464C119 14.8053 119.432 15.2747 119.72 15.872L118.936 16.128C118.691 15.6693 118.339 15.312 117.88 15.056C117.432 14.7893 116.936 14.656 116.392 14.656C115.784 14.656 115.235 14.816 114.744 15.136C114.254 15.4453 113.859 15.8667 113.56 16.4C113.272 16.9333 113.128 17.536 113.128 18.208C113.128 18.88 113.278 19.4933 113.576 20.048C113.875 20.592 114.27 21.0293 114.76 21.36C115.262 21.68 115.811 21.84 116.408 21.84C116.792 21.84 117.166 21.7707 117.528 21.632C117.902 21.4827 118.222 21.2907 118.488 21.056C118.766 20.8213 118.947 20.5707 119.032 20.304L119.816 20.528C119.678 20.9227 119.438 21.2747 119.096 21.584C118.766 21.8827 118.371 22.1227 117.912 22.304C117.454 22.4747 116.963 22.56 116.44 22.56ZM128.423 22.4H127.623V17.76C127.623 15.7013 126.935 14.672 125.559 14.672C125.111 14.672 124.674 14.784 124.247 15.008C123.82 15.232 123.442 15.5413 123.111 15.936C122.791 16.32 122.562 16.7573 122.423 17.248V22.4H121.623V10.72H122.423V16.064C122.764 15.4133 123.239 14.896 123.847 14.512C124.455 14.128 125.1 13.936 125.783 13.936C126.711 13.936 127.383 14.2667 127.799 14.928C128.215 15.5787 128.423 16.4747 128.423 17.616V22.4Z" fill="#061839"/>
</svg>
