<svg width="127" height="34" viewBox="0 0 127 34" fill="none" xmlns="http://www.w3.org/2000/svg">
<rect width="127" height="34" rx="15" fill="#F2F2F2"/>
<path d="M28.9546 22.48C28.048 22.48 27.2906 22.32 26.6826 22C26.0746 21.68 25.5893 21.248 25.2266 20.704C24.864 20.1493 24.6026 19.5307 24.4426 18.848C24.2826 18.1653 24.2026 17.4667 24.2026 16.752V11.04H25.0186V16.752C25.0186 17.3813 25.0826 17.9947 25.2106 18.592C25.3386 19.1787 25.5466 19.712 25.8346 20.192C26.1333 20.6613 26.5333 21.0347 27.0346 21.312C27.5466 21.5893 28.1813 21.728 28.9386 21.728C29.7066 21.728 30.3413 21.5893 30.8426 21.312C31.3546 21.024 31.7546 20.64 32.0426 20.16C32.3413 19.68 32.5493 19.1467 32.6666 18.56C32.7946 17.9627 32.8586 17.36 32.8586 16.752V11.04H33.6746V16.752C33.6746 17.5093 33.5893 18.2347 33.4186 18.928C33.2586 19.6107 32.992 20.2187 32.6186 20.752C32.2453 21.2853 31.7546 21.7067 31.1466 22.016C30.5493 22.3253 29.8186 22.48 28.9546 22.48ZM38.6689 22.56C38.0075 22.56 37.3942 22.448 36.8289 22.224C36.2635 22 35.7675 21.6587 35.3409 21.2L35.7089 20.64C36.1569 21.0773 36.6155 21.3973 37.0849 21.6C37.5649 21.792 38.0822 21.888 38.6369 21.888C39.3409 21.888 39.9169 21.7387 40.3649 21.44C40.8129 21.1413 41.0369 20.7253 41.0369 20.192C41.0369 19.8293 40.9302 19.552 40.7169 19.36C40.5142 19.168 40.2155 19.008 39.8209 18.88C39.4369 18.752 38.9675 18.6187 38.4129 18.48C37.8475 18.3307 37.3729 18.176 36.9889 18.016C36.6049 17.856 36.3115 17.648 36.1089 17.392C35.9169 17.136 35.8209 16.7893 35.8209 16.352C35.8209 15.808 35.9542 15.36 36.2209 15.008C36.4982 14.6453 36.8662 14.3787 37.3249 14.208C37.7942 14.0267 38.3115 13.936 38.8769 13.936C39.5275 13.936 40.0929 14.0427 40.5729 14.256C41.0635 14.4693 41.4369 14.752 41.6929 15.104L41.2609 15.616C41.0049 15.2853 40.6582 15.0347 40.2209 14.864C39.7835 14.6933 39.3142 14.608 38.8129 14.608C38.4182 14.608 38.0502 14.6613 37.7089 14.768C37.3782 14.8747 37.1062 15.0507 36.8929 15.296C36.6902 15.5307 36.5889 15.8507 36.5889 16.256C36.5889 16.576 36.6635 16.8267 36.8129 17.008C36.9622 17.1893 37.1915 17.3387 37.5009 17.456C37.8102 17.5627 38.1995 17.68 38.6689 17.808C39.3195 17.968 39.8795 18.1333 40.3489 18.304C40.8182 18.4747 41.1809 18.6987 41.4369 18.976C41.6929 19.2427 41.8209 19.6213 41.8209 20.112C41.8209 20.8693 41.5329 21.4667 40.9569 21.904C40.3809 22.3413 39.6182 22.56 38.6689 22.56ZM47.2371 22.56C46.4585 22.56 45.7545 22.3627 45.1251 21.968C44.5065 21.5733 44.0158 21.0453 43.6531 20.384C43.3011 19.7227 43.1251 18.9973 43.1251 18.208C43.1251 17.4293 43.3011 16.72 43.6531 16.08C44.0051 15.4293 44.4905 14.912 45.1091 14.528C45.7278 14.1333 46.4211 13.936 47.1891 13.936C47.9785 13.936 48.6771 14.1333 49.2851 14.528C49.9038 14.912 50.3891 15.4293 50.7411 16.08C51.0931 16.7307 51.2691 17.44 51.2691 18.208C51.2691 18.336 51.2638 18.4533 51.2531 18.56H43.9571C43.9998 19.2 44.1758 19.776 44.4851 20.288C44.7945 20.7893 45.1891 21.1893 45.6691 21.488C46.1598 21.776 46.6931 21.92 47.2691 21.92C47.8451 21.92 48.3891 21.7707 48.9011 21.472C49.4131 21.1733 49.7705 20.7893 49.9731 20.32L50.6771 20.512C50.5171 20.9067 50.2611 21.2587 49.9091 21.568C49.5678 21.8773 49.1625 22.1227 48.6931 22.304C48.2345 22.4747 47.7491 22.56 47.2371 22.56ZM43.9251 17.936H50.5011C50.4585 17.2853 50.2825 16.7093 49.9731 16.208C49.6745 15.696 49.2851 15.3013 48.8051 15.024C48.3251 14.736 47.7918 14.592 47.2051 14.592C46.6185 14.592 46.0851 14.736 45.6051 15.024C45.1251 15.312 44.7358 15.712 44.4371 16.224C44.1385 16.7253 43.9678 17.296 43.9251 17.936ZM56.9652 14.8C56.2186 14.8213 55.5626 15.0453 54.9972 15.472C54.4426 15.888 54.0532 16.464 53.8292 17.2V22.4H53.0292V14.08H53.7972V16.128C54.0852 15.552 54.4692 15.0773 54.9492 14.704C55.4292 14.3307 55.9359 14.1173 56.4692 14.064C56.5759 14.064 56.6666 14.064 56.7412 14.064C56.8266 14.0533 56.9012 14.048 56.9652 14.048V14.8ZM62.4411 22.4V11.04H69.8331V11.776H63.2571V16.288H68.8411V16.992H63.2571V22.4H62.4411ZM71.7651 10.72H72.5811V20.752C72.5811 21.136 72.6611 21.4027 72.8211 21.552C72.9811 21.6907 73.1891 21.76 73.4451 21.76C73.6158 21.76 73.7918 21.744 73.9731 21.712C74.1545 21.68 74.3145 21.6373 74.4531 21.584L74.6131 22.24C74.4318 22.304 74.2078 22.3627 73.9411 22.416C73.6745 22.4693 73.4451 22.496 73.2531 22.496C72.8051 22.496 72.4425 22.3627 72.1651 22.096C71.8985 21.8187 71.7651 21.4507 71.7651 20.992V10.72ZM79.3297 22.56C78.5511 22.56 77.8524 22.3627 77.2337 21.968C76.6257 21.5733 76.1457 21.0507 75.7937 20.4C75.4417 19.7493 75.2657 19.0347 75.2657 18.256C75.2657 17.6693 75.3671 17.12 75.5697 16.608C75.7724 16.0853 76.0604 15.6267 76.4337 15.232C76.8071 14.8267 77.2391 14.512 77.7297 14.288C78.2204 14.0533 78.7537 13.936 79.3297 13.936C79.9057 13.936 80.4391 14.0533 80.9297 14.288C81.4204 14.512 81.8471 14.8267 82.2097 15.232C82.5831 15.6267 82.8711 16.0853 83.0737 16.608C83.2871 17.12 83.3937 17.6693 83.3937 18.256C83.3937 19.0347 83.2124 19.7493 82.8497 20.4C82.4977 21.0507 82.0124 21.5733 81.3937 21.968C80.7857 22.3627 80.0977 22.56 79.3297 22.56ZM76.0657 18.288C76.0657 18.9387 76.2097 19.536 76.4977 20.08C76.7964 20.6133 77.1911 21.04 77.6817 21.36C78.1724 21.68 78.7164 21.84 79.3137 21.84C79.9111 21.84 80.4551 21.68 80.9457 21.36C81.4471 21.0293 81.8417 20.592 82.1297 20.048C82.4284 19.504 82.5777 18.9013 82.5777 18.24C82.5777 17.5893 82.4284 16.992 82.1297 16.448C81.8417 15.904 81.4471 15.472 80.9457 15.152C80.4551 14.8213 79.9164 14.656 79.3297 14.656C78.7324 14.656 78.1884 14.8213 77.6977 15.152C77.2071 15.4827 76.8124 15.9253 76.5137 16.48C76.2151 17.024 76.0657 17.6267 76.0657 18.288ZM95.5576 14.08H96.3576L92.7576 22.4H92.0536L90.2136 18.064L88.3736 22.4H87.6696L84.0696 14.08H84.8536L88.0376 21.52L89.7496 17.456L88.3576 14.096H89.0776L90.2136 16.832L91.3336 14.096H92.0696L90.6776 17.456L92.3896 21.52L95.5576 14.08ZM100.325 22.56C99.6638 22.56 99.0505 22.448 98.4851 22.224C97.9198 22 97.4238 21.6587 96.9971 21.2L97.3651 20.64C97.8131 21.0773 98.2718 21.3973 98.7411 21.6C99.2211 21.792 99.7385 21.888 100.293 21.888C100.997 21.888 101.573 21.7387 102.021 21.44C102.469 21.1413 102.693 20.7253 102.693 20.192C102.693 19.8293 102.586 19.552 102.373 19.36C102.17 19.168 101.872 19.008 101.477 18.88C101.093 18.752 100.624 18.6187 100.069 18.48C99.5038 18.3307 99.0291 18.176 98.6451 18.016C98.2611 17.856 97.9678 17.648 97.7651 17.392C97.5731 17.136 97.4771 16.7893 97.4771 16.352C97.4771 15.808 97.6105 15.36 97.8771 15.008C98.1545 14.6453 98.5225 14.3787 98.9811 14.208C99.4505 14.0267 99.9678 13.936 100.533 13.936C101.184 13.936 101.749 14.0427 102.229 14.256C102.72 14.4693 103.093 14.752 103.349 15.104L102.917 15.616C102.661 15.2853 102.314 15.0347 101.877 14.864C101.44 14.6933 100.97 14.608 100.469 14.608C100.074 14.608 99.7065 14.6613 99.3651 14.768C99.0345 14.8747 98.7625 15.0507 98.5491 15.296C98.3465 15.5307 98.2451 15.8507 98.2451 16.256C98.2451 16.576 98.3198 16.8267 98.4691 17.008C98.6185 17.1893 98.8478 17.3387 99.1571 17.456C99.4665 17.5627 99.8558 17.68 100.325 17.808C100.976 17.968 101.536 18.1333 102.005 18.304C102.474 18.4747 102.837 18.6987 103.093 18.976C103.349 19.2427 103.477 19.6213 103.477 20.112C103.477 20.8693 103.189 21.4667 102.613 21.904C102.037 22.3413 101.274 22.56 100.325 22.56Z" fill="#061839"/>
</svg>
