<svg width="127" height="34" viewBox="0 0 127 34" fill="none" xmlns="http://www.w3.org/2000/svg">
<rect width="127" height="34" rx="15" fill="#F2F2F2"/>
<path d="M24.1212 11.12H24.9212L26.6172 15.248L28.3132 11.12H29.1132L27.1132 15.904L29.4972 21.44L33.8492 11.04H34.7452L29.8812 22.4H29.1292L26.6332 16.56L24.1212 22.4H23.3692L18.5212 11.04H19.4012L23.7692 21.44L26.1212 15.904L24.1212 11.12ZM36.2167 12.192V10.72H37.0167V12.192H36.2167ZM36.2167 22.4V14.08H37.0167V22.4H36.2167ZM43.4652 14.8C42.7186 14.8213 42.0626 15.0453 41.4972 15.472C40.9426 15.888 40.5532 16.464 40.3292 17.2V22.4H39.5292V14.08H40.2972V16.128C40.5852 15.552 40.9692 15.0773 41.4492 14.704C41.9292 14.3307 42.4359 14.1173 42.9692 14.064C43.0759 14.064 43.1666 14.064 43.2412 14.064C43.3266 14.0533 43.4012 14.048 43.4652 14.048V14.8ZM48.2059 22.56C47.4272 22.56 46.7232 22.3627 46.0939 21.968C45.4752 21.5733 44.9845 21.0453 44.6219 20.384C44.2699 19.7227 44.0939 18.9973 44.0939 18.208C44.0939 17.4293 44.2699 16.72 44.6219 16.08C44.9739 15.4293 45.4592 14.912 46.0779 14.528C46.6965 14.1333 47.3899 13.936 48.1579 13.936C48.9472 13.936 49.6459 14.1333 50.2539 14.528C50.8725 14.912 51.3579 15.4293 51.7099 16.08C52.0619 16.7307 52.2379 17.44 52.2379 18.208C52.2379 18.336 52.2325 18.4533 52.2219 18.56H44.9259C44.9685 19.2 45.1445 19.776 45.4539 20.288C45.7632 20.7893 46.1579 21.1893 46.6379 21.488C47.1285 21.776 47.6619 21.92 48.2379 21.92C48.8139 21.92 49.3579 21.7707 49.8699 21.472C50.3819 21.1733 50.7392 20.7893 50.9419 20.32L51.6459 20.512C51.4859 20.9067 51.2299 21.2587 50.8779 21.568C50.5365 21.8773 50.1312 22.1227 49.6619 22.304C49.2032 22.4747 48.7179 22.56 48.2059 22.56ZM44.8939 17.936H51.4699C51.4272 17.2853 51.2512 16.7093 50.9419 16.208C50.6432 15.696 50.2539 15.3013 49.7739 15.024C49.2939 14.736 48.7605 14.592 48.1739 14.592C47.5872 14.592 47.0539 14.736 46.5739 15.024C46.0939 15.312 45.7045 15.712 45.4059 16.224C45.1072 16.7253 44.9365 17.296 44.8939 17.936ZM54.2879 22.4V14.736H53.1199V14.08H54.2879V13.808C54.2879 12.7947 54.4959 12 54.9119 11.424C55.3385 10.848 55.9145 10.56 56.6399 10.56C56.9599 10.56 57.2692 10.608 57.5679 10.704C57.8665 10.8 58.1119 10.928 58.3039 11.088L58.0159 11.664C57.6959 11.3973 57.2852 11.264 56.7839 11.264C56.2399 11.264 55.8185 11.4827 55.5199 11.92C55.2319 12.3467 55.0879 12.9707 55.0879 13.792V14.08H57.4559V14.736H55.0879V22.4H54.2879ZM62.9496 14.8C62.203 14.8213 61.547 15.0453 60.9816 15.472C60.427 15.888 60.0376 16.464 59.8136 17.2V22.4H59.0136V14.08H59.7816V16.128C60.0696 15.552 60.4536 15.0773 60.9336 14.704C61.4136 14.3307 61.9203 14.1173 62.4536 14.064C62.5603 14.064 62.651 14.064 62.7256 14.064C62.811 14.0533 62.8856 14.048 62.9496 14.048V14.8ZM63.7162 20C63.7162 19.5093 63.8602 19.0773 64.1482 18.704C64.4469 18.3307 64.8576 18.0427 65.3802 17.84C65.9136 17.6267 66.5216 17.52 67.2042 17.52C67.6309 17.52 68.0736 17.5573 68.5322 17.632C69.0016 17.7067 69.4122 17.808 69.7642 17.936V17.152C69.7642 16.384 69.5402 15.7707 69.0922 15.312C68.6442 14.8533 68.0362 14.624 67.2682 14.624C66.8522 14.624 66.4202 14.7093 65.9722 14.88C65.5242 15.0507 65.0656 15.296 64.5962 15.616L64.2602 15.04C65.3482 14.304 66.3776 13.936 67.3482 13.936C68.3296 13.936 69.1082 14.2293 69.6842 14.816C70.2709 15.4027 70.5642 16.2027 70.5642 17.216V21.344C70.5642 21.6 70.6816 21.7333 70.9162 21.744V22.4C70.7136 22.4213 70.5802 22.4267 70.5162 22.416C70.3136 22.3947 70.1536 22.3093 70.0362 22.16C69.9296 22.0107 69.8709 21.856 69.8602 21.696V21.04C69.4762 21.52 68.9802 21.8933 68.3722 22.16C67.7749 22.4267 67.1456 22.56 66.4842 22.56C65.9616 22.56 65.4869 22.448 65.0602 22.224C64.6442 21.9893 64.3136 21.68 64.0682 21.296C63.8336 20.912 63.7162 20.48 63.7162 20ZM69.4442 20.688C69.6576 20.4213 69.7642 20.1707 69.7642 19.936V18.56C68.9962 18.2613 68.1696 18.112 67.2842 18.112C66.4416 18.112 65.7642 18.2827 65.2522 18.624C64.7402 18.9547 64.4842 19.3973 64.4842 19.952C64.4842 20.304 64.5749 20.6293 64.7562 20.928C64.9376 21.2267 65.1882 21.4667 65.5082 21.648C65.8389 21.8293 66.2176 21.92 66.6442 21.92C67.2416 21.92 67.7909 21.808 68.2922 21.584C68.7936 21.3493 69.1776 21.0507 69.4442 20.688ZM85.222 22.4H84.422V17.76C84.422 16.7147 84.2567 15.9413 83.926 15.44C83.606 14.928 83.11 14.672 82.438 14.672C81.7447 14.672 81.1367 14.9173 80.614 15.408C80.0913 15.888 79.7233 16.5067 79.51 17.264V22.4H78.71V17.76C78.71 16.6933 78.55 15.9147 78.23 15.424C77.91 14.9227 77.414 14.672 76.742 14.672C76.0593 14.672 75.4513 14.912 74.918 15.392C74.3953 15.8613 74.022 16.48 73.798 17.248V22.4H72.998V14.08H73.75V16.064C74.0913 15.392 74.5393 14.8693 75.094 14.496C75.6593 14.1227 76.2727 13.936 76.934 13.936C77.638 13.936 78.2087 14.144 78.646 14.56C79.0833 14.976 79.3447 15.52 79.43 16.192C80.2193 14.688 81.3073 13.936 82.694 13.936C83.6007 13.936 84.246 14.2613 84.63 14.912C85.0247 15.552 85.222 16.4533 85.222 17.616V22.4ZM87.6386 12.192V10.72H88.4386V12.192H87.6386ZM87.6386 22.4V14.08H88.4386V22.4H87.6386ZM97.7511 22.4H96.9511V17.76C96.9511 16.6933 96.7965 15.9147 96.4871 15.424C96.1778 14.9227 95.6978 14.672 95.0471 14.672C94.5778 14.672 94.1191 14.784 93.6711 15.008C93.2231 15.232 92.8285 15.5413 92.4871 15.936C92.1458 16.32 91.9005 16.7573 91.7511 17.248V22.4H90.9511V14.08H91.7031V16.064C92.0338 15.4347 92.5245 14.9227 93.1751 14.528C93.8365 14.1333 94.5351 13.936 95.2711 13.936C96.1778 13.936 96.8178 14.256 97.1911 14.896C97.5645 15.536 97.7511 16.4427 97.7511 17.616V22.4ZM103.53 22.528C102.965 22.528 102.442 22.4107 101.962 22.176C101.482 21.9413 101.066 21.6213 100.714 21.216C100.362 20.8107 100.085 20.352 99.8819 19.84C99.6899 19.328 99.5939 18.8 99.5939 18.256C99.5939 17.4987 99.7592 16.7947 100.09 16.144C100.421 15.4827 100.874 14.9493 101.45 14.544C102.037 14.1387 102.709 13.936 103.466 13.936C104.191 13.936 104.821 14.128 105.354 14.512C105.898 14.8853 106.357 15.344 106.73 15.888V14.08H107.466V22.56C107.466 23.3173 107.285 23.9467 106.922 24.448C106.559 24.9493 106.079 25.328 105.482 25.584C104.885 25.84 104.239 25.968 103.546 25.968C102.575 25.968 101.802 25.792 101.226 25.44C100.661 25.088 100.202 24.624 99.8499 24.048L100.394 23.68C100.725 24.2453 101.173 24.656 101.738 24.912C102.303 25.1787 102.906 25.312 103.546 25.312C104.111 25.312 104.629 25.2053 105.098 24.992C105.578 24.7893 105.957 24.4853 106.234 24.08C106.522 23.6747 106.666 23.168 106.666 22.56V20.736C106.335 21.28 105.882 21.7173 105.306 22.048C104.741 22.368 104.149 22.528 103.53 22.528ZM103.722 21.84C104.191 21.84 104.639 21.728 105.066 21.504C105.503 21.28 105.866 20.9973 106.154 20.656C106.442 20.3147 106.613 19.9627 106.666 19.6V16.864C106.506 16.4373 106.266 16.0587 105.946 15.728C105.626 15.3973 105.258 15.136 104.842 14.944C104.437 14.752 104.021 14.656 103.594 14.656C102.922 14.656 102.346 14.8373 101.866 15.2C101.397 15.5627 101.034 16.0213 100.778 16.576C100.533 17.1307 100.41 17.696 100.41 18.272C100.41 18.9013 100.554 19.488 100.842 20.032C101.141 20.576 101.541 21.0133 102.042 21.344C102.554 21.6747 103.114 21.84 103.722 21.84Z" fill="#061839"/>
</svg>
