<svg width="127" height="34" viewBox="0 0 127 34" fill="none" xmlns="http://www.w3.org/2000/svg">
<rect width="127" height="34" rx="15" fill="#F2F2F2"/>
<path d="M39.6921 19.456C39.6921 20.0107 39.5534 20.512 39.2761 20.96C38.9987 21.3974 38.6307 21.7494 38.1721 22.016C37.7134 22.272 37.2014 22.4 36.6361 22.4H31.3241V11.04H36.6201C37.1534 11.04 37.6121 11.184 37.9961 11.472C38.3907 11.7494 38.6894 12.112 38.8921 12.56C39.1054 12.9974 39.2121 13.456 39.2121 13.936C39.2121 14.5014 39.0681 15.0294 38.7801 15.52C38.4921 16 38.0921 16.352 37.5801 16.576C38.2307 16.768 38.7427 17.1307 39.1161 17.664C39.5001 18.1867 39.6921 18.784 39.6921 19.456ZM32.1401 11.776V16.32H36.3001C36.7161 16.32 37.0787 16.2134 37.3881 16C37.7081 15.776 37.9587 15.4934 38.1401 15.152C38.3214 14.8 38.4121 14.432 38.4121 14.048C38.4121 13.6427 38.3267 13.2694 38.1561 12.928C37.9854 12.576 37.7454 12.2987 37.4361 12.096C37.1374 11.8827 36.7907 11.776 36.3961 11.776H32.1401ZM38.8761 19.344C38.8761 18.9387 38.7801 18.56 38.5881 18.208C38.4067 17.856 38.1561 17.568 37.8361 17.344C37.5161 17.12 37.1534 17.008 36.7481 17.008H32.1401V21.664H36.6361C37.0521 21.664 37.4307 21.5574 37.7721 21.344C38.1134 21.12 38.3801 20.832 38.5721 20.48C38.7747 20.1174 38.8761 19.7387 38.8761 19.344ZM40.9898 20C40.9898 19.5094 41.1338 19.0774 41.4218 18.704C41.7205 18.3307 42.1311 18.0427 42.6538 17.84C43.1871 17.6267 43.7951 17.52 44.4778 17.52C44.9045 17.52 45.3471 17.5574 45.8058 17.632C46.2751 17.7067 46.6858 17.808 47.0378 17.936V17.152C47.0378 16.384 46.8138 15.7707 46.3658 15.312C45.9178 14.8534 45.3098 14.624 44.5418 14.624C44.1258 14.624 43.6938 14.7094 43.2458 14.88C42.7978 15.0507 42.3391 15.296 41.8698 15.616L41.5338 15.04C42.6218 14.304 43.6511 13.936 44.6218 13.936C45.6031 13.936 46.3818 14.2294 46.9578 14.816C47.5445 15.4027 47.8378 16.2027 47.8378 17.216V21.344C47.8378 21.6 47.9551 21.7334 48.1898 21.744V22.4C47.9871 22.4214 47.8538 22.4267 47.7898 22.416C47.5871 22.3947 47.4271 22.3094 47.3098 22.16C47.2031 22.0107 47.1445 21.856 47.1338 21.696V21.04C46.7498 21.52 46.2538 21.8934 45.6458 22.16C45.0485 22.4267 44.4191 22.56 43.7578 22.56C43.2351 22.56 42.7605 22.448 42.3338 22.224C41.9178 21.9894 41.5871 21.68 41.3418 21.296C41.1071 20.912 40.9898 20.48 40.9898 20ZM46.7178 20.688C46.9311 20.4214 47.0378 20.1707 47.0378 19.936V18.56C46.2698 18.2614 45.4431 18.112 44.5578 18.112C43.7151 18.112 43.0378 18.2827 42.5258 18.624C42.0138 18.9547 41.7578 19.3974 41.7578 19.952C41.7578 20.304 41.8485 20.6294 42.0298 20.928C42.2111 21.2267 42.4618 21.4667 42.7818 21.648C43.1125 21.8294 43.4911 21.92 43.9178 21.92C44.5151 21.92 45.0645 21.808 45.5658 21.584C46.0671 21.3494 46.4511 21.0507 46.7178 20.688ZM50.3356 10.72H51.1516V20.752C51.1516 21.136 51.2316 21.4027 51.3916 21.552C51.5516 21.6907 51.7596 21.76 52.0156 21.76C52.1862 21.76 52.3622 21.744 52.5436 21.712C52.7249 21.68 52.8849 21.6374 53.0236 21.584L53.1836 22.24C53.0022 22.304 52.7782 22.3627 52.5116 22.416C52.2449 22.4694 52.0156 22.496 51.8236 22.496C51.3756 22.496 51.0129 22.3627 50.7356 22.096C50.4689 21.8187 50.3356 21.4507 50.3356 20.992V10.72ZM57.0362 22.56C56.3748 22.56 55.7615 22.448 55.1962 22.224C54.6308 22 54.1348 21.6587 53.7082 21.2L54.0762 20.64C54.5242 21.0774 54.9828 21.3974 55.4522 21.6C55.9322 21.792 56.4495 21.888 57.0042 21.888C57.7082 21.888 58.2842 21.7387 58.7322 21.44C59.1802 21.1414 59.4042 20.7254 59.4042 20.192C59.4042 19.8294 59.2975 19.552 59.0842 19.36C58.8815 19.168 58.5828 19.008 58.1882 18.88C57.8042 18.752 57.3348 18.6187 56.7802 18.48C56.2148 18.3307 55.7402 18.176 55.3562 18.016C54.9722 17.856 54.6788 17.648 54.4762 17.392C54.2842 17.136 54.1882 16.7894 54.1882 16.352C54.1882 15.808 54.3215 15.36 54.5882 15.008C54.8655 14.6454 55.2335 14.3787 55.6922 14.208C56.1615 14.0267 56.6788 13.936 57.2442 13.936C57.8948 13.936 58.4602 14.0427 58.9402 14.256C59.4308 14.4694 59.8042 14.752 60.0602 15.104L59.6282 15.616C59.3722 15.2854 59.0255 15.0347 58.5882 14.864C58.1508 14.6934 57.6815 14.608 57.1802 14.608C56.7855 14.608 56.4175 14.6614 56.0762 14.768C55.7455 14.8747 55.4735 15.0507 55.2602 15.296C55.0575 15.5307 54.9562 15.8507 54.9562 16.256C54.9562 16.576 55.0308 16.8267 55.1802 17.008C55.3295 17.1894 55.5588 17.3387 55.8682 17.456C56.1775 17.5627 56.5668 17.68 57.0362 17.808C57.6868 17.968 58.2468 18.1334 58.7162 18.304C59.1855 18.4747 59.5482 18.6987 59.8042 18.976C60.0602 19.2427 60.1882 19.6214 60.1882 20.112C60.1882 20.8694 59.9002 21.4667 59.3242 21.904C58.7482 22.3414 57.9855 22.56 57.0362 22.56ZM61.3804 20C61.3804 19.5094 61.5244 19.0774 61.8124 18.704C62.1111 18.3307 62.5218 18.0427 63.0444 17.84C63.5778 17.6267 64.1858 17.52 64.8684 17.52C65.2951 17.52 65.7378 17.5574 66.1964 17.632C66.6658 17.7067 67.0764 17.808 67.4284 17.936V17.152C67.4284 16.384 67.2044 15.7707 66.7564 15.312C66.3084 14.8534 65.7004 14.624 64.9324 14.624C64.5164 14.624 64.0844 14.7094 63.6364 14.88C63.1884 15.0507 62.7298 15.296 62.2604 15.616L61.9244 15.04C63.0124 14.304 64.0418 13.936 65.0124 13.936C65.9938 13.936 66.7724 14.2294 67.3484 14.816C67.9351 15.4027 68.2284 16.2027 68.2284 17.216V21.344C68.2284 21.6 68.3458 21.7334 68.5804 21.744V22.4C68.3778 22.4214 68.2444 22.4267 68.1804 22.416C67.9778 22.3947 67.8178 22.3094 67.7004 22.16C67.5938 22.0107 67.5351 21.856 67.5244 21.696V21.04C67.1404 21.52 66.6444 21.8934 66.0364 22.16C65.4391 22.4267 64.8098 22.56 64.1484 22.56C63.6258 22.56 63.1511 22.448 62.7244 22.224C62.3084 21.9894 61.9778 21.68 61.7324 21.296C61.4978 20.912 61.3804 20.48 61.3804 20ZM67.1084 20.688C67.3218 20.4214 67.4284 20.1707 67.4284 19.936V18.56C66.6604 18.2614 65.8338 18.112 64.9484 18.112C64.1058 18.112 63.4284 18.2827 62.9164 18.624C62.4044 18.9547 62.1484 19.3974 62.1484 19.952C62.1484 20.304 62.2391 20.6294 62.4204 20.928C62.6018 21.2267 62.8524 21.4667 63.1724 21.648C63.5031 21.8294 63.8818 21.92 64.3084 21.92C64.9058 21.92 65.4551 21.808 65.9564 21.584C66.4578 21.3494 66.8418 21.0507 67.1084 20.688ZM82.8862 22.4H82.0862V17.76C82.0862 16.7147 81.9208 15.9414 81.5902 15.44C81.2702 14.928 80.7742 14.672 80.1022 14.672C79.4088 14.672 78.8008 14.9174 78.2782 15.408C77.7555 15.888 77.3875 16.5067 77.1742 17.264V22.4H76.3742V17.76C76.3742 16.6934 76.2142 15.9147 75.8942 15.424C75.5742 14.9227 75.0782 14.672 74.4062 14.672C73.7235 14.672 73.1155 14.912 72.5822 15.392C72.0595 15.8614 71.6862 16.48 71.4622 17.248V22.4H70.6622V14.08H71.4142V16.064C71.7555 15.392 72.2035 14.8694 72.7582 14.496C73.3235 14.1227 73.9368 13.936 74.5982 13.936C75.3022 13.936 75.8728 14.144 76.3102 14.56C76.7475 14.976 77.0088 15.52 77.0942 16.192C77.8835 14.688 78.9715 13.936 80.3582 13.936C81.2648 13.936 81.9102 14.2614 82.2942 14.912C82.6888 15.552 82.8862 16.4534 82.8862 17.616V22.4ZM85.3028 12.192V10.72H86.1028V12.192H85.3028ZM85.3028 22.4V14.08H86.1028V22.4H85.3028ZM91.8473 22.56C91.2713 22.56 90.7486 22.4427 90.2793 22.208C89.8206 21.9734 89.4206 21.6534 89.0793 21.248C88.7486 20.832 88.4926 20.368 88.3113 19.856C88.13 19.344 88.0393 18.8107 88.0393 18.256C88.0393 17.68 88.1406 17.136 88.3433 16.624C88.546 16.1014 88.8286 15.6374 89.1913 15.232C89.554 14.8267 89.9753 14.512 90.4553 14.288C90.946 14.0534 91.4686 13.936 92.0233 13.936C92.674 13.936 93.282 14.112 93.8473 14.464C94.4126 14.8054 94.8553 15.2374 95.1753 15.76V14.08H95.9113V25.808H95.1113V20.608C94.2366 21.9094 93.1486 22.56 91.8473 22.56ZM92.0553 21.84C92.7593 21.84 93.3673 21.6267 93.8793 21.2C94.402 20.7734 94.8126 20.272 95.1113 19.696V16.976C95.0473 16.5707 94.8606 16.192 94.5513 15.84C94.242 15.488 93.8686 15.2054 93.4313 14.992C93.0046 14.768 92.578 14.656 92.1513 14.656C91.5113 14.656 90.9406 14.832 90.4393 15.184C89.9486 15.536 89.5593 15.9894 89.2713 16.544C88.994 17.088 88.8553 17.664 88.8553 18.272C88.8553 18.9014 88.9886 19.488 89.2553 20.032C89.5326 20.576 89.9113 21.0134 90.3913 21.344C90.882 21.6747 91.4366 21.84 92.0553 21.84Z" fill="#061839"/>
</svg>
