<svg width="127" height="34" viewBox="0 0 127 34" fill="none" xmlns="http://www.w3.org/2000/svg">
<rect width="127" height="34" rx="15" fill="#F2F2F2"/>
<path d="M42.0662 22.4V11.04H49.4582V11.776H42.8822V16.288H48.4662V16.992H42.8822V22.4H42.0662ZM51.3262 12.192V10.72H52.1262V12.192H51.3262ZM51.3262 22.4V14.08H52.1262V22.4H51.3262ZM57.9987 22.528C57.4334 22.528 56.9107 22.4107 56.4307 22.176C55.9507 21.9414 55.5347 21.6214 55.1827 21.216C54.8307 20.8107 54.5534 20.352 54.3507 19.84C54.1587 19.328 54.0627 18.8 54.0627 18.256C54.0627 17.4987 54.2281 16.7947 54.5587 16.144C54.8894 15.4827 55.3427 14.9494 55.9187 14.544C56.5054 14.1387 57.1774 13.936 57.9347 13.936C58.6601 13.936 59.2894 14.128 59.8227 14.512C60.3667 14.8854 60.8254 15.344 61.1987 15.888V14.08H61.9347V22.56C61.9347 23.3174 61.7534 23.9467 61.3907 24.448C61.0281 24.9494 60.5481 25.328 59.9507 25.584C59.3534 25.84 58.7081 25.968 58.0147 25.968C57.0441 25.968 56.2707 25.792 55.6947 25.44C55.1294 25.088 54.6707 24.624 54.3187 24.048L54.8627 23.68C55.1934 24.2454 55.6414 24.656 56.2067 24.912C56.7721 25.1787 57.3747 25.312 58.0147 25.312C58.5801 25.312 59.0974 25.2054 59.5667 24.992C60.0467 24.7894 60.4254 24.4854 60.7027 24.08C60.9907 23.6747 61.1347 23.168 61.1347 22.56V20.736C60.8041 21.28 60.3507 21.7174 59.7747 22.048C59.2094 22.368 58.6174 22.528 57.9987 22.528ZM58.1907 21.84C58.6601 21.84 59.1081 21.728 59.5347 21.504C59.9721 21.28 60.3347 20.9974 60.6227 20.656C60.9107 20.3147 61.0814 19.9627 61.1347 19.6V16.864C60.9747 16.4374 60.7347 16.0587 60.4147 15.728C60.0947 15.3974 59.7267 15.136 59.3107 14.944C58.9054 14.752 58.4894 14.656 58.0627 14.656C57.3907 14.656 56.8147 14.8374 56.3347 15.2C55.8654 15.5627 55.5027 16.0214 55.2467 16.576C55.0014 17.1307 54.8787 17.696 54.8787 18.272C54.8787 18.9014 55.0227 19.488 55.3107 20.032C55.6094 20.576 56.0094 21.0134 56.5107 21.344C57.0227 21.6747 57.5827 21.84 58.1907 21.84ZM76.6596 22.4H75.8596V17.76C75.8596 16.7147 75.6943 15.9414 75.3636 15.44C75.0436 14.928 74.5476 14.672 73.8756 14.672C73.1823 14.672 72.5743 14.9174 72.0516 15.408C71.5289 15.888 71.1609 16.5067 70.9476 17.264V22.4H70.1476V17.76C70.1476 16.6934 69.9876 15.9147 69.6676 15.424C69.3476 14.9227 68.8516 14.672 68.1796 14.672C67.4969 14.672 66.8889 14.912 66.3556 15.392C65.8329 15.8614 65.4596 16.48 65.2356 17.248V22.4H64.4356V14.08H65.1876V16.064C65.5289 15.392 65.9769 14.8694 66.5316 14.496C67.0969 14.1227 67.7103 13.936 68.3716 13.936C69.0756 13.936 69.6463 14.144 70.0836 14.56C70.5209 14.976 70.7823 15.52 70.8676 16.192C71.6569 14.688 72.7449 13.936 74.1316 13.936C75.0383 13.936 75.6836 14.2614 76.0676 14.912C76.4623 15.552 76.6596 16.4534 76.6596 17.616V22.4ZM78.3882 20C78.3882 19.5094 78.5322 19.0774 78.8202 18.704C79.1189 18.3307 79.5296 18.0427 80.0522 17.84C80.5856 17.6267 81.1936 17.52 81.8762 17.52C82.3029 17.52 82.7456 17.5574 83.2042 17.632C83.6736 17.7067 84.0842 17.808 84.4362 17.936V17.152C84.4362 16.384 84.2122 15.7707 83.7642 15.312C83.3162 14.8534 82.7082 14.624 81.9402 14.624C81.5242 14.624 81.0922 14.7094 80.6442 14.88C80.1962 15.0507 79.7376 15.296 79.2682 15.616L78.9322 15.04C80.0202 14.304 81.0496 13.936 82.0202 13.936C83.0016 13.936 83.7802 14.2294 84.3562 14.816C84.9429 15.4027 85.2362 16.2027 85.2362 17.216V21.344C85.2362 21.6 85.3536 21.7334 85.5882 21.744V22.4C85.3856 22.4214 85.2522 22.4267 85.1882 22.416C84.9856 22.3947 84.8256 22.3094 84.7082 22.16C84.6016 22.0107 84.5429 21.856 84.5322 21.696V21.04C84.1482 21.52 83.6522 21.8934 83.0442 22.16C82.4469 22.4267 81.8176 22.56 81.1562 22.56C80.6336 22.56 80.1589 22.448 79.7322 22.224C79.3162 21.9894 78.9856 21.68 78.7402 21.296C78.5056 20.912 78.3882 20.48 78.3882 20ZM84.1162 20.688C84.3296 20.4214 84.4362 20.1707 84.4362 19.936V18.56C83.6682 18.2614 82.8416 18.112 81.9562 18.112C81.1136 18.112 80.4362 18.2827 79.9242 18.624C79.4122 18.9547 79.1562 19.3974 79.1562 19.952C79.1562 20.304 79.2469 20.6294 79.4282 20.928C79.6096 21.2267 79.8602 21.4667 80.1802 21.648C80.5109 21.8294 80.8896 21.92 81.3162 21.92C81.9136 21.92 82.4629 21.808 82.9642 21.584C83.4656 21.3494 83.8496 21.0507 84.1162 20.688Z" fill="#061839"/>
</svg>
