<svg width="127" height="34" viewBox="0 0 127 34" fill="none" xmlns="http://www.w3.org/2000/svg">
<rect width="127" height="34" rx="15" fill="#F2F2F2"/>
<path d="M46.7055 12.928C45.9588 12.1067 44.9188 11.696 43.5855 11.696C42.4762 11.696 41.6655 11.9094 41.1535 12.336C40.6522 12.752 40.4015 13.3174 40.4015 14.032C40.4015 14.512 40.5188 14.896 40.7535 15.184C40.9882 15.4614 41.3455 15.6854 41.8255 15.856C42.3162 16.0267 42.9508 16.192 43.7295 16.352C44.5508 16.5227 45.2602 16.7254 45.8575 16.96C46.4548 17.184 46.9135 17.4934 47.2335 17.888C47.5642 18.2827 47.7295 18.816 47.7295 19.488C47.7295 20.4907 47.3562 21.2427 46.6095 21.744C45.8628 22.2454 44.8815 22.496 43.6655 22.496C41.9055 22.496 40.4068 21.9307 39.1695 20.8L39.6015 20.144C40.0708 20.6347 40.6522 21.0294 41.3455 21.328C42.0495 21.6267 42.8335 21.776 43.6975 21.776C44.6788 21.776 45.4522 21.5947 46.0175 21.232C46.5828 20.8587 46.8655 20.3094 46.8655 19.584C46.8655 19.0827 46.7322 18.6774 46.4655 18.368C46.2095 18.0587 45.8148 17.808 45.2815 17.616C44.7588 17.4134 44.0975 17.2267 43.2975 17.056C42.4975 16.8854 41.8202 16.6934 41.2655 16.48C40.7108 16.2667 40.2895 15.9787 40.0015 15.616C39.7135 15.2534 39.5695 14.7627 39.5695 14.144C39.5695 13.4614 39.7348 12.8854 40.0655 12.416C40.4068 11.936 40.8762 11.5734 41.4735 11.328C42.0815 11.0827 42.7855 10.96 43.5855 10.96C44.3215 10.96 44.9775 11.072 45.5535 11.296C46.1295 11.5094 46.6522 11.84 47.1215 12.288L46.7055 12.928ZM55.561 22.4L52.313 17.952L50.345 19.76V22.4H49.545V10.72H50.345V18.864L55.417 14.096H56.329L52.857 17.472L56.441 22.4H55.561ZM61.0029 22.56C60.2242 22.56 59.5202 22.3627 58.8909 21.968C58.2722 21.5734 57.7815 21.0454 57.4189 20.384C57.0669 19.7227 56.8909 18.9974 56.8909 18.208C56.8909 17.4294 57.0669 16.72 57.4189 16.08C57.7709 15.4294 58.2562 14.912 58.8749 14.528C59.4935 14.1334 60.1869 13.936 60.9549 13.936C61.7442 13.936 62.4429 14.1334 63.0509 14.528C63.6695 14.912 64.1549 15.4294 64.5069 16.08C64.8589 16.7307 65.0349 17.44 65.0349 18.208C65.0349 18.336 65.0295 18.4534 65.0189 18.56H57.7229C57.7655 19.2 57.9415 19.776 58.2509 20.288C58.5602 20.7894 58.9549 21.1894 59.4349 21.488C59.9255 21.776 60.4589 21.92 61.0349 21.92C61.6109 21.92 62.1549 21.7707 62.6669 21.472C63.1789 21.1734 63.5362 20.7894 63.7389 20.32L64.4429 20.512C64.2829 20.9067 64.0269 21.2587 63.6749 21.568C63.3335 21.8774 62.9282 22.1227 62.4589 22.304C62.0002 22.4747 61.5149 22.56 61.0029 22.56ZM57.6909 17.936H64.2669C64.2242 17.2854 64.0482 16.7094 63.7389 16.208C63.4402 15.696 63.0509 15.3014 62.5709 15.024C62.0909 14.736 61.5575 14.592 60.9709 14.592C60.3842 14.592 59.8509 14.736 59.3709 15.024C58.8909 15.312 58.5015 15.712 58.2029 16.224C57.9042 16.7254 57.7335 17.296 57.6909 17.936ZM70.4445 22C70.3698 22.0427 70.1725 22.1387 69.8525 22.288C69.5325 22.4267 69.1485 22.496 68.7005 22.496C68.2632 22.496 67.8792 22.368 67.5485 22.112C67.2285 21.856 67.0685 21.488 67.0685 21.008V14.736H65.9005V14.08H67.0685V11.232H67.8685V14.08H69.8045V14.736H67.8685V20.816C67.8898 21.1254 68.0018 21.36 68.2045 21.52C68.4072 21.6694 68.6418 21.744 68.9085 21.744C69.2392 21.744 69.5272 21.6907 69.7725 21.584C70.0178 21.4667 70.1618 21.392 70.2045 21.36L70.4445 22ZM75.2372 22.56C74.4586 22.56 73.7599 22.3627 73.1412 21.968C72.5226 21.5734 72.0319 21.0454 71.6692 20.384C71.3066 19.7227 71.1252 18.9974 71.1252 18.208C71.1252 17.4187 71.3012 16.704 71.6532 16.064C72.0052 15.4134 72.4906 14.896 73.1092 14.512C73.7279 14.128 74.4319 13.936 75.2212 13.936C75.9786 13.936 76.6452 14.112 77.2212 14.464C77.7972 14.8054 78.2292 15.2747 78.5172 15.872L77.7332 16.128C77.4879 15.6694 77.1359 15.312 76.6772 15.056C76.2292 14.7894 75.7332 14.656 75.1892 14.656C74.5812 14.656 74.0319 14.816 73.5412 15.136C73.0506 15.4454 72.6559 15.8667 72.3572 16.4C72.0692 16.9334 71.9252 17.536 71.9252 18.208C71.9252 18.88 72.0746 19.4934 72.3732 20.048C72.6719 20.592 73.0666 21.0294 73.5572 21.36C74.0586 21.68 74.6079 21.84 75.2052 21.84C75.5892 21.84 75.9626 21.7707 76.3252 21.632C76.6986 21.4827 77.0186 21.2907 77.2852 21.056C77.5626 20.8214 77.7439 20.5707 77.8292 20.304L78.6132 20.528C78.4746 20.9227 78.2346 21.2747 77.8932 21.584C77.5626 21.8827 77.1679 22.1227 76.7092 22.304C76.2506 22.4747 75.7599 22.56 75.2372 22.56ZM87.22 22.4H86.42V17.76C86.42 15.7014 85.732 14.672 84.356 14.672C83.908 14.672 83.4707 14.784 83.044 15.008C82.6173 15.232 82.2387 15.5414 81.908 15.936C81.588 16.32 81.3587 16.7574 81.22 17.248V22.4H80.42V10.72H81.22V16.064C81.5613 15.4134 82.036 14.896 82.644 14.512C83.252 14.128 83.8973 13.936 84.58 13.936C85.508 13.936 86.18 14.2667 86.596 14.928C87.012 15.5787 87.22 16.4747 87.22 17.616V22.4Z" fill="#061839"/>
</svg>
