<svg width="127" height="34" viewBox="0 0 127 34" fill="none" xmlns="http://www.w3.org/2000/svg">
<rect width="127" height="34" rx="15" fill="#F2F2F2"/>
<path d="M22.8454 22.48C21.9387 22.48 21.1814 22.32 20.5734 22C19.9654 21.68 19.48 21.248 19.1174 20.704C18.7547 20.1494 18.4934 19.5307 18.3334 18.848C18.1734 18.1654 18.0934 17.4667 18.0934 16.752V11.04H18.9094V16.752C18.9094 17.3814 18.9734 17.9947 19.1014 18.592C19.2294 19.1787 19.4374 19.712 19.7254 20.192C20.024 20.6614 20.424 21.0347 20.9254 21.312C21.4374 21.5894 22.072 21.728 22.8294 21.728C23.5974 21.728 24.232 21.5894 24.7334 21.312C25.2454 21.024 25.6454 20.64 25.9334 20.16C26.232 19.68 26.44 19.1467 26.5574 18.56C26.6854 17.9627 26.7494 17.36 26.7494 16.752V11.04H27.5654V16.752C27.5654 17.5094 27.48 18.2347 27.3094 18.928C27.1494 19.6107 26.8827 20.2187 26.5094 20.752C26.136 21.2854 25.6454 21.7067 25.0374 22.016C24.44 22.3254 23.7094 22.48 22.8454 22.48ZM32.5596 22.56C31.8983 22.56 31.2849 22.448 30.7196 22.224C30.1543 22 29.6583 21.6587 29.2316 21.2L29.5996 20.64C30.0476 21.0774 30.5063 21.3974 30.9756 21.6C31.4556 21.792 31.9729 21.888 32.5276 21.888C33.2316 21.888 33.8076 21.7387 34.2556 21.44C34.7036 21.1414 34.9276 20.7254 34.9276 20.192C34.9276 19.8294 34.8209 19.552 34.6076 19.36C34.4049 19.168 34.1063 19.008 33.7116 18.88C33.3276 18.752 32.8583 18.6187 32.3036 18.48C31.7383 18.3307 31.2636 18.176 30.8796 18.016C30.4956 17.856 30.2023 17.648 29.9996 17.392C29.8076 17.136 29.7116 16.7894 29.7116 16.352C29.7116 15.808 29.8449 15.36 30.1116 15.008C30.3889 14.6454 30.7569 14.3787 31.2156 14.208C31.6849 14.0267 32.2023 13.936 32.7676 13.936C33.4183 13.936 33.9836 14.0427 34.4636 14.256C34.9543 14.4694 35.3276 14.752 35.5836 15.104L35.1516 15.616C34.8956 15.2854 34.5489 15.0347 34.1116 14.864C33.6743 14.6934 33.2049 14.608 32.7036 14.608C32.3089 14.608 31.9409 14.6614 31.5996 14.768C31.2689 14.8747 30.9969 15.0507 30.7836 15.296C30.5809 15.5307 30.4796 15.8507 30.4796 16.256C30.4796 16.576 30.5543 16.8267 30.7036 17.008C30.8529 17.1894 31.0823 17.3387 31.3916 17.456C31.7009 17.5627 32.0903 17.68 32.5596 17.808C33.2103 17.968 33.7703 18.1334 34.2396 18.304C34.7089 18.4747 35.0716 18.6987 35.3276 18.976C35.5836 19.2427 35.7116 19.6214 35.7116 20.112C35.7116 20.8694 35.4236 21.4667 34.8476 21.904C34.2716 22.3414 33.5089 22.56 32.5596 22.56ZM36.9039 20C36.9039 19.5094 37.0479 19.0774 37.3359 18.704C37.6345 18.3307 38.0452 18.0427 38.5679 17.84C39.1012 17.6267 39.7092 17.52 40.3919 17.52C40.8185 17.52 41.2612 17.5574 41.7199 17.632C42.1892 17.7067 42.5999 17.808 42.9519 17.936V17.152C42.9519 16.384 42.7279 15.7707 42.2799 15.312C41.8319 14.8534 41.2239 14.624 40.4559 14.624C40.0399 14.624 39.6079 14.7094 39.1599 14.88C38.7119 15.0507 38.2532 15.296 37.7839 15.616L37.4479 15.04C38.5359 14.304 39.5652 13.936 40.5359 13.936C41.5172 13.936 42.2959 14.2294 42.8719 14.816C43.4585 15.4027 43.7519 16.2027 43.7519 17.216V21.344C43.7519 21.6 43.8692 21.7334 44.1039 21.744V22.4C43.9012 22.4214 43.7679 22.4267 43.7039 22.416C43.5012 22.3947 43.3412 22.3094 43.2239 22.16C43.1172 22.0107 43.0585 21.856 43.0479 21.696V21.04C42.6639 21.52 42.1679 21.8934 41.5599 22.16C40.9625 22.4267 40.3332 22.56 39.6719 22.56C39.1492 22.56 38.6745 22.448 38.2479 22.224C37.8319 21.9894 37.5012 21.68 37.2559 21.296C37.0212 20.912 36.9039 20.48 36.9039 20ZM42.6319 20.688C42.8452 20.4214 42.9519 20.1707 42.9519 19.936V18.56C42.1839 18.2614 41.3572 18.112 40.4719 18.112C39.6292 18.112 38.9519 18.2827 38.4399 18.624C37.9279 18.9547 37.6719 19.3974 37.6719 19.952C37.6719 20.304 37.7625 20.6294 37.9439 20.928C38.1252 21.2267 38.3759 21.4667 38.6959 21.648C39.0265 21.8294 39.4052 21.92 39.8319 21.92C40.4292 21.92 40.9785 21.808 41.4799 21.584C41.9812 21.3494 42.3652 21.0507 42.6319 20.688ZM50.0736 22.56C49.4229 22.56 48.8149 22.3894 48.2496 22.048C47.6843 21.696 47.2416 21.2587 46.9216 20.736V22.4H46.1856V10.72H46.9856V15.888C47.3803 15.312 47.8443 14.8427 48.3776 14.48C48.9216 14.1174 49.5456 13.936 50.2496 13.936C50.8363 13.936 51.3643 14.0587 51.8336 14.304C52.3029 14.5494 52.7029 14.88 53.0336 15.296C53.3643 15.712 53.6149 16.1814 53.7856 16.704C53.9669 17.216 54.0576 17.7387 54.0576 18.272C54.0576 18.8374 53.9563 19.3814 53.7536 19.904C53.5509 20.416 53.2683 20.8747 52.9056 21.28C52.5429 21.6747 52.1216 21.9894 51.6416 22.224C51.1616 22.448 50.6389 22.56 50.0736 22.56ZM49.9136 21.84C50.5643 21.84 51.1403 21.6694 51.6416 21.328C52.1429 20.976 52.5323 20.528 52.8096 19.984C53.0976 19.44 53.2416 18.8694 53.2416 18.272C53.2416 17.6427 53.1083 17.056 52.8416 16.512C52.5749 15.9574 52.2016 15.5094 51.7216 15.168C51.2416 14.8267 50.6869 14.656 50.0576 14.656C49.5883 14.656 49.1563 14.7627 48.7616 14.976C48.3669 15.1787 48.0203 15.4507 47.7216 15.792C47.4229 16.1227 47.1776 16.48 46.9856 16.864V19.616C47.0176 19.9254 47.1296 20.2134 47.3216 20.48C47.5243 20.7467 47.7696 20.9867 48.0576 21.2C48.3563 21.4027 48.6656 21.5627 48.9856 21.68C49.3163 21.7867 49.6256 21.84 49.9136 21.84ZM55.9825 12.192V10.72H56.7825V12.192H55.9825ZM55.9825 22.4V14.08H56.7825V22.4H55.9825ZM59.359 10.72H60.175V20.752C60.175 21.136 60.255 21.4027 60.415 21.552C60.575 21.6907 60.783 21.76 61.039 21.76C61.2097 21.76 61.3857 21.744 61.567 21.712C61.7483 21.68 61.9083 21.6374 62.047 21.584L62.207 22.24C62.0257 22.304 61.8017 22.3627 61.535 22.416C61.2683 22.4694 61.039 22.496 60.847 22.496C60.399 22.496 60.0363 22.3627 59.759 22.096C59.4923 21.8187 59.359 21.4507 59.359 20.992V10.72ZM63.4356 12.192V10.72H64.2356V12.192H63.4356ZM63.4356 22.4V14.08H64.2356V22.4H63.4356ZM70.4601 22C70.3854 22.0427 70.1881 22.1387 69.8681 22.288C69.5481 22.4267 69.1641 22.496 68.7161 22.496C68.2788 22.496 67.8948 22.368 67.5641 22.112C67.2441 21.856 67.0841 21.488 67.0841 21.008V14.736H65.9161V14.08H67.0841V11.232H67.8841V14.08H69.8201V14.736H67.8841V20.816C67.9054 21.1254 68.0174 21.36 68.2201 21.52C68.4228 21.6694 68.6574 21.744 68.9241 21.744C69.2548 21.744 69.5428 21.6907 69.7881 21.584C70.0334 21.4667 70.1774 21.392 70.2201 21.36L70.4601 22ZM72.4331 25.216C72.6038 25.2267 72.7531 25.2267 72.8811 25.216C73.0198 25.216 73.1211 25.1947 73.1851 25.152C73.2811 25.1307 73.3771 25.0454 73.4731 24.896C73.5691 24.7574 73.7024 24.496 73.8731 24.112C74.0544 23.728 74.2998 23.1574 74.6091 22.4L70.8971 14.08H71.7451L75.0411 21.552L78.0971 14.08H78.9131L74.3531 25.024C74.2571 25.2694 74.1078 25.4774 73.9051 25.648C73.7024 25.8187 73.4358 25.9147 73.1051 25.936C73.0091 25.9467 72.9024 25.952 72.7851 25.952C72.6784 25.9627 72.5611 25.9627 72.4331 25.952V25.216ZM89.5537 11.04V22.4H88.7377V16.96H81.5697V22.4H80.7537V11.04H81.5697V16.224H88.7377V11.04H89.5537ZM92.1994 18.88V14.08H92.9994V18.768C92.9994 20.816 93.698 21.84 95.0954 21.84C95.5647 21.84 96.0127 21.7387 96.4394 21.536C96.8767 21.3227 97.2554 21.0294 97.5754 20.656C97.906 20.272 98.1567 19.8294 98.3274 19.328V14.08H99.1274V21.344C99.1274 21.6 99.2394 21.7334 99.4634 21.744V22.4C99.282 22.4214 99.1487 22.4214 99.0634 22.4C98.882 22.3787 98.7327 22.304 98.6154 22.176C98.498 22.0374 98.434 21.872 98.4234 21.68L98.4074 20.432C98.0447 21.0934 97.5434 21.616 96.9034 22C96.274 22.3734 95.5914 22.56 94.8554 22.56C93.0847 22.56 92.1994 21.3334 92.1994 18.88ZM105.558 22.56C104.907 22.56 104.299 22.3894 103.734 22.048C103.169 21.696 102.726 21.2587 102.406 20.736V22.4H101.67V10.72H102.47V15.888C102.865 15.312 103.329 14.8427 103.862 14.48C104.406 14.1174 105.03 13.936 105.734 13.936C106.321 13.936 106.849 14.0587 107.318 14.304C107.787 14.5494 108.187 14.88 108.518 15.296C108.849 15.712 109.099 16.1814 109.27 16.704C109.451 17.216 109.542 17.7387 109.542 18.272C109.542 18.8374 109.441 19.3814 109.238 19.904C109.035 20.416 108.753 20.8747 108.39 21.28C108.027 21.6747 107.606 21.9894 107.126 22.224C106.646 22.448 106.123 22.56 105.558 22.56ZM105.398 21.84C106.049 21.84 106.625 21.6694 107.126 21.328C107.627 20.976 108.017 20.528 108.294 19.984C108.582 19.44 108.726 18.8694 108.726 18.272C108.726 17.6427 108.593 17.056 108.326 16.512C108.059 15.9574 107.686 15.5094 107.206 15.168C106.726 14.8267 106.171 14.656 105.542 14.656C105.073 14.656 104.641 14.7627 104.246 14.976C103.851 15.1787 103.505 15.4507 103.206 15.792C102.907 16.1227 102.662 16.48 102.47 16.864V19.616C102.502 19.9254 102.614 20.2134 102.806 20.48C103.009 20.7467 103.254 20.9867 103.542 21.2C103.841 21.4027 104.15 21.5627 104.47 21.68C104.801 21.7867 105.11 21.84 105.398 21.84Z" fill="#061839"/>
</svg>
