<svg width="76" height="76" viewBox="0 0 76 76" fill="none" xmlns="http://www.w3.org/2000/svg">
<circle cx="38" cy="38" r="38" fill="black"/>
<path d="M20.046 36.2569C19.7244 36.9193 19.5576 37.646 19.5581 38.3823L19.7395 49.7798L15.7868 58.2623C15.6437 58.5263 15.548 58.8132 15.5039 59.1102C15.453 59.4436 15.4684 59.7838 15.5494 60.1112C15.6304 60.4386 15.7753 60.7468 15.9758 61.018C16.1763 61.2893 16.4284 61.5182 16.7176 61.6917C17.0068 61.8652 17.3275 61.9798 17.6612 62.0289C18.181 62.1086 18.7127 62.0263 19.1842 61.7932C19.6556 61.5601 20.0438 61.1875 20.296 60.7261L24.6444 51.4539C24.7347 51.2387 24.8155 51.0121 24.8484 50.764L24.8719 50.4143L24.8381 43.368L31.5205 46.2745L32.5997 53.161C32.7117 53.667 32.9747 54.1272 33.3539 54.4807C33.733 54.8341 34.2104 55.0642 34.7231 55.1406C35.396 55.24 36.0808 55.0702 36.6294 54.6682C37.178 54.2662 37.5461 53.6642 37.654 52.9927C37.6869 52.7549 37.6869 52.5171 37.6644 52.2915L36.3474 43.9781C36.2683 43.5792 36.0966 43.2046 35.8461 42.8842C35.5957 42.5639 35.2735 42.3068 34.9055 42.1338L28.9327 39.4905L32.736 32.8974L34.6225 35.284C34.8152 35.4984 35.0653 35.6798 35.3482 35.7926L42.5373 37.8841C43.0023 37.9856 43.4882 37.9201 43.9097 37.699C44.3312 37.478 44.6614 37.1155 44.8422 36.6752C44.9424 36.4292 44.9931 36.1659 44.9914 35.9003C44.9897 35.6347 44.9356 35.372 44.8324 35.1273C44.7291 34.8826 44.5786 34.6607 44.3895 34.4742C44.2004 34.2877 43.9763 34.1403 43.7302 34.0404L43.6277 34.0066L37.3814 32.1745L32.6796 26.5543C31.954 25.7804 30.9911 25.2706 29.9432 25.1057C29.0384 24.9708 28.1139 25.1034 27.2835 25.4872C26.4531 25.871 25.7531 26.4893 25.2695 27.2658L20.046 36.2569ZM40.6686 52.5979L40.2146 56.0129L27.848 59.0087L27.9673 61.1199H58.1282C58.3812 61.1211 58.632 61.0722 58.8661 60.9762C59.1003 60.8803 59.3131 60.739 59.4926 60.5606C59.672 60.3822 59.8145 60.1702 59.9119 59.9366C60.0092 59.703 60.0595 59.4526 60.0599 59.1995L60.026 18.7147L55.8938 17.754L53.5194 28.3976L49.5497 30.0595L46.0294 39.8741L49.374 47.3837L48.4321 50.2667L40.6686 52.5979ZM32.2716 24.6075C34.3951 24.6075 36.1209 22.8892 36.1209 20.7742C36.12 18.6601 34.3951 16.9399 32.2716 16.9399C30.1481 16.9399 28.4214 18.6601 28.4214 20.7742C28.4204 22.8892 30.1472 24.6075 32.2716 24.6075ZM24.6115 25.2072C24.6832 25.0825 24.7295 24.9448 24.7478 24.8021C24.766 24.6594 24.7559 24.5145 24.7178 24.3758C24.6798 24.237 24.6147 24.1071 24.5263 23.9937C24.4379 23.8802 24.3279 23.7853 24.2026 23.7145L22.3396 22.6288C22.0848 22.4845 21.7835 22.4463 21.5008 22.5225C21.2181 22.5987 20.9768 22.7831 20.829 23.0358L15.0837 32.9096C15.0123 33.0344 14.9663 33.172 14.9482 33.3146C14.9301 33.4572 14.9402 33.6019 14.9781 33.7406C15.016 33.8792 15.0809 34.009 15.169 34.1226C15.2571 34.2361 15.3668 34.3312 15.4917 34.4023L17.366 35.4777C17.6175 35.623 17.9163 35.6629 18.1971 35.5885C18.4778 35.5142 18.7178 35.3317 18.8644 35.081L24.6115 25.2072Z" fill="white"/>
</svg>
