<svg width="76" height="76" viewBox="0 0 76 76" fill="none" xmlns="http://www.w3.org/2000/svg">
<circle cx="38" cy="38" r="38" fill="black"/>
<path d="M25.7501 51.2083C30.0763 51.2083 33.5834 47.7012 33.5834 43.375C33.5834 39.0487 30.0763 35.5416 25.7501 35.5416C21.4239 35.5416 17.9167 39.0487 17.9167 43.375C17.9167 47.7012 21.4239 51.2083 25.7501 51.2083Z" stroke="white" stroke-width="2" stroke-linecap="round" stroke-linejoin="round"/>
<path d="M49.2501 51.2083C53.5763 51.2083 57.0834 47.7012 57.0834 43.375C57.0834 39.0487 53.5763 35.5416 49.2501 35.5416C44.9239 35.5416 41.4167 39.0487 41.4167 43.375C41.4167 47.7012 44.9239 51.2083 49.2501 51.2083Z" stroke="white" stroke-width="2" stroke-linecap="round" stroke-linejoin="round"/>
<path d="M25.75 43.375L29.6667 29.6666H44.3542" stroke="white" stroke-width="2" stroke-linecap="round" stroke-linejoin="round"/>
<path d="M25.75 23.7916H31.625" stroke="white" stroke-width="2" stroke-linecap="round" stroke-linejoin="round"/>
<path d="M49.25 43.375L43.375 23.7916H51.2083" stroke="white" stroke-width="2" stroke-linecap="round" stroke-linejoin="round"/>
<path d="M51.2085 23.7916H52.1877C52.9667 23.7916 53.7139 24.1011 54.2648 24.652C54.8157 25.2029 55.1252 25.9501 55.1252 26.7291C55.1252 27.5082 54.8157 28.2554 54.2648 28.8063C53.7139 29.3571 52.9667 29.6666 52.1877 29.6666H51.2085" stroke="white" stroke-width="2" stroke-linecap="round" stroke-linejoin="round"/>
</svg>
