<svg width="76" height="76" viewBox="0 0 76 76" fill="none" xmlns="http://www.w3.org/2000/svg">
<circle cx="38" cy="38" r="38" fill="black"/>
<path d="M51.3472 23.6527C49.5346 21.8256 47.3775 20.3764 45.0009 19.3888C42.6243 18.4011 40.0754 17.8948 37.5018 17.8991C34.9276 17.895 32.3782 18.4015 30.001 19.3891C27.6238 20.3766 25.466 21.8258 23.6524 23.6527C16.0169 31.2862 16.0169 43.7119 23.6524 51.3474C25.466 53.1748 27.6241 54.6242 30.0017 55.6118C32.3793 56.5995 34.9292 57.1056 37.5037 57.101C40.0772 57.1055 42.626 56.5995 45.0026 55.6122C47.3792 54.6249 49.5364 53.176 51.3491 51.3494C58.9847 43.7158 58.9847 31.2902 51.3472 23.6527ZM37.8543 21.8334H37.1512C37.2707 21.8314 37.3843 21.8157 37.5037 21.8157C37.6232 21.8157 37.7348 21.8314 37.8543 21.8334ZM49.7257 47.2917H45.3331L42.8696 52.2189C41.151 52.8538 39.3339 53.1806 37.5018 53.1843C35.6663 53.181 33.8458 52.8535 32.1242 52.2169L29.6665 47.3113H25.2896C23.6748 45.3038 22.5828 42.9273 22.1112 40.3944L25.7498 35.5417L23.3685 30.7771C24.1283 29.1606 25.1611 27.6873 26.4215 26.4217C28.1856 24.6515 30.3478 23.3294 32.7274 22.5658L37.4998 25.75L42.2742 22.5677C44.6531 23.3319 46.8151 24.6532 48.5801 26.4217C49.8391 27.6858 50.8712 29.1571 51.6311 30.7712L49.2498 35.5417L52.8884 40.3944C52.419 42.9191 51.3325 45.2885 49.7257 47.2917Z" fill="white"/>
<path d="M30.6458 35.5417L33.5833 43.375H41.4166L44.3541 35.5417L37.4999 30.6459L30.6458 35.5417Z" fill="white"/>
</svg>
