<svg width="76" height="76" viewBox="0 0 76 76" fill="none" xmlns="http://www.w3.org/2000/svg">
<circle cx="38" cy="38" r="38" fill="black"/>
<path d="M52.5479 25.3994L34.9229 18.9918C34.3313 18.7755 33.6962 18.7053 33.0717 18.787C32.4471 18.8687 31.8515 19.1001 31.3355 19.4613C30.8195 19.8226 30.3983 20.303 30.1078 20.8619C29.8173 21.4208 29.666 22.0416 29.6667 22.6715V34.6741C28.4817 33.968 27.1295 33.5914 25.7501 33.5833C21.43 33.5833 17.9167 37.0966 17.9167 41.4166C17.9167 45.7367 21.43 49.25 25.7501 49.25C30.0702 49.25 33.5834 45.7367 33.5834 41.4166V22.6715L51.2084 29.0791V42.5055C50.0228 41.8009 48.6709 41.425 47.2917 41.4166C42.9717 41.4166 39.4584 44.9299 39.4584 49.25C39.4584 53.5701 42.9717 57.0833 47.2917 57.0833C51.6118 57.0833 55.1251 53.5701 55.1251 49.25V29.0791C55.1251 27.4381 54.0891 25.9576 52.5479 25.3994ZM25.7501 45.3333C23.59 45.3333 21.8334 43.5767 21.8334 41.4166C21.8334 39.2566 23.59 37.5 25.7501 37.5C27.9101 37.5 29.6667 39.2566 29.6667 41.4166C29.6667 43.5767 27.9101 45.3333 25.7501 45.3333ZM47.2917 53.1666C45.1317 53.1666 43.3751 51.41 43.3751 49.25C43.3751 47.0899 45.1317 45.3333 47.2917 45.3333C49.4518 45.3333 51.2084 47.0899 51.2084 49.25C51.2084 51.41 49.4518 53.1666 47.2917 53.1666Z" fill="white"/>
</svg>
