<svg width="76" height="76" viewBox="0 0 76 76" fill="none" xmlns="http://www.w3.org/2000/svg">
<circle cx="38" cy="38" r="38" fill="black"/>
<path d="M41.4165 19.875C41.4165 17.7209 43.179 15.9584 45.3332 15.9584C47.4874 15.9584 49.2499 17.7209 49.2499 19.875C49.2499 22.0292 47.4874 23.7917 45.3332 23.7917C43.179 23.7917 41.4165 22.0292 41.4165 19.875ZM26.4353 32.663C27.3557 33.2309 28.5699 32.9567 29.1378 32.0363L31.8207 27.7084H36.4228L31.5074 35.5221C30.959 36.4034 30.7828 37.4805 31.0178 38.4988L32.604 45.3334L25.7499 49.9355L24.8294 49.7396C22.9494 49.348 21.4807 48.075 20.7169 46.4692C20.6251 46.2645 20.4871 46.0837 20.3139 45.941C20.1406 45.7983 19.9368 45.6976 19.7182 45.6467C18.8761 45.4705 18.1124 46.0384 17.9557 46.7825C17.8774 47.0567 17.9165 47.3896 18.0536 47.6834C19.1894 50.1117 21.4024 51.9917 24.2224 52.5988L48.9561 57.8667C51.7761 58.4738 54.5569 57.6513 56.5936 55.8888C56.8482 55.6734 57.0049 55.3796 57.0636 55.0859C57.2203 54.3417 56.7503 53.5192 55.9082 53.343C55.6877 53.2985 55.46 53.3054 55.2427 53.3632C55.0253 53.4209 54.8242 53.5279 54.6549 53.6759C53.3036 54.8509 51.4432 55.3992 49.5632 54.988L47.2915 54.518L45.5682 43.8842C45.4115 42.9246 44.9024 42.063 44.1582 41.4559L38.8315 37.1671L42.3565 31.5075C43.3032 33.0223 44.5578 34.3212 46.0388 35.3198C47.5199 36.3185 49.1944 36.9945 50.9536 37.3042C52.1286 37.5196 53.1665 36.5405 53.1665 35.3459C53.1665 34.4059 52.4811 33.603 51.5411 33.4267C50.1231 33.1594 48.7924 32.5483 47.6657 31.6469C46.539 30.7455 45.6506 29.5814 45.0786 28.2567L44.0603 25.8871C43.6882 25.045 42.6111 23.7917 40.829 23.7917H31.8403C30.489 23.7917 29.2357 24.4967 28.5111 25.6325L25.8086 29.9605C25.2407 30.8809 25.5149 32.095 26.4353 32.663ZM31.0961 51.0713L35.5024 48.1142C36.4228 47.4875 36.9319 46.3909 36.7753 45.2942L36.1486 40.5942L41.7103 44.55L43.179 53.6367L31.0961 51.0713Z" fill="white"/>
</svg>
