<svg width="76" height="76" viewBox="0 0 76 76" fill="none" xmlns="http://www.w3.org/2000/svg">
<circle cx="38" cy="38" r="38" fill="black"/>
<path d="M47.2917 16.9375C45.1376 16.9375 43.3751 18.7 43.3751 20.8542C43.3751 23.0083 45.1376 24.7708 47.2917 24.7708C49.4459 24.7708 51.2084 23.0083 51.2084 20.8542C51.2084 18.7 49.4459 16.9375 47.2917 16.9375ZM57.0834 57.0833C57.0834 58.1604 56.2022 59.0417 55.1251 59.0417C53.108 59.0417 51.1105 58.5521 49.2501 57.5729C47.4126 58.5555 45.3581 59.0614 43.2745 59.0443C41.1909 59.0272 39.1449 58.4876 37.3238 57.475C33.8184 59.1788 29.6472 59.3942 26.3963 57.2008C24.3792 58.4346 22.1272 59.0417 19.8751 59.0417C18.798 59.0417 17.9167 58.1604 17.9167 57.0833C17.9167 56.0063 18.798 55.125 19.8751 55.125C21.5788 55.125 23.263 54.655 24.8297 53.7542C25.3976 53.4408 26.1026 53.4212 26.6705 53.7542C29.7842 55.5167 33.4855 55.5167 36.5797 53.7542C36.8619 53.5999 37.1784 53.5191 37.5001 53.5191C37.8217 53.5191 38.1382 53.5999 38.4205 53.7542C41.5342 55.5167 45.2355 55.5167 48.3297 53.7542C48.6119 53.5999 48.9284 53.5191 49.2501 53.5191C49.5717 53.5191 49.8882 53.5999 50.1705 53.7542C51.7372 54.655 53.4213 55.125 55.1251 55.125C56.2022 55.125 57.0834 56.0063 57.0834 57.0833ZM29.7451 50.9342C30.3522 51.1104 30.9788 51.2083 31.6251 51.2083C33.3876 51.2083 34.9934 50.4837 36.3055 49.4263C36.9909 48.8779 38.0092 48.8779 38.6947 49.4263C40.0067 50.4837 41.6126 51.2083 43.3751 51.2083C45.1376 51.2083 46.7434 50.4837 48.0555 49.4263C48.1142 49.3675 48.1926 49.3283 48.2709 49.2892C47.3701 48.5254 46.3713 47.7421 45.3334 46.9979V41.3775C45.3334 40.1829 44.7851 39.0471 43.8255 38.3029L37.833 33.5833L42.2392 30.6067C43.2514 32.3707 44.6424 33.8883 46.3119 35.0498C47.9815 36.2114 49.8879 36.988 51.8938 37.3237C53.0688 37.5196 54.1263 36.56 54.1263 35.3654C54.1263 34.4058 53.4213 33.6029 52.4813 33.4463C51.0503 33.2024 49.6914 32.6437 48.5027 31.8106C47.3139 30.9774 46.3251 29.8906 45.6076 28.6287L43.8842 25.5933C43.3163 24.575 42.3763 24.0267 41.4951 23.8504L32.2322 22.1271C31.2138 21.9313 30.1563 22.1662 29.2947 22.7537L25.3976 25.4171C24.5163 26.0437 24.2813 27.2579 24.8884 28.1392C25.5151 29.04 26.7292 29.275 27.6301 28.6679L31.5272 25.985L35.4438 26.7096L31.2334 29.5492C30.6721 29.9271 30.2315 30.4586 29.9641 31.0802C29.6967 31.7018 29.6139 32.3872 29.7255 33.0546L30.7438 39.1254C27.963 38.1071 25.4172 37.5 23.498 37.5C21.853 37.5 19.8751 37.9896 19.8751 40.0067C19.8751 42.8267 24.1638 47.0958 29.7451 50.9342ZM41.4167 41.4167V44.3542C39.8892 43.4142 36.8342 41.7496 35.0326 40.9271L34.1709 35.7375L41.4167 41.4167Z" fill="white"/>
</svg>
