<svg width="50" height="50" viewBox="0 0 50 50" fill="none" xmlns="http://www.w3.org/2000/svg">
<path d="M19.8828 22.673C20.3683 22.3214 20.6027 21.7411 20.6027 20.9431C20.6194 20.5636 20.5413 20.1897 20.3739 19.8493C20.2232 19.5759 20 19.3471 19.7266 19.1853C19.443 19.0133 19.1282 18.8995 18.8002 18.8504C18.4431 18.7835 18.0804 18.75 17.7232 18.7556H13.8002V23.2031H18.0469C18.7779 23.2087 19.3973 23.0301 19.8828 22.673ZM20.5413 26.6908C19.9944 26.2723 19.2634 26.0658 18.3538 26.0658H13.7891V31.3114H18.2645C18.683 31.3114 19.0681 31.2723 19.442 31.1942C19.7957 31.125 20.1329 30.9886 20.4353 30.7924C20.7199 30.6083 20.9487 30.3571 21.1217 30.0335C21.2891 29.7098 21.3728 29.2969 21.3728 28.8002C21.3728 27.8125 21.0938 27.115 20.5413 26.6908ZM25 0C11.1942 0 0 11.1942 0 25C0 38.8058 11.1942 50 25 50C38.8058 50 50 38.8058 50 25C50 11.1942 38.8058 0 25 0ZM29.827 16.01H37.5502V17.8906H29.827V16.01ZM25 31.5179C24.6388 32.2036 24.1229 32.7958 23.4933 33.2478C22.8348 33.7054 22.1038 34.0402 21.3281 34.2355C20.5166 34.453 19.6794 34.5599 18.8393 34.5536H9.59821V15.519H18.5826C19.4922 15.519 20.3181 15.6027 21.0714 15.7589C21.8192 15.9152 22.4554 16.183 22.9911 16.5458C23.5212 16.9085 23.9397 17.394 24.2355 17.9967C24.5257 18.5938 24.6763 19.3415 24.6763 20.2288C24.6763 21.1886 24.4587 21.981 24.0234 22.6228C23.5826 23.2645 22.9464 23.7835 22.0815 24.1908C23.2589 24.5257 24.1239 25.1228 24.6931 25.9598C25.2734 26.808 25.558 27.8237 25.558 29.0179C25.558 29.9888 25.3739 30.8203 25 31.5179ZM40.558 28.5714H30.6027C30.6027 29.654 30.9766 30.692 31.5402 31.25C32.1094 31.8025 32.9241 32.0815 33.99 32.0815C34.76 32.0815 35.4129 31.8862 35.971 31.5011C36.5234 31.1161 36.8583 30.7087 36.981 30.2846H40.3181C39.7824 31.942 38.9676 33.125 37.8627 33.8393C36.769 34.5536 35.4297 34.9107 33.8728 34.9107C32.7846 34.9107 31.808 34.7321 30.9319 34.3917C30.0893 34.0625 29.3304 33.5603 28.7054 32.9129C28.0891 32.2482 27.6128 31.4663 27.3047 30.6138C26.9643 29.6708 26.7969 28.6775 26.808 27.6786C26.808 26.6462 26.981 25.6864 27.3158 24.7935C27.9576 23.058 29.2913 21.6685 30.9933 20.9487C31.9029 20.5692 32.8795 20.3795 33.8672 20.3906C35.0391 20.3906 36.0547 20.6138 36.9364 21.0714C37.7852 21.5084 38.5222 22.1346 39.0904 22.9018C39.654 23.6663 40.0502 24.5368 40.3013 25.519C40.5413 26.4844 40.625 27.5 40.558 28.5714ZM33.75 23.2366C33.1473 23.2366 32.6395 23.3426 32.2489 23.5491C31.8583 23.7556 31.5346 24.0123 31.2891 24.308C31.0552 24.5936 30.8824 24.9241 30.7812 25.279C30.692 25.5748 30.6306 25.8761 30.6083 26.183H36.7746C36.6853 25.2176 36.3504 24.5033 35.904 24.0011C35.4353 23.5045 34.6819 23.2366 33.75 23.2366Z" fill="black"/>
</svg>
