<svg width="97" height="97" viewBox="0 0 97 97" fill="none" xmlns="http://www.w3.org/2000/svg">
<rect width="97" height="97" fill="#F6F9FE"/>
<path d="M55.4205 38.44C59.3005 38.44 62.3405 39.58 64.5405 41.86C66.7805 44.14 67.9005 47.42 67.9005 51.7V70H64.9005V51.94C64.9005 48.42 64.0405 45.74 62.3205 43.9C60.6006 42.06 58.2006 41.14 55.1205 41.14C51.6005 41.14 48.8005 42.24 46.7205 44.44C44.6805 46.64 43.6605 49.6 43.6605 53.32V70H40.6605V51.94C40.6605 48.42 39.8005 45.74 38.0805 43.9C36.3605 42.06 33.9605 41.14 30.8805 41.14C27.3605 41.14 24.5605 42.24 22.4805 44.44C20.4405 46.64 19.4205 49.6 19.4205 53.32V70H16.4205V38.68H19.3005V45.4C20.3405 43.2 21.8805 41.5 23.9205 40.3C26.0005 39.06 28.4605 38.44 31.3005 38.44C34.1405 38.44 36.5405 39.08 38.5005 40.36C40.5005 41.64 41.9205 43.52 42.7605 46C43.8005 43.68 45.4205 41.84 47.6205 40.48C49.8605 39.12 52.4605 38.44 55.4205 38.44ZM79.9277 70.24C79.2477 70.24 78.6477 70 78.1277 69.52C77.6477 69 77.4077 68.38 77.4077 67.66C77.4077 66.94 77.6477 66.34 78.1277 65.86C78.6477 65.38 79.2477 65.14 79.9277 65.14C80.6077 65.14 81.1877 65.38 81.6677 65.86C82.1877 66.34 82.4477 66.94 82.4477 67.66C82.4477 68.38 82.1877 69 81.6677 69.52C81.1877 70 80.6077 70.24 79.9277 70.24Z" fill="#061839"/>
</svg>
